# Blender 4.4.3
# www.blender.org
mtllib coin1A(F114).mtl
o Cylinder
v 0.000000 -0.879555 -0.056929
v 0.000000 -0.879555 0.056929
v 0.336591 -0.812602 -0.056929
v 0.336591 -0.812602 0.056929
v 0.621939 -0.621939 -0.056929
v 0.621939 -0.621939 0.056929
v 0.812602 -0.336591 -0.056929
v 0.812602 -0.336591 0.056929
v 0.879555 -0.000000 -0.056929
v 0.879555 0.000000 0.056929
v 0.812602 0.336591 -0.056929
v 0.812602 0.336591 0.056929
v 0.621939 0.621939 -0.056929
v 0.621939 0.621939 0.056929
v 0.336591 0.812602 -0.056929
v 0.336591 0.812602 0.056929
v 0.000000 0.879555 -0.056929
v 0.000000 0.879555 0.056929
v -0.336591 0.812602 -0.056929
v -0.336591 0.812602 0.056929
v -0.621939 0.621939 -0.056929
v -0.621939 0.621939 0.056929
v -0.812602 0.336591 -0.056929
v -0.812602 0.336591 0.056929
v -0.879555 -0.000000 -0.056929
v -0.879555 0.000000 0.056929
v -0.812602 -0.336591 -0.056929
v -0.812602 -0.336591 0.056929
v -0.621939 -0.621939 -0.056929
v -0.621939 -0.621939 0.056929
v -0.336591 -0.812602 -0.056929
v -0.336591 -0.812602 0.056929
v -0.000000 -1.032237 -0.029226
v 0.395020 -0.953663 -0.029226
v 0.395020 -0.953663 0.029226
v -0.000000 -1.032237 0.029226
v 0.729902 -0.729902 -0.029226
v 0.729902 -0.729902 0.029226
v 0.953663 -0.395020 -0.029226
v 0.953663 -0.395020 0.029226
v 1.032237 -0.000000 -0.029226
v 1.032237 0.000000 0.029226
v 0.953663 0.395020 -0.029226
v 0.953663 0.395020 0.029226
v 0.729902 0.729902 -0.029226
v 0.729902 0.729902 0.029226
v 0.395020 0.953663 -0.029226
v 0.395020 0.953663 0.029226
v -0.000000 1.032237 -0.029226
v -0.000000 1.032237 0.029226
v -0.395020 0.953663 -0.029226
v -0.395020 0.953663 0.029226
v -0.729902 0.729902 -0.029226
v -0.729902 0.729902 0.029226
v -0.953663 0.395020 -0.029226
v -0.953663 0.395020 0.029226
v -1.032237 -0.000000 -0.029226
v -1.032237 0.000000 0.029226
v -0.953663 -0.395020 -0.029226
v -0.953663 -0.395020 0.029226
v -0.729902 -0.729902 -0.029226
v -0.729902 -0.729902 0.029226
v -0.395020 -0.953663 -0.029226
v -0.395020 -0.953663 0.029226
v 0.000000 -1.000000 -0.079516
v 0.382683 -0.923880 -0.079516
v 0.382683 -0.923880 0.079516
v 0.000000 -1.000000 0.079516
v 0.707107 -0.707107 -0.079516
v 0.707107 -0.707107 0.079516
v 0.923880 -0.382683 -0.079516
v 0.923880 -0.382683 0.079516
v 1.000000 -0.000000 -0.079516
v 1.000000 0.000000 0.079516
v 0.923880 0.382683 -0.079516
v 0.923880 0.382683 0.079516
v 0.707107 0.707107 -0.079516
v 0.707107 0.707107 0.079516
v 0.382683 0.923880 -0.079516
v 0.382683 0.923880 0.079516
v 0.000000 1.000000 -0.079516
v 0.000000 1.000000 0.079516
v -0.382683 0.923880 -0.079516
v -0.382683 0.923880 0.079516
v -0.707107 0.707107 -0.079516
v -0.707107 0.707107 0.079516
v -0.923880 0.382683 -0.079516
v -0.923880 0.382683 0.079516
v -1.000000 -0.000000 -0.079516
v -1.000000 0.000000 0.079516
v -0.923880 -0.382683 -0.079516
v -0.923880 -0.382683 0.079516
v -0.707107 -0.707107 -0.079516
v -0.707107 -0.707107 0.079516
v -0.382683 -0.923880 -0.079516
v -0.382683 -0.923880 0.079516
v 0.000000 -0.879555 -0.079516
v 0.336591 -0.812602 -0.079516
v 0.336591 -0.812602 0.079516
v 0.000000 -0.879555 0.079516
v 0.621939 -0.621939 -0.079516
v 0.621939 -0.621939 0.079516
v 0.812602 -0.336591 -0.079516
v 0.812602 -0.336591 0.079516
v 0.879555 -0.000000 -0.079516
v 0.879555 0.000000 0.079516
v 0.812602 0.336591 -0.079516
v 0.812602 0.336591 0.079516
v 0.621939 0.621939 -0.079516
v 0.621939 0.621939 0.079516
v 0.336591 0.812602 -0.079516
v 0.336591 0.812602 0.079516
v 0.000000 0.879555 -0.079516
v 0.000000 0.879555 0.079516
v -0.336591 0.812602 -0.079516
v -0.336591 0.812602 0.079516
v -0.621939 0.621939 -0.079516
v -0.621939 0.621939 0.079516
v -0.812602 0.336591 -0.079516
v -0.812602 0.336591 0.079516
v -0.879555 -0.000000 -0.079516
v -0.879555 0.000000 0.079516
v -0.812602 -0.336591 -0.079516
v -0.812602 -0.336591 0.079516
v -0.621939 -0.621939 -0.079516
v -0.621939 -0.621939 0.079516
v -0.336591 -0.812602 -0.079516
v -0.336591 -0.812602 0.079516
vn 0.1951 -0.9808 -0.0000
vn 0.5556 -0.8315 -0.0000
vn 0.8315 -0.5556 -0.0000
vn 0.9808 -0.1951 -0.0000
vn 0.9808 0.1951 -0.0000
vn 0.8315 0.5556 -0.0000
vn 0.5556 0.8315 -0.0000
vn 0.1951 0.9808 -0.0000
vn -0.1951 0.9808 -0.0000
vn -0.5556 0.8315 -0.0000
vn -0.8315 0.5556 -0.0000
vn -0.9808 0.1951 -0.0000
vn -0.9808 -0.1951 -0.0000
vn -0.8315 -0.5556 -0.0000
vn -0.0000 -0.0000 1.0000
vn -0.5556 -0.8315 -0.0000
vn -0.1951 -0.9808 -0.0000
vn -0.0000 -0.0000 -1.0000
vn -0.1652 0.8303 -0.5323
vn 0.1652 0.8303 0.5323
vn 0.1652 0.8303 -0.5323
vn -0.1652 -0.8303 0.5323
vn 0.4703 0.7039 0.5323
vn -0.1652 -0.8303 -0.5323
vn 0.4703 0.7039 -0.5323
vn -0.4703 -0.7039 0.5323
vn 0.7039 0.4703 0.5323
vn -0.4703 -0.7039 -0.5323
vn 0.7039 0.4703 -0.5323
vn -0.7039 -0.4703 0.5323
vn 0.8303 0.1652 0.5323
vn -0.7039 -0.4703 -0.5323
vn 0.8303 0.1652 -0.5323
vn -0.1652 0.8303 0.5323
vn 0.1652 -0.8303 -0.5323
vn 0.1652 -0.8303 0.5323
vn -0.4703 0.7039 -0.5323
vn -0.4703 0.7039 0.5323
vn 0.4703 -0.7039 -0.5323
vn -0.7039 0.4703 -0.5323
vn 0.4703 -0.7039 0.5323
vn -0.7039 0.4703 0.5323
vn 0.7039 -0.4703 -0.5323
vn -0.8303 0.1652 -0.5323
vn 0.7039 -0.4703 0.5323
vn -0.8303 0.1652 0.5323
vn 0.8303 -0.1652 -0.5323
vn -0.8303 -0.1652 -0.5323
vn 0.8303 -0.1652 0.5323
vn -0.8303 -0.1652 0.5323
vt 1.000000 0.500000
vt 1.000000 1.000000
vt 0.937500 1.000000
vt 0.937500 0.500000
vt 0.875000 1.000000
vt 0.875000 0.500000
vt 0.812500 1.000000
vt 0.812500 0.500000
vt 0.750000 1.000000
vt 0.750000 0.500000
vt 0.687500 1.000000
vt 0.687500 0.500000
vt 0.625000 1.000000
vt 0.625000 0.500000
vt 0.562500 1.000000
vt 0.562500 0.500000
vt 0.500000 1.000000
vt 0.500000 0.500000
vt 0.437500 1.000000
vt 0.437500 0.500000
vt 0.375000 1.000000
vt 0.375000 0.500000
vt 0.312500 1.000000
vt 0.312500 0.500000
vt 0.250000 1.000000
vt 0.250000 0.500000
vt 0.187500 1.000000
vt 0.187500 0.500000
vt 0.125000 1.000000
vt 0.125000 0.500000
vt 0.316792 0.947415
vt 0.501497 0.984156
vt 0.686202 0.947415
vt 0.842788 0.842788
vt 0.947415 0.686202
vt 0.984156 0.501497
vt 0.947415 0.316791
vt 0.842788 0.160206
vt 0.686203 0.055578
vt 0.501497 0.018838
vt 0.316792 0.055578
vt 0.160206 0.160206
vt 0.055579 0.316791
vt 0.018838 0.501497
vt 0.055579 0.686202
vt 0.160206 0.842788
vt 0.062500 1.000000
vt 0.062500 0.500000
vt 0.000000 1.000000
vt 0.000000 0.500000
vt 0.501497 0.983685
vt 0.686023 0.946981
vt 0.842455 0.842456
vt 0.946981 0.686023
vt 0.983685 0.501497
vt 0.946981 0.316971
vt 0.842455 0.160538
vt 0.686023 0.056013
vt 0.501497 0.019309
vt 0.316971 0.056013
vt 0.160538 0.160538
vt 0.056013 0.316971
vt 0.019309 0.501497
vt 0.056013 0.686023
vt 0.160538 0.842456
vt 0.316971 0.946981
vt 0.330782 0.445025
vt 0.399265 0.399265
vt 0.100735 0.399265
vt 0.169218 0.445025
vt 0.899265 0.399265
vt 0.830782 0.445025
vt 0.669218 0.445025
vt 0.600735 0.399265
vt 0.250000 0.461093
vt 0.054975 0.330782
vt 0.750000 0.461093
vt 0.554975 0.330782
vt 0.038907 0.250000
vt 0.538907 0.250000
vt 0.054975 0.169218
vt 0.554975 0.169218
vt 0.100735 0.100735
vt 0.600735 0.100735
vt 0.169218 0.054975
vt 0.669218 0.054975
vt 0.250000 0.038907
vt 0.750000 0.490000
vt 0.841844 0.471731
vt 0.341844 0.471731
vt 0.250000 0.490000
vt 0.919706 0.419706
vt 0.419706 0.419706
vt 0.945024 0.330782
vt 0.971731 0.341844
vt 0.445025 0.330782
vt 0.471731 0.341844
vt 0.961093 0.250000
vt 0.990000 0.250000
vt 0.461093 0.250000
vt 0.490000 0.250000
vt 0.945024 0.169218
vt 0.971731 0.158156
vt 0.445025 0.169218
vt 0.471731 0.158156
vt 0.899265 0.100735
vt 0.919706 0.080294
vt 0.399265 0.100735
vt 0.419706 0.080294
vt 0.830782 0.054975
vt 0.841844 0.028269
vt 0.330782 0.054975
vt 0.341844 0.028269
vt 0.750000 0.038907
vt 0.750000 0.010000
vt 0.250000 0.010000
vt 0.658156 0.028269
vt 0.158156 0.028269
vt 0.580294 0.080294
vt 0.080294 0.080294
vt 0.528269 0.158156
vt 0.028269 0.158156
vt 0.510000 0.250000
vt 0.010000 0.250000
vt 0.528269 0.341844
vt 0.028269 0.341844
vt 0.580294 0.419706
vt 0.080294 0.419706
vt 0.658156 0.471731
vt 0.158156 0.471731
s 0
usemtl Material.001
f 49/18/19 81/18/19 83/20/19 51/20/19
f 4/67/10 99/67/10 102/68/10 6/68/10
f 30/69/7 126/69/7 128/70/7 32/70/7
f 5/71/10 101/71/10 98/72/10 3/72/10
f 31/73/7 127/73/7 125/74/7 29/74/7
f 50/17/20 82/17/20 80/15/20 48/15/20
f 2/75/9 100/75/9 99/67/9 4/67/9
f 28/76/6 124/76/6 126/69/6 30/69/6
f 47/16/21 79/16/21 81/18/21 49/18/21
f 3/72/9 98/72/9 97/77/9 1/77/9
f 29/74/6 125/74/6 123/78/6 27/78/6
f 36/49/22 68/49/22 96/47/22 64/47/22
f 26/79/5 122/79/5 124/76/5 28/76/5
f 48/15/23 80/15/23 78/13/23 46/13/23
f 63/48/24 95/48/24 65/50/24 33/50/24
f 27/78/5 123/78/5 121/80/5 25/80/5
f 45/14/25 77/14/25 79/16/25 47/16/25
f 24/81/4 120/81/4 122/79/4 26/79/4
f 64/47/26 96/47/26 94/29/26 62/29/26
f 25/80/4 121/80/4 119/82/4 23/82/4
f 46/13/27 78/13/27 76/11/27 44/11/27
f 61/30/28 93/30/28 95/48/28 63/48/28
f 22/83/3 118/83/3 120/81/3 24/81/3
f 43/12/29 75/12/29 77/14/29 45/14/29
f 23/82/3 119/82/3 117/84/3 21/84/3
f 62/29/30 94/29/30 92/27/30 60/27/30
f 20/85/2 116/85/2 118/83/2 22/83/2
f 44/11/31 76/11/31 74/9/31 42/9/31
f 59/28/32 91/28/32 93/30/32 61/30/32
f 21/84/2 117/84/2 115/86/2 19/86/2
f 41/10/33 73/10/33 75/12/33 43/12/33
f 18/87/1 114/87/1 116/85/1 20/85/1
f 98/72/18 66/89/18 65/88/18 97/77/18
f 100/75/15 68/91/15 67/90/15 99/67/15
f 101/71/18 69/92/18 66/89/18 98/72/18
f 99/67/15 67/90/15 70/93/15 102/68/15
f 103/94/18 71/95/18 69/92/18 101/71/18
f 102/68/15 70/93/15 72/97/15 104/96/15
f 105/98/18 73/99/18 71/95/18 103/94/18
f 104/96/15 72/97/15 74/101/15 106/100/15
f 107/102/18 75/103/18 73/99/18 105/98/18
f 106/100/15 74/101/15 76/105/15 108/104/15
f 109/106/18 77/107/18 75/103/18 107/102/18
f 108/104/15 76/105/15 78/109/15 110/108/15
f 111/110/18 79/111/18 77/107/18 109/106/18
f 110/108/15 78/109/15 80/113/15 112/112/15
f 113/114/18 81/115/18 79/111/18 111/110/18
f 112/112/15 80/113/15 82/116/15 114/87/15
f 115/86/18 83/117/18 81/115/18 113/114/18
f 114/87/15 82/116/15 84/118/15 116/85/15
f 117/84/18 85/119/18 83/117/18 115/86/18
f 116/85/15 84/118/15 86/120/15 118/83/15
f 119/82/18 87/121/18 85/119/18 117/84/18
f 118/83/15 86/120/15 88/122/15 120/81/15
f 121/80/18 89/123/18 87/121/18 119/82/18
f 120/81/15 88/122/15 90/124/15 122/79/15
f 123/78/18 91/125/18 89/123/18 121/80/18
f 122/79/15 90/124/15 92/126/15 124/76/15
f 125/74/18 93/127/18 91/125/18 123/78/18
f 124/76/15 92/126/15 94/128/15 126/69/15
f 127/73/18 95/129/18 93/127/18 125/74/18
f 126/69/15 94/128/15 96/130/15 128/70/15
f 97/77/18 65/88/18 95/129/18 127/73/18
f 128/70/15 96/130/15 68/91/15 100/75/15
f 1/77/8 97/77/8 127/73/8 31/73/8
f 7/94/11 103/94/11 101/71/11 5/71/11
f 52/19/34 84/19/34 82/17/34 50/17/34
f 33/1/35 65/1/35 66/4/35 34/4/35
f 32/70/8 128/70/8 100/75/8 2/75/8
f 6/68/11 102/68/11 104/96/11 8/96/11
f 35/3/36 67/3/36 68/2/36 36/2/36
f 9/98/12 105/98/12 103/94/12 7/94/12
f 51/20/37 83/20/37 85/22/37 53/22/37
f 8/96/12 104/96/12 106/100/12 10/100/12
f 54/21/38 86/21/38 84/19/38 52/19/38
f 11/102/13 107/102/13 105/98/13 9/98/13
f 34/4/39 66/4/39 69/6/39 37/6/39
f 10/100/13 106/100/13 108/104/13 12/104/13
f 53/22/40 85/22/40 87/24/40 55/24/40
f 38/5/41 70/5/41 67/3/41 35/3/41
f 13/106/14 109/106/14 107/102/14 11/102/14
f 56/23/42 88/23/42 86/21/42 54/21/42
f 12/104/14 108/104/14 110/108/14 14/108/14
f 37/6/43 69/6/43 71/8/43 39/8/43
f 15/110/16 111/110/16 109/106/16 13/106/16
f 55/24/44 87/24/44 89/26/44 57/26/44
f 40/7/45 72/7/45 70/5/45 38/5/45
f 14/108/16 110/108/16 112/112/16 16/112/16
f 58/25/46 90/25/46 88/23/46 56/23/46
f 17/114/17 113/114/17 111/110/17 15/110/17
f 39/8/47 71/8/47 73/10/47 41/10/47
f 16/112/17 112/112/17 114/87/17 18/87/17
f 57/26/48 89/26/48 91/28/48 59/28/48
f 42/9/49 74/9/49 72/7/49 40/7/49
f 19/86/1 115/86/1 113/114/1 17/114/1
f 60/27/50 92/27/50 90/25/50 58/25/50
usemtl Material.002
f 4/31/15 6/46/15 8/45/15 10/44/15 12/43/15 14/42/15 16/41/15 18/40/15 20/39/15 22/38/15 24/37/15 26/36/15 28/35/15 30/34/15 32/33/15 2/32/15
f 1/51/18 31/66/18 29/65/18 27/64/18 25/63/18 23/62/18 21/61/18 19/60/18 17/59/18 15/58/18 13/57/18 11/56/18 9/55/18 7/54/18 5/53/18 3/52/18
usemtl Material.003
f 33/1/1 34/4/1 35/3/1 36/2/1
f 34/4/2 37/6/2 38/5/2 35/3/2
f 37/6/3 39/8/3 40/7/3 38/5/3
f 39/8/4 41/10/4 42/9/4 40/7/4
f 41/10/5 43/12/5 44/11/5 42/9/5
f 43/12/6 45/14/6 46/13/6 44/11/6
f 45/14/7 47/16/7 48/15/7 46/13/7
f 47/16/8 49/18/8 50/17/8 48/15/8
f 49/18/9 51/20/9 52/19/9 50/17/9
f 51/20/10 53/22/10 54/21/10 52/19/10
f 53/22/11 55/24/11 56/23/11 54/21/11
f 55/24/12 57/26/12 58/25/12 56/23/12
f 57/26/13 59/28/13 60/27/13 58/25/13
f 59/28/14 61/30/14 62/29/14 60/27/14
f 61/30/16 63/48/16 64/47/16 62/29/16
f 63/48/17 33/50/17 36/49/17 64/47/17
