# Blender 4.4.3
# www.blender.org
mtllib pillar2B(F186).mtl
o Cube
v 0.480627 0.268667 -0.516803
v 0.480627 0.288889 -0.480627
v 0.516803 0.268667 -0.480627
v 0.480627 -0.288889 -0.480627
v 0.480627 -0.268667 -0.516803
v 0.516803 -0.268667 -0.480627
v 0.516803 0.268667 0.480627
v 0.480627 0.288889 0.480627
v 0.480627 0.268667 0.516803
v 0.516803 -0.268667 0.480627
v 0.480627 -0.268667 0.516803
v 0.480627 -0.288889 0.480627
v -0.480627 0.268667 -0.516803
v -0.516803 0.268667 -0.480627
v -0.480627 0.288889 -0.480627
v -0.516803 -0.268667 -0.480627
v -0.480627 -0.268667 -0.516803
v -0.480627 -0.288889 -0.480627
v -0.516803 0.268667 0.480627
v -0.480627 0.268667 0.516803
v -0.480627 0.288889 0.480627
v -0.480627 -0.288889 0.480627
v -0.480627 -0.268667 0.516803
v -0.516803 -0.268667 0.480627
vn -0.0000 -1.0000 -0.0000
vn -1.0000 -0.0000 -0.0000
vn -0.0000 -0.0000 1.0000
vn -0.0000 1.0000 -0.0000
vn 1.0000 -0.0000 -0.0000
vn 0.4385 0.7845 -0.4385
vn 0.4385 -0.7845 -0.4385
vn 0.4385 0.7845 0.4385
vn 0.4385 -0.7845 0.4385
vn -0.4385 0.7845 -0.4385
vn -0.4385 -0.7845 -0.4385
vn -0.4385 0.7845 0.4385
vn -0.4385 -0.7845 0.4385
vn -0.4879 -0.8729 -0.0000
vn -0.0000 -0.8729 -0.4879
vn 0.7071 -0.0000 -0.7071
vn -0.7071 -0.0000 0.7071
vn 0.7071 -0.0000 0.7071
vn -0.7071 -0.0000 -0.7071
vn -0.0000 0.8729 0.4879
vn 0.4879 0.8729 -0.0000
vn -0.0000 -0.8729 0.4879
vn -0.4879 0.8729 -0.0000
vn -0.0000 0.8729 -0.4879
vn 0.4879 -0.8729 -0.0000
vn -0.0000 -0.0000 -1.0000
vt 0.133750 0.508750
vt 0.366250 0.508750
vt 0.366250 0.741250
vt 0.133750 0.741250
vt 0.383750 0.008750
vt 0.616250 0.008750
vt 0.616250 0.241250
vt 0.383750 0.241250
vt 0.383750 0.758750
vt 0.616250 0.758750
vt 0.616250 0.991250
vt 0.383750 0.991250
vt 0.633750 0.508750
vt 0.866250 0.508750
vt 0.866250 0.741250
vt 0.633750 0.741250
vt 0.383750 0.508750
vt 0.616250 0.508750
vt 0.616250 0.741250
vt 0.383750 0.741250
vt 0.616250 0.491250
vt 0.625000 0.491250
vt 0.616250 0.500000
vt 0.366250 0.500000
vt 0.375000 0.508750
vt 0.616250 0.750000
vt 0.625000 0.758750
vt 0.375000 0.741250
vt 0.366250 0.750000
vt 0.616250 0.250000
vt 0.625000 0.241250
vt 0.125000 0.508750
vt 0.133750 0.500000
vt 0.616250 0.000000
vt 0.625000 0.008750
vt 0.133750 0.750000
vt 0.125000 0.741250
vt 0.383750 0.491250
vt 0.383750 0.000000
vt 0.616250 0.258750
vt 0.383750 0.258750
vt 0.625000 0.991250
vt 0.366250 0.750000
vt 0.625000 0.258750
s 0
usemtl Material.001
f 18/1/1 4/2/1 12/3/1 22/4/1
f 24/5/2 19/6/2 14/7/2 16/8/2
f 11/9/3 9/10/3 20/11/3 23/12/3
f 2/13/4 15/14/4 21/15/4 8/16/4
f 6/17/5 3/18/5 7/19/5 10/20/5
f 1/21/6 2/22/6 3/23/6
f 4/2/7 5/24/7 6/25/7
f 7/26/8 8/27/8 9/10/8
f 10/28/9 11/29/9 12/3/9
f 13/30/10 14/7/10 15/31/10
f 16/32/11 17/33/11 18/1/11
f 19/6/12 20/34/12 21/35/12
f 22/4/13 23/36/13 24/37/13
f 18/1/14 22/4/14 24/37/14 16/32/14
f 4/2/15 18/1/15 17/33/15 5/24/15
f 3/18/16 6/17/16 5/38/16 1/21/16
f 23/39/17 20/34/17 19/6/17 24/5/17
f 9/10/18 11/9/18 10/20/18 7/19/18
f 13/40/19 17/41/19 16/8/19 14/7/19
f 8/27/20 21/42/20 20/11/20 9/10/20
f 2/13/21 8/16/21 7/19/21 3/18/21
f 22/4/22 12/3/22 11/43/22 23/36/22
f 21/35/23 15/31/23 14/7/23 19/6/23
f 15/44/24 2/22/24 1/21/24 13/40/24
f 12/3/25 4/2/25 6/17/25 10/20/25
f 17/41/26 13/40/26 1/21/26 5/38/26
o Cube.001
v 0.392804 0.489380 -0.422370
v 0.392804 0.502357 -0.392804
v 0.422370 0.489380 -0.392804
v 0.392804 0.131585 -0.392804
v 0.392804 0.144562 -0.422370
v 0.422370 0.144562 -0.392804
v 0.422370 0.489380 0.392804
v 0.392804 0.502357 0.392804
v 0.392804 0.489380 0.422370
v 0.422370 0.144562 0.392804
v 0.392804 0.144562 0.422370
v 0.392804 0.131585 0.392804
v -0.392804 0.489380 -0.422370
v -0.422370 0.489380 -0.392804
v -0.392804 0.502357 -0.392804
v -0.422370 0.144562 -0.392804
v -0.392804 0.144562 -0.422370
v -0.392804 0.131585 -0.392804
v -0.422370 0.489380 0.392804
v -0.392804 0.489380 0.422370
v -0.392804 0.502357 0.392804
v -0.392804 0.131585 0.392804
v -0.392804 0.144562 0.422370
v -0.422370 0.144562 0.392804
vn -0.0000 -1.0000 -0.0000
vn -1.0000 -0.0000 -0.0000
vn -0.0000 -0.0000 1.0000
vn -0.0000 1.0000 -0.0000
vn 1.0000 -0.0000 -0.0000
vn 0.3729 0.8496 -0.3729
vn 0.3729 -0.8496 -0.3729
vn 0.3729 0.8496 0.3729
vn 0.3729 -0.8496 0.3729
vn -0.3729 0.8496 -0.3729
vn -0.3729 -0.8496 -0.3729
vn -0.3729 0.8496 0.3729
vn -0.3729 -0.8496 0.3729
vn -0.4019 -0.9157 -0.0000
vn -0.0000 -0.9157 -0.4019
vn 0.7071 -0.0000 -0.7071
vn -0.7071 -0.0000 0.7071
vn 0.7071 -0.0000 0.7071
vn -0.7071 -0.0000 -0.7071
vn -0.0000 0.9157 0.4019
vn 0.4019 0.9157 -0.0000
vn -0.0000 -0.9157 0.4019
vn -0.4019 0.9157 -0.0000
vn -0.0000 0.9157 -0.4019
vn 0.4019 -0.9157 -0.0000
vn -0.0000 -0.0000 -1.0000
vt 0.133750 0.508750
vt 0.366250 0.508750
vt 0.366250 0.741250
vt 0.133750 0.741250
vt 0.383750 0.008750
vt 0.616250 0.008750
vt 0.616250 0.241250
vt 0.383750 0.241250
vt 0.383750 0.758750
vt 0.616250 0.758750
vt 0.616250 0.991250
vt 0.383750 0.991250
vt 0.633750 0.508750
vt 0.866250 0.508750
vt 0.866250 0.741250
vt 0.633750 0.741250
vt 0.383750 0.508750
vt 0.616250 0.508750
vt 0.616250 0.741250
vt 0.383750 0.741250
vt 0.616250 0.491250
vt 0.625000 0.491250
vt 0.616250 0.500000
vt 0.366250 0.500000
vt 0.375000 0.508750
vt 0.616250 0.750000
vt 0.625000 0.758750
vt 0.375000 0.741250
vt 0.366250 0.750000
vt 0.616250 0.250000
vt 0.625000 0.241250
vt 0.125000 0.508750
vt 0.133750 0.500000
vt 0.616250 0.000000
vt 0.625000 0.008750
vt 0.133750 0.750000
vt 0.125000 0.741250
vt 0.383750 0.491250
vt 0.383750 0.000000
vt 0.616250 0.258750
vt 0.383750 0.258750
vt 0.625000 0.991250
vt 0.366250 0.750000
vt 0.625000 0.258750
s 0
usemtl Material
f 42/45/27 28/46/27 36/47/27 46/48/27
f 48/49/28 43/50/28 38/51/28 40/52/28
f 35/53/29 33/54/29 44/55/29 47/56/29
f 26/57/30 39/58/30 45/59/30 32/60/30
f 30/61/31 27/62/31 31/63/31 34/64/31
f 25/65/32 26/66/32 27/67/32
f 28/46/33 29/68/33 30/69/33
f 31/70/34 32/71/34 33/54/34
f 34/72/35 35/73/35 36/47/35
f 37/74/36 38/51/36 39/75/36
f 40/76/37 41/77/37 42/45/37
f 43/50/38 44/78/38 45/79/38
f 46/48/39 47/80/39 48/81/39
f 42/45/40 46/48/40 48/81/40 40/76/40
f 28/46/41 42/45/41 41/77/41 29/68/41
f 27/62/42 30/61/42 29/82/42 25/65/42
f 47/83/43 44/78/43 43/50/43 48/49/43
f 33/54/44 35/53/44 34/64/44 31/63/44
f 37/84/45 41/85/45 40/52/45 38/51/45
f 32/71/46 45/86/46 44/55/46 33/54/46
f 26/57/47 32/60/47 31/63/47 27/62/47
f 46/48/48 36/47/48 35/87/48 47/80/48
f 45/79/49 39/75/49 38/51/49 43/50/49
f 39/88/50 26/66/50 25/65/50 37/84/50
f 36/47/51 28/46/51 30/61/51 34/64/51
f 41/85/52 37/84/52 25/65/52 29/82/52
o Cube.002
v 0.480627 3.720995 0.514497
v 0.480627 3.701500 0.477924
v 0.516803 3.721719 0.478328
v 0.480627 4.279164 0.489474
v 0.480627 4.258222 0.525239
v 0.516803 4.258945 0.489070
v 0.516803 3.740935 -0.482733
v 0.480627 3.720717 -0.483138
v 0.480627 3.741658 -0.518902
v 0.516803 4.278162 -0.471991
v 0.480627 4.278885 -0.508160
v 0.480627 4.298380 -0.471587
v -0.480627 3.720995 0.514497
v -0.516803 3.721719 0.478328
v -0.480627 3.701500 0.477924
v -0.516803 4.258945 0.489070
v -0.480627 4.258222 0.525239
v -0.480627 4.279164 0.489474
v -0.516803 3.740935 -0.482733
v -0.480627 3.741658 -0.518902
v -0.480627 3.720717 -0.483138
v -0.480627 4.298380 -0.471587
v -0.480627 4.278885 -0.508160
v -0.516803 4.278162 -0.471991
vn -0.0000 0.9998 0.0200
vn -1.0000 -0.0000 -0.0000
vn -0.0000 0.0200 -0.9998
vn -0.0000 -0.9998 -0.0200
vn 1.0000 -0.0000 -0.0000
vn 0.4385 -0.7931 0.4227
vn 0.4385 0.7756 0.4541
vn 0.4385 -0.7756 -0.4541
vn 0.4385 0.7931 -0.4227
vn -0.4385 -0.7931 0.4227
vn -0.4385 0.7756 0.4541
vn -0.4385 -0.7756 -0.4541
vn -0.4385 0.7931 -0.4227
vn -0.4879 0.8727 0.0174
vn -0.0000 0.8630 0.5053
vn 0.7071 -0.0141 0.7070
vn -0.7071 0.0141 -0.7070
vn 0.7071 0.0141 -0.7070
vn -0.7071 -0.0141 0.7070
vn -0.0000 -0.8630 -0.5053
vn 0.4879 -0.8727 -0.0174
vn -0.0000 0.8825 -0.4704
vn -0.4879 -0.8727 -0.0174
vn -0.0000 -0.8825 0.4704
vn 0.4879 0.8727 0.0174
vn -0.0000 -0.0200 0.9998
vt 0.133750 0.508750
vt 0.366250 0.508750
vt 0.366250 0.741250
vt 0.133750 0.741250
vt 0.383750 0.008750
vt 0.616250 0.008750
vt 0.616250 0.241250
vt 0.383750 0.241250
vt 0.383750 0.758750
vt 0.616250 0.758750
vt 0.616250 0.991250
vt 0.383750 0.991250
vt 0.633750 0.508750
vt 0.866250 0.508750
vt 0.866250 0.741250
vt 0.633750 0.741250
vt 0.383750 0.508750
vt 0.616250 0.508750
vt 0.616250 0.741250
vt 0.383750 0.741250
vt 0.616250 0.491250
vt 0.625000 0.491250
vt 0.616250 0.500000
vt 0.366250 0.500000
vt 0.375000 0.508750
vt 0.616250 0.750000
vt 0.625000 0.758750
vt 0.375000 0.741250
vt 0.366250 0.750000
vt 0.616250 0.250000
vt 0.625000 0.241250
vt 0.125000 0.508750
vt 0.133750 0.500000
vt 0.616250 0.000000
vt 0.625000 0.008750
vt 0.133750 0.750000
vt 0.125000 0.741250
vt 0.383750 0.491250
vt 0.383750 0.000000
vt 0.616250 0.258750
vt 0.383750 0.258750
vt 0.625000 0.991250
vt 0.366250 0.750000
vt 0.625000 0.258750
s 0
usemtl Material.001
f 66/89/53 52/90/53 60/91/53 70/92/53
f 72/93/54 67/94/54 62/95/54 64/96/54
f 59/97/55 57/98/55 68/99/55 71/100/55
f 50/101/56 63/102/56 69/103/56 56/104/56
f 54/105/57 51/106/57 55/107/57 58/108/57
f 49/109/58 50/110/58 51/111/58
f 52/90/59 53/112/59 54/113/59
f 55/114/60 56/115/60 57/98/60
f 58/116/61 59/117/61 60/91/61
f 61/118/62 62/95/62 63/119/62
f 64/120/63 65/121/63 66/89/63
f 67/94/64 68/122/64 69/123/64
f 70/92/65 71/124/65 72/125/65
f 66/89/66 70/92/66 72/125/66 64/120/66
f 52/90/67 66/89/67 65/121/67 53/112/67
f 51/106/68 54/105/68 53/126/68 49/109/68
f 71/127/69 68/122/69 67/94/69 72/93/69
f 57/98/70 59/97/70 58/108/70 55/107/70
f 61/128/71 65/129/71 64/96/71 62/95/71
f 56/115/72 69/130/72 68/99/72 57/98/72
f 50/101/73 56/104/73 55/107/73 51/106/73
f 70/92/74 60/91/74 59/131/74 71/124/74
f 69/123/75 63/119/75 62/95/75 67/94/75
f 63/132/76 50/110/76 49/109/76 61/128/76
f 60/91/77 52/90/77 54/105/77 58/108/77
f 65/129/78 61/128/78 49/109/78 53/126/78
o Cube.003
v 0.392804 3.502214 0.415671
v 0.392804 3.489831 0.385852
v 0.422370 3.502805 0.386111
v 0.392804 3.860529 0.393264
v 0.392804 3.846964 0.422564
v 0.422370 3.847555 0.393004
v 0.422370 3.518511 -0.399341
v 0.392804 3.505536 -0.399600
v 0.392804 3.519102 -0.428901
v 0.422370 3.863260 -0.392447
v 0.392804 3.863851 -0.422007
v 0.392804 3.876235 -0.392188
v -0.392804 3.502214 0.415671
v -0.422370 3.502805 0.386111
v -0.392804 3.489831 0.385852
v -0.422370 3.847555 0.393004
v -0.392804 3.846964 0.422564
v -0.392804 3.860529 0.393264
v -0.422370 3.518511 -0.399341
v -0.392804 3.519102 -0.428901
v -0.392804 3.505536 -0.399600
v -0.392804 3.876235 -0.392188
v -0.392804 3.863851 -0.422007
v -0.422370 3.863260 -0.392447
vn -0.0000 0.9998 0.0200
vn -1.0000 -0.0000 -0.0000
vn -0.0000 0.0200 -0.9998
vn -0.0000 -0.9998 -0.0200
vn 1.0000 -0.0000 -0.0000
vn 0.3729 -0.8569 0.3559
vn 0.3729 0.8420 0.3898
vn 0.3729 -0.8420 -0.3898
vn 0.3729 0.8569 -0.3559
vn -0.3729 -0.8569 0.3559
vn -0.3729 0.8420 0.3898
vn -0.3729 -0.8420 -0.3898
vn -0.3729 0.8569 -0.3559
vn -0.4019 0.9155 0.0183
vn -0.0000 0.9075 0.4201
vn 0.7071 -0.0141 0.7070
vn -0.7071 0.0141 -0.7070
vn 0.7071 0.0141 -0.7070
vn -0.7071 -0.0141 0.7070
vn -0.0000 -0.9075 -0.4201
vn 0.4019 -0.9155 -0.0183
vn -0.0000 0.9235 -0.3835
vn -0.4019 -0.9155 -0.0183
vn -0.0000 -0.9235 0.3835
vn 0.4019 0.9155 0.0183
vn -0.0000 -0.0200 0.9998
vt 0.133750 0.508750
vt 0.366250 0.508750
vt 0.366250 0.741250
vt 0.133750 0.741250
vt 0.383750 0.008750
vt 0.616250 0.008750
vt 0.616250 0.241250
vt 0.383750 0.241250
vt 0.383750 0.758750
vt 0.616250 0.758750
vt 0.616250 0.991250
vt 0.383750 0.991250
vt 0.633750 0.508750
vt 0.866250 0.508750
vt 0.866250 0.741250
vt 0.633750 0.741250
vt 0.383750 0.508750
vt 0.616250 0.508750
vt 0.616250 0.741250
vt 0.383750 0.741250
vt 0.616250 0.491250
vt 0.625000 0.491250
vt 0.616250 0.500000
vt 0.366250 0.500000
vt 0.375000 0.508750
vt 0.616250 0.750000
vt 0.625000 0.758750
vt 0.375000 0.741250
vt 0.366250 0.750000
vt 0.616250 0.250000
vt 0.625000 0.241250
vt 0.125000 0.508750
vt 0.133750 0.500000
vt 0.616250 0.000000
vt 0.625000 0.008750
vt 0.133750 0.750000
vt 0.125000 0.741250
vt 0.383750 0.491250
vt 0.383750 0.000000
vt 0.616250 0.258750
vt 0.383750 0.258750
vt 0.625000 0.991250
vt 0.366250 0.750000
vt 0.625000 0.258750
s 0
usemtl Material
f 90/133/79 76/134/79 84/135/79 94/136/79
f 96/137/80 91/138/80 86/139/80 88/140/80
f 83/141/81 81/142/81 92/143/81 95/144/81
f 74/145/82 87/146/82 93/147/82 80/148/82
f 78/149/83 75/150/83 79/151/83 82/152/83
f 73/153/84 74/154/84 75/155/84
f 76/134/85 77/156/85 78/157/85
f 79/158/86 80/159/86 81/142/86
f 82/160/87 83/161/87 84/135/87
f 85/162/88 86/139/88 87/163/88
f 88/164/89 89/165/89 90/133/89
f 91/138/90 92/166/90 93/167/90
f 94/136/91 95/168/91 96/169/91
f 90/133/92 94/136/92 96/169/92 88/164/92
f 76/134/93 90/133/93 89/165/93 77/156/93
f 75/150/94 78/149/94 77/170/94 73/153/94
f 95/171/95 92/166/95 91/138/95 96/137/95
f 81/142/96 83/141/96 82/152/96 79/151/96
f 85/172/97 89/173/97 88/140/97 86/139/97
f 80/159/98 93/174/98 92/143/98 81/142/98
f 74/145/99 80/148/99 79/151/99 75/150/99
f 94/136/100 84/135/100 83/175/100 95/168/100
f 93/167/101 87/163/101 86/139/101 91/138/101
f 87/176/102 74/154/102 73/153/102 85/172/102
f 84/135/103 76/134/103 78/149/103 82/152/103
f 89/173/104 85/172/104 73/153/104 77/170/104
o Cylinder
v 0.000000 0.343978 -0.381575
v 0.000000 0.834946 -0.381575
v 0.146022 0.343978 -0.352529
v 0.146022 0.834946 -0.352529
v 0.269814 0.343978 -0.269814
v 0.269814 0.834946 -0.269814
v 0.352529 0.343978 -0.146022
v 0.352529 0.834946 -0.146022
v 0.381575 0.343978 0.000000
v 0.381575 0.834946 0.000000
v 0.352529 0.343978 0.146022
v 0.352529 0.834946 0.146022
v 0.269814 0.343978 0.269814
v 0.269814 0.834946 0.269814
v 0.146022 0.343978 0.352529
v 0.146022 0.834946 0.352529
v 0.000000 0.343978 0.381575
v 0.000000 0.834946 0.381575
v -0.146022 0.343978 0.352529
v -0.146022 0.834946 0.352529
v -0.269814 0.343978 0.269814
v -0.269814 0.834946 0.269814
v -0.352529 0.343978 0.146022
v -0.352529 0.834946 0.146022
v -0.381575 0.343978 0.000000
v -0.381575 0.834946 0.000000
v -0.352529 0.343978 -0.146022
v -0.352529 0.834946 -0.146022
v -0.269814 0.343978 -0.269814
v -0.269814 0.834946 -0.269814
v -0.146022 0.343978 -0.352529
v -0.146022 0.834946 -0.352529
v 0.154322 0.902280 -0.372567
v -0.000000 0.902280 -0.403264
v 0.285151 0.902280 -0.285151
v 0.372567 0.902280 -0.154322
v 0.403264 0.902280 -0.000000
v 0.372567 0.902280 0.154322
v 0.285151 0.902280 0.285151
v 0.154322 0.902280 0.372567
v -0.000000 0.902280 0.403264
v -0.154322 0.902280 0.372567
v -0.285151 0.902280 0.285151
v -0.372567 0.902280 0.154322
v -0.403264 0.902280 -0.000000
v -0.372567 0.902280 -0.154322
v -0.285151 0.902280 -0.285151
v -0.154322 0.902280 -0.372567
v 0.117433 0.953471 -0.283508
v -0.000000 0.953471 -0.306866
v 0.216987 0.953471 -0.216987
v 0.283508 0.953471 -0.117433
v 0.306866 0.953471 -0.000000
v 0.283508 0.953471 0.117433
v 0.216987 0.953471 0.216987
v 0.117433 0.953471 0.283508
v -0.000000 0.953471 0.306866
v -0.117433 0.953471 0.283508
v -0.216987 0.953471 0.216987
v -0.283508 0.953471 0.117433
v -0.306866 0.953471 -0.000000
v -0.283508 0.953471 -0.117433
v -0.216987 0.953471 -0.216987
v -0.117433 0.953471 -0.283508
v 0.154322 0.953471 -0.372567
v -0.000000 0.953471 -0.403264
v 0.285151 0.953471 -0.285151
v 0.372567 0.953471 -0.154322
v 0.403264 0.953471 -0.000000
v 0.372567 0.953471 0.154322
v 0.285151 0.953471 0.285151
v 0.154322 0.953471 0.372567
v -0.000000 0.953471 0.403264
v -0.154322 0.953471 0.372567
v -0.285151 0.953471 0.285151
v -0.372567 0.953471 0.154322
v -0.403264 0.953471 -0.000000
v -0.372567 0.953471 -0.154322
v -0.285151 0.953471 -0.285151
v -0.154322 0.953471 -0.372567
v 0.117433 3.606496 -0.283508
v -0.000000 3.606496 -0.306866
v 0.216987 3.606496 -0.216987
v 0.283508 3.606496 -0.117433
v 0.306866 3.606496 -0.000000
v 0.283508 3.606496 0.117433
v 0.216987 3.606496 0.216987
v 0.117433 3.606496 0.283508
v -0.000000 3.606496 0.306866
v -0.117433 3.606496 0.283508
v -0.216987 3.606496 0.216987
v -0.283508 3.606496 0.117433
v -0.306866 3.606496 -0.000000
v -0.283508 3.606496 -0.117433
v -0.216987 3.606496 -0.216987
v -0.117433 3.606496 -0.283508
vn 0.1951 -0.0000 -0.9808
vn 0.5556 -0.0000 -0.8315
vn 0.8315 -0.0000 -0.5556
vn 0.9808 -0.0000 -0.1951
vn 0.9808 -0.0000 0.1951
vn 0.8315 -0.0000 0.5556
vn 0.5556 -0.0000 0.8315
vn 0.1951 -0.0000 0.9808
vn -0.1951 -0.0000 0.9808
vn -0.5556 -0.0000 0.8315
vn -0.8315 -0.0000 0.5556
vn -0.9808 -0.0000 0.1951
vn -0.9808 -0.0000 -0.1951
vn -0.8315 -0.0000 -0.5556
vn 0.5298 -0.3013 -0.7928
vn -0.5556 -0.0000 -0.8315
vn -0.1951 -0.0000 -0.9808
vn -0.0000 -1.0000 -0.0000
vn 0.5298 -0.3013 0.7928
vn -0.9352 -0.3013 0.1860
vn 0.9352 -0.3013 0.1860
vn -0.5298 -0.3013 0.7928
vn -0.5298 -0.3013 -0.7928
vn 0.7928 -0.3013 -0.5298
vn 0.1860 -0.3013 0.9352
vn 0.1860 -0.3013 -0.9352
vn -0.9352 -0.3013 -0.1860
vn 0.7928 -0.3013 0.5298
vn -0.7928 -0.3013 0.5298
vn -0.1860 -0.3013 -0.9352
vn 0.9352 -0.3013 -0.1860
vn -0.1860 -0.3013 0.9352
vn -0.7928 -0.3013 -0.5298
vn -0.0000 1.0000 -0.0000
vt 1.000000 0.500000
vt 1.000000 1.000000
vt 0.937500 1.000000
vt 0.937500 0.500000
vt 0.875000 1.000000
vt 0.875000 0.500000
vt 0.812500 1.000000
vt 0.812500 0.500000
vt 0.750000 1.000000
vt 0.750000 0.500000
vt 0.687500 1.000000
vt 0.687500 0.500000
vt 0.625000 1.000000
vt 0.625000 0.500000
vt 0.562500 1.000000
vt 0.562500 0.500000
vt 0.500000 1.000000
vt 0.500000 0.500000
vt 0.437500 1.000000
vt 0.437500 0.500000
vt 0.375000 1.000000
vt 0.375000 0.500000
vt 0.312500 1.000000
vt 0.312500 0.500000
vt 0.250000 1.000000
vt 0.250000 0.500000
vt 0.187500 1.000000
vt 0.187500 0.500000
vt 0.125000 1.000000
vt 0.125000 0.500000
vt 0.062500 1.000000
vt 0.062500 0.500000
vt 0.000000 1.000000
vt 0.000000 0.500000
vt 0.750000 0.490000
vt 0.841844 0.471731
vt 0.919706 0.419706
vt 0.971731 0.341844
vt 0.990000 0.250000
vt 0.971731 0.158156
vt 0.919706 0.080294
vt 0.841844 0.028269
vt 0.750000 0.010000
vt 0.658156 0.028269
vt 0.580294 0.080294
vt 0.528269 0.158156
vt 0.510000 0.250000
vt 0.528269 0.341844
vt 0.580294 0.419706
vt 0.658156 0.471731
vt 0.067370 0.250000
vt 0.081272 0.180111
vt 0.250000 0.432630
vt 0.319889 0.418728
vt 0.341844 0.471731
vt 0.250000 0.490000
vt 0.379139 0.379139
vt 0.419706 0.419706
vt 0.418728 0.319889
vt 0.471731 0.341844
vt 0.432630 0.250000
vt 0.490000 0.250000
vt 0.418728 0.180111
vt 0.471731 0.158156
vt 0.379139 0.120861
vt 0.419706 0.080294
vt 0.319889 0.081272
vt 0.341844 0.028269
vt 0.250000 0.067370
vt 0.250000 0.010000
vt 0.180111 0.081272
vt 0.158156 0.028269
vt 0.120861 0.120861
vt 0.080294 0.080294
vt 0.028269 0.158156
vt 0.010000 0.250000
vt 0.081272 0.319889
vt 0.028269 0.341844
vt 0.120861 0.379139
vt 0.080294 0.419706
vt 0.180111 0.418728
vt 0.158156 0.471731
s 0
usemtl Material.001
f 97/177/105 98/178/105 100/179/105 99/180/105
f 99/180/106 100/179/106 102/181/106 101/182/106
f 101/182/107 102/181/107 104/183/107 103/184/107
f 103/184/108 104/183/108 106/185/108 105/186/108
f 105/186/109 106/185/109 108/187/109 107/188/109
f 107/188/110 108/187/110 110/189/110 109/190/110
f 109/190/111 110/189/111 112/191/111 111/192/111
f 111/192/112 112/191/112 114/193/112 113/194/112
f 113/194/113 114/193/113 116/195/113 115/196/113
f 115/196/114 116/195/114 118/197/114 117/198/114
f 117/198/115 118/197/115 120/199/115 119/200/115
f 119/200/116 120/199/116 122/201/116 121/202/116
f 121/202/117 122/201/117 124/203/117 123/204/117
f 123/204/118 124/203/118 126/205/118 125/206/118
f 102/181/119 100/179/119 129/179/119 131/181/119
f 125/206/120 126/205/120 128/207/120 127/208/120
f 127/208/121 128/207/121 98/209/121 97/210/121
f 97/211/122 99/212/122 101/213/122 103/214/122 105/215/122 107/216/122 109/217/122 111/218/122 113/219/122 115/220/122 117/221/122 119/222/122 121/223/122 123/224/122 125/225/122 127/226/122
f 131/181/106 129/179/106 161/179/106 163/181/106
f 112/191/123 110/189/123 135/189/123 136/191/123
f 122/201/124 120/199/124 140/199/124 141/201/124
f 108/187/125 106/185/125 133/185/125 134/187/125
f 118/197/126 116/195/126 138/195/126 139/197/126
f 128/207/127 126/205/127 143/205/127 144/207/127
f 104/183/128 102/181/128 131/181/128 132/183/128
f 114/193/129 112/191/129 136/191/129 137/193/129
f 100/179/130 98/178/130 130/178/130 129/179/130
f 124/203/131 122/201/131 141/201/131 142/203/131
f 110/189/132 108/187/132 134/187/132 135/189/132
f 120/199/133 118/197/133 139/197/133 140/199/133
f 98/209/134 128/207/134 144/207/134 130/209/134
f 106/185/135 104/183/135 132/183/135 133/185/135
f 116/195/136 114/193/136 137/193/136 138/195/136
f 126/205/137 124/203/137 142/203/137 143/205/137
f 157/227/116 156/228/116 188/228/116 189/227/116
f 139/197/114 138/195/114 170/195/114 171/197/114
f 132/183/107 131/181/107 163/181/107 164/183/107
f 140/199/115 139/197/115 171/197/115 172/199/115
f 133/185/108 132/183/108 164/183/108 165/185/108
f 141/201/116 140/199/116 172/199/116 173/201/116
f 134/187/109 133/185/109 165/185/109 166/187/109
f 142/203/117 141/201/117 173/201/117 174/203/117
f 135/189/110 134/187/110 166/187/110 167/189/110
f 143/205/118 142/203/118 174/203/118 175/205/118
f 136/191/111 135/189/111 167/189/111 168/191/111
f 144/207/120 143/205/120 175/205/120 176/207/120
f 137/193/112 136/191/112 168/191/112 169/193/112
f 129/179/105 130/178/105 162/178/105 161/179/105
f 130/209/121 144/207/121 176/207/121 162/209/121
f 138/195/113 137/193/113 169/193/113 170/195/113
f 146/229/138 145/230/138 161/231/138 162/232/138
f 145/230/138 147/233/138 163/234/138 161/231/138
f 147/233/138 148/235/138 164/236/138 163/234/138
f 148/235/138 149/237/138 165/238/138 164/236/138
f 149/237/138 150/239/138 166/240/138 165/238/138
f 150/239/138 151/241/138 167/242/138 166/240/138
f 151/241/138 152/243/138 168/244/138 167/242/138
f 152/243/138 153/245/138 169/246/138 168/244/138
f 153/245/138 154/247/138 170/248/138 169/246/138
f 154/247/138 155/249/138 171/250/138 170/248/138
f 155/249/138 156/228/138 172/251/138 171/250/138
f 156/228/138 157/227/138 173/252/138 172/251/138
f 157/227/138 158/253/138 174/254/138 173/252/138
f 158/253/138 159/255/138 175/256/138 174/254/138
f 159/255/138 160/257/138 176/258/138 175/256/138
f 160/257/138 146/229/138 162/232/138 176/258/138
f 177/230/138 178/229/138 192/257/138 191/255/138 190/253/138 189/227/138 188/228/138 187/249/138 186/247/138 185/245/138 184/243/138 183/241/138 182/239/138 181/237/138 180/235/138 179/233/138
f 150/239/109 149/237/109 181/237/109 182/239/109
f 158/253/117 157/227/117 189/227/117 190/253/117
f 151/241/110 150/239/110 182/239/110 183/241/110
f 159/255/118 158/253/118 190/253/118 191/255/118
f 152/243/111 151/241/111 183/241/111 184/243/111
f 160/257/120 159/255/120 191/255/120 192/257/120
f 153/245/112 152/243/112 184/243/112 185/245/112
f 145/230/105 146/229/105 178/229/105 177/230/105
f 146/229/121 160/257/121 192/257/121 178/229/121
f 154/247/113 153/245/113 185/245/113 186/247/113
f 147/233/106 145/230/106 177/230/106 179/233/106
f 155/249/114 154/247/114 186/247/114 187/249/114
f 148/235/107 147/233/107 179/233/107 180/235/107
f 156/228/115 155/249/115 187/249/115 188/228/115
f 149/237/108 148/235/108 180/235/108 181/237/108
