# Blender 4.0.1
# www.blender.org
mtllib barrel1(F156).mtl
o Cylinder
v 0.000000 -1.000000 -1.000000
v 0.000000 1.000000 -0.713648
v 0.433884 -1.000000 -0.900969
v 0.309640 1.000000 -0.642975
v 0.781831 -1.000000 -0.623490
v 0.557953 1.000000 -0.444953
v 0.974928 -1.000000 -0.222521
v 0.695756 1.000000 -0.158802
v 0.974928 -1.000000 0.222521
v 0.695756 1.000000 0.158802
v 0.781831 -1.000000 0.623490
v 0.557953 1.000000 0.444953
v 0.433884 -1.000000 0.900969
v 0.309640 1.000000 0.642975
v 0.000000 -1.000000 1.000000
v 0.000000 1.000000 0.713648
v -0.433884 -1.000000 0.900969
v -0.309640 1.000000 0.642975
v -0.781831 -1.000000 0.623490
v -0.557953 1.000000 0.444953
v -0.974928 -1.000000 0.222521
v -0.695756 1.000000 0.158802
v -0.974928 -1.000000 -0.222521
v -0.695756 1.000000 -0.158802
v -0.781831 -1.000000 -0.623490
v -0.557953 1.000000 -0.444953
v -0.433884 -1.000000 -0.900969
v -0.309640 1.000000 -0.642975
v -0.499640 0.548071 1.037512
v -0.514740 0.214105 1.068869
v -0.514740 -0.214105 1.068869
v -0.499640 -0.548071 1.037512
v -0.900319 0.548071 0.717981
v -0.927529 0.214105 0.739680
v -0.927529 -0.214105 0.739680
v -0.900319 -0.548071 0.717981
v -1.122680 0.548071 0.256244
v -1.156610 0.214105 0.263989
v -1.156610 -0.214105 0.263989
v -1.122680 -0.548071 0.256244
v -1.122680 0.548071 -0.256244
v -1.156610 0.214105 -0.263989
v -1.156610 -0.214105 -0.263989
v -1.122680 -0.548071 -0.256244
v -0.900319 0.548071 -0.717981
v -0.927529 0.214105 -0.739680
v -0.927529 -0.214105 -0.739680
v -0.900319 -0.548071 -0.717981
v -0.000000 0.214105 -1.186355
v -0.000000 0.548071 -1.151551
v -0.499640 0.548071 -1.037512
v -0.514740 0.214105 -1.068869
v -0.000000 -0.548071 -1.151551
v -0.000000 -0.214105 -1.186355
v -0.514740 -0.214105 -1.068869
v -0.499640 -0.548071 -1.037512
v -0.000000 -0.208356 -1.131189
v -0.000000 -0.542322 -1.096386
v -0.000000 0.542322 -1.096386
v -0.000000 0.208356 -1.131189
v 0.490805 0.208356 -1.019166
v 0.475704 0.542322 -0.987809
v 0.475704 -0.542322 -0.987809
v 0.490805 -0.208356 -1.019166
v 0.884399 0.208356 -0.705285
v 0.857189 0.542322 -0.683585
v 0.857189 -0.542322 -0.683585
v 0.884399 -0.208356 -0.705285
v 1.102828 0.208356 -0.251713
v 1.068897 0.542322 -0.243969
v 1.068897 -0.542322 -0.243969
v 1.102828 -0.208356 -0.251713
v 1.102828 0.208356 0.251713
v 1.068897 0.542322 0.243969
v 1.068897 -0.542322 0.243969
v 1.102828 -0.208356 0.251713
v 0.884399 0.208356 0.705285
v 0.857189 0.542322 0.683585
v 0.857189 -0.542322 0.683585
v 0.884399 -0.208356 0.705285
v 0.490805 0.208356 1.019166
v 0.475704 0.542322 0.987809
v 0.475704 -0.542322 0.987809
v 0.490805 -0.208356 1.019166
v -0.000000 0.208356 1.131189
v -0.000000 0.542322 1.096386
v -0.000000 -0.542322 1.096386
v -0.000000 -0.208356 1.131189
v -0.490805 0.208356 1.019166
v -0.475704 0.542322 0.987809
v -0.475704 -0.542322 0.987809
v -0.490805 -0.208356 1.019166
v -0.884399 0.208356 0.705285
v -0.857189 0.542322 0.683585
v -0.857189 -0.542322 0.683585
v -0.884399 -0.208356 0.705285
v -1.102828 0.208356 0.251713
v -1.068897 0.542322 0.243969
v -1.068897 -0.542322 0.243969
v -1.102828 -0.208356 0.251713
v -1.102828 0.208356 -0.251713
v -1.068897 0.542322 -0.243969
v -1.068897 -0.542322 -0.243969
v -1.102828 -0.208356 -0.251713
v -0.884399 0.208356 -0.705285
v -0.857189 0.542322 -0.683585
v -0.857189 -0.542322 -0.683585
v -0.884399 -0.208356 -0.705285
v -0.490805 0.208356 -1.019166
v -0.475704 0.542322 -0.987809
v -0.475704 -0.542322 -0.987809
v -0.490805 -0.208356 -1.019166
v -0.000000 -0.548071 1.151551
v -0.000000 -0.214105 1.186355
v -0.000000 0.214105 1.186355
v -0.000000 0.548071 1.151551
v 0.499640 -0.548071 1.037512
v 0.514740 -0.214105 1.068869
v 0.514740 0.214105 1.068869
v 0.499640 0.548071 1.037512
v 0.900319 -0.548071 0.717981
v 0.927529 -0.214105 0.739680
v 0.927529 0.214105 0.739680
v 0.900319 0.548071 0.717981
v 1.122680 -0.548071 0.256244
v 1.156610 -0.214105 0.263989
v 1.156610 0.214105 0.263989
v 1.122680 0.548071 0.256244
v 1.122680 -0.548071 -0.256244
v 1.156610 -0.214105 -0.263989
v 1.156610 0.214105 -0.263989
v 1.122680 0.548071 -0.256244
v 0.900319 -0.548071 -0.717981
v 0.927529 -0.214105 -0.739680
v 0.927529 0.214105 -0.739680
v 0.900319 0.548071 -0.717981
v 0.499640 -0.548071 -1.037512
v 0.514740 -0.214105 -1.068869
v 0.514740 0.214105 -1.068869
v 0.499640 0.548071 -1.037512
v 0.433884 1.000000 -0.900969
v 0.000000 1.000000 -1.000000
v 0.781831 1.000000 -0.623490
v 0.974928 1.000000 -0.222521
v 0.974928 1.000000 0.222521
v 0.781831 1.000000 0.623490
v 0.433884 1.000000 0.900969
v 0.000000 1.000000 1.000000
v -0.433884 1.000000 0.900969
v -0.781831 1.000000 0.623490
v -0.974928 1.000000 0.222521
v -0.974928 1.000000 -0.222521
v -0.781831 1.000000 -0.623490
v -0.433884 1.000000 -0.900969
v 0.309640 0.882072 -0.642975
v -0.000000 0.882072 -0.713648
v 0.557953 0.882072 -0.444953
v 0.695756 0.882072 -0.158802
v 0.695756 0.882072 0.158802
v 0.557953 0.882072 0.444953
v 0.309640 0.882072 0.642975
v -0.000000 0.882072 0.713648
v -0.309640 0.882072 0.642975
v -0.557953 0.882072 0.444953
v -0.695756 0.882072 0.158802
v -0.695756 0.882072 -0.158802
v -0.557953 0.882072 -0.444953
v -0.309640 0.882072 -0.642975
vn 0.6107 0.2011 -0.7659
vn 0.6235 -0.0000 -0.7818
vn 0.9010 -0.0000 -0.4339
vn 1.0000 -0.0000 -0.0000
vn 0.9010 -0.0000 0.4339
vn 0.6235 -0.0000 0.7818
vn 0.2225 -0.0000 0.9749
vn -0.2225 -0.0000 0.9749
vn -0.6235 -0.0000 0.7818
vn -0.9010 -0.0000 0.4339
vn -1.0000 -0.0000 -0.0000
vn -0.9010 -0.0000 -0.4339
vn -0.2225 -0.0000 -0.9749
vn -0.6235 -0.0000 -0.7818
vn 0.2180 0.2011 -0.9550
vn -0.0000 -1.0000 -0.0000
vn 0.2225 -0.0000 -0.9749
vn -0.2180 0.2011 -0.9550
vn -0.2214 -0.1011 -0.9699
vn -0.6107 -0.2011 -0.7659
vn -0.6107 0.2011 -0.7659
vn -0.8826 -0.2011 -0.4250
vn -0.8826 0.2011 -0.4250
vn -0.9796 -0.2011 -0.0000
vn -0.9796 0.2011 -0.0000
vn -0.8826 -0.2011 0.4250
vn -0.8826 0.2011 0.4250
vn -0.6107 -0.2011 0.7659
vn -0.6107 0.2011 0.7659
vn -0.2180 -0.2011 0.9550
vn -0.2180 0.2011 0.9550
vn 0.2180 -0.2011 0.9550
vn 0.2180 0.2011 0.9550
vn 0.6107 -0.2011 0.7659
vn 0.6107 0.2011 0.7659
vn 0.8826 -0.2011 0.4250
vn 0.8826 0.2011 0.4250
vn 0.9796 -0.2011 -0.0000
vn 0.9796 0.2011 -0.0000
vn 0.8826 -0.2011 -0.4250
vn 0.8826 0.2011 -0.4250
vn 0.6107 -0.2011 -0.7659
vn -0.2180 -0.2011 -0.9550
vn -0.0237 0.9943 -0.1036
vn -0.0958 0.9943 0.0461
vn 0.0663 -0.9943 -0.0831
vn -0.0663 -0.9943 -0.0831
vn -0.0663 0.9943 0.0831
vn -0.1063 -0.9943 -0.0000
vn 0.0663 0.9943 0.0831
vn 0.1063 0.9943 -0.0000
vn -0.0663 -0.9943 0.0831
vn 0.0237 -0.9943 0.1036
vn 0.0663 0.9943 -0.0831
vn 0.1063 -0.9943 -0.0000
vn -0.1063 0.9943 -0.0000
vn 0.0958 -0.9943 -0.0461
vn -0.0237 -0.9943 -0.1036
vn -0.0958 -0.9943 -0.0461
vn 0.0237 0.9943 0.1036
vn 0.0958 0.9943 0.0461
vn -0.0958 -0.9943 0.0461
vn -0.0237 -0.9943 0.1036
vn 0.0958 0.9943 -0.0461
vn 0.0958 -0.9943 0.0461
vn 0.0237 0.9943 -0.1036
vn -0.0958 0.9943 -0.0461
vn 0.0237 -0.9943 -0.1036
vn 0.2180 -0.2011 -0.9550
vn -0.2214 0.1011 -0.9699
vn -0.6203 -0.1011 -0.7778
vn -0.6203 0.1011 -0.7778
vn -0.8964 -0.1011 -0.4317
vn -0.8964 0.1011 -0.4317
vn -0.9949 -0.1011 -0.0000
vn -0.9949 0.1011 -0.0000
vn -0.8964 -0.1011 0.4317
vn -0.8964 0.1011 0.4317
vn -0.6203 -0.1011 0.7778
vn -0.6203 0.1011 0.7778
vn -0.2214 -0.1011 0.9699
vn -0.2214 0.1011 0.9699
vn 0.2214 -0.1011 0.9699
vn 0.2214 0.1011 0.9699
vn 0.6203 -0.1011 0.7778
vn 0.6203 0.1011 0.7778
vn 0.8964 -0.1011 0.4317
vn 0.8964 0.1011 0.4317
vn 0.9949 -0.1011 -0.0000
vn 0.9949 0.1011 -0.0000
vn 0.8964 -0.1011 -0.4317
vn 0.8964 0.1011 -0.4317
vn 0.6203 -0.1011 -0.7778
vn 0.6203 0.1011 -0.7778
vn 0.2214 -0.1011 -0.9699
vn 0.2214 0.1011 -0.9699
vn -0.0663 0.9943 -0.0831
vn 0.0663 -0.9943 0.0831
vn -0.0237 0.9943 0.1036
vn -0.0000 1.0000 -0.0000
vt 0.928571 0.877548
vt 0.928571 1.000000
vt 0.857143 1.000000
vt 0.857143 0.877548
vt 0.928571 0.703952
vt 0.928571 0.796048
vt 0.857143 0.796048
vt 0.857143 0.703952
vt 0.857143 0.703952
vt 0.785714 0.796048
vt 0.785714 0.703952
vt 0.785714 0.703952
vt 0.785714 0.796048
vt 0.714286 0.796048
vt 0.714286 0.703952
vt 0.714286 0.703952
vt 0.714286 0.796048
vt 0.642857 0.796048
vt 0.642857 0.703952
vt 0.642857 0.796048
vt 0.571428 0.796048
vt 0.571428 0.703952
vt 0.500000 0.796048
vt 0.500000 0.703952
vt 0.428571 0.796048
vt 0.428571 0.703952
vt 0.357143 0.796048
vt 0.357143 0.703952
vt 0.357143 0.703952
vt 0.357143 0.796048
vt 0.285714 0.796048
vt 0.285714 0.703952
vt 0.285714 0.703952
vt 0.285714 0.796048
vt 0.214286 0.796048
vt 0.214286 0.703952
vt 0.214286 0.703952
vt 0.214286 0.796048
vt 0.142857 0.796048
vt 0.142857 0.703952
vt 0.250000 0.078724
vt 0.324314 0.095686
vt 0.142857 0.796048
vt 0.071428 0.796048
vt 0.071428 0.703952
vt 1.000000 0.877548
vt 1.000000 1.000000
vt 0.928571 0.877548
vt 0.750000 0.490000
vt 0.854132 0.466233
vt 0.937640 0.399638
vt 0.983983 0.303405
vt 0.983983 0.196595
vt 0.937640 0.100362
vt 0.854132 0.033767
vt 0.750000 0.010000
vt 0.645868 0.033767
vt 0.562360 0.100362
vt 0.516017 0.196595
vt 0.516017 0.303405
vt 0.562360 0.399638
vt 0.645868 0.466233
vt 1.000000 0.703952
vt 1.000000 0.796048
vt 0.071428 0.877548
vt 0.071428 1.000000
vt -0.000000 1.000000
vt -0.000000 0.877548
vt -0.000000 0.703952
vt -0.000000 0.622452
vt 0.071428 0.622452
vt 0.142857 0.500000
vt 0.142857 0.622452
vt 0.071428 0.622451
vt 0.071428 0.500000
vt 0.142857 0.877548
vt 0.142857 1.000000
vt 0.214286 0.500000
vt 0.214286 0.622451
vt 0.142857 0.622451
vt 0.214286 0.877548
vt 0.214286 1.000000
vt 0.285714 0.500000
vt 0.285714 0.622452
vt 0.285714 0.877548
vt 0.285714 1.000000
vt 0.357143 0.500000
vt 0.357143 0.622451
vt 0.285714 0.622451
vt 0.357143 0.877548
vt 0.357143 1.000000
vt 0.428571 0.500000
vt 0.428571 0.622452
vt 0.357143 0.622452
vt 0.428571 0.877548
vt 0.428571 1.000000
vt 0.500000 0.500000
vt 0.500000 0.622452
vt 0.500000 0.877548
vt 0.500000 1.000000
vt 0.571428 0.500000
vt 0.571428 0.622452
vt 0.571428 0.877548
vt 0.571428 1.000000
vt 0.642857 0.500000
vt 0.642857 0.622452
vt 0.571428 0.622451
vt 0.642857 0.877548
vt 0.642857 1.000000
vt 0.714286 0.500000
vt 0.714286 0.622451
vt 0.642857 0.622451
vt 0.714286 0.877548
vt 0.714286 1.000000
vt 0.785714 0.500000
vt 0.785714 0.622452
vt 0.785714 0.877548
vt 0.785714 1.000000
vt 0.857143 0.500000
vt 0.857143 0.622451
vt 0.785714 0.622451
vt 0.857143 0.877548
vt 0.928571 0.500000
vt 0.928571 0.622452
vt 0.857143 0.622452
vt -0.000000 0.500000
vt -0.000000 0.796048
vt 1.000000 0.500000
vt 1.000000 0.622452
vt 0.250000 0.421276
vt 0.324314 0.404314
vt 0.354132 0.466233
vt 0.250000 0.490000
vt 0.383909 0.356789
vt 0.437640 0.399638
vt 0.416981 0.288112
vt 0.483983 0.303405
vt 0.416981 0.211888
vt 0.483983 0.196595
vt 0.383909 0.143211
vt 0.437640 0.100362
vt 0.354132 0.033767
vt 0.250000 0.010000
vt 0.175686 0.095686
vt 0.145868 0.033767
vt 0.116091 0.143211
vt 0.062360 0.100362
vt 0.083019 0.211888
vt 0.016017 0.196595
vt 0.083019 0.288112
vt 0.016017 0.303405
vt 0.116091 0.356789
vt 0.062360 0.399638
vt 0.175686 0.404314
vt 0.145868 0.466233
s 0
usemtl Material.001
f 62/1/1 141/2/1 143/3/1 66/4/1
f 64/5/2 61/6/2 65/7/2 68/8/2
f 68/9/3 65/7/3 69/10/3 72/11/3
f 72/12/4 69/13/4 73/14/4 76/15/4
f 76/16/5 73/17/5 77/18/5 80/19/5
f 80/19/6 77/20/6 81/21/6 84/22/6
f 84/22/7 81/21/7 85/23/7 88/24/7
f 88/24/8 85/23/8 89/25/8 92/26/8
f 92/26/9 89/25/9 93/27/9 96/28/9
f 96/29/10 93/30/10 97/31/10 100/32/10
f 100/33/11 97/34/11 101/35/11 104/36/11
f 104/37/12 101/38/12 105/39/12 108/40/12
f 16/41/13 14/42/13 161/42/13 162/41/13
f 108/40/14 105/43/14 109/44/14 112/45/14
f 59/46/15 142/47/15 141/2/15 62/48/15
f 1/49/16 3/50/16 5/51/16 7/52/16 9/53/16 11/54/16 13/55/16 15/56/16 17/57/16 19/58/16 21/59/16 23/60/16 25/61/16 27/62/16
f 57/63/17 60/64/17 61/6/17 64/5/17
f 110/65/18 154/66/18 142/67/18 59/68/18
f 25/72/20 107/73/20 111/74/20 27/75/20
f 106/76/21 153/77/21 154/66/21 110/65/21
f 23/78/22 103/79/22 107/80/22 25/72/22
f 102/81/23 152/82/23 153/77/23 106/76/23
f 21/83/24 99/84/24 103/79/24 23/78/24
f 98/85/25 151/86/25 152/82/25 102/81/25
f 19/87/26 95/88/26 99/89/26 21/83/26
f 94/90/27 150/91/27 151/86/27 98/85/27
f 17/92/28 91/93/28 95/94/28 19/87/28
f 90/95/29 149/96/29 150/91/29 94/90/29
f 15/97/30 87/98/30 91/93/30 17/92/30
f 86/99/31 148/100/31 149/96/31 90/95/31
f 13/101/32 83/102/32 87/98/32 15/97/32
f 82/103/33 147/104/33 148/100/33 86/99/33
f 11/105/34 79/106/34 83/107/34 13/101/34
f 78/108/35 146/109/35 147/104/35 82/103/35
f 9/110/36 75/111/36 79/112/36 11/105/36
f 74/113/37 145/114/37 146/109/37 78/108/37
f 7/115/38 71/116/38 75/111/38 9/110/38
f 70/117/39 144/118/39 145/114/39 74/113/39
f 5/119/40 67/120/40 71/121/40 7/115/40
f 66/122/41 143/3/41 144/118/41 70/117/41
f 3/123/42 63/124/42 67/125/42 5/119/42
f 27/75/43 111/71/43 58/70/43 1/126/43
f 112/45/13 109/44/13 60/127/13 57/69/13
f 83/107/47 79/106/47 121/106/47 117/107/47
f 67/125/52 63/124/52 137/124/52 133/125/52
f 103/79/55 99/84/55 40/84/55 44/79/55
f 87/98/58 83/102/58 117/102/58 113/98/58
f 71/121/62 67/120/62 133/120/62 129/121/62
f 107/80/65 103/79/65 44/79/65 48/80/65
f 91/93/68 87/98/68 113/98/68 32/93/68
f 1/128/69 58/129/69 63/124/69 3/123/69
f 99/89/57 95/88/57 36/88/57 40/89/57
f 63/124/63 58/129/63 53/129/63 137/124/63
f 58/70/53 111/71/53 56/71/53 53/70/53
f 79/112/59 75/111/59 125/111/59 121/112/59
f 95/94/46 91/93/46 32/93/46 36/94/46
f 111/74/98 107/73/98 48/73/98 56/74/98
f 75/111/49 71/116/49 129/116/49 125/111/49
f 2/130/100 4/131/100 141/132/100 142/133/100
f 4/131/100 6/134/100 143/135/100 141/132/100
f 6/134/100 8/136/100 144/137/100 143/135/100
f 8/136/100 10/138/100 145/139/100 144/137/100
f 10/138/100 12/140/100 146/141/100 145/139/100
f 12/140/100 14/42/100 147/142/100 146/141/100
f 14/42/100 16/41/100 148/143/100 147/142/100
f 16/41/100 18/144/100 149/145/100 148/143/100
f 18/144/100 20/146/100 150/147/100 149/145/100
f 20/146/100 22/148/100 151/149/100 150/147/100
f 22/148/100 24/150/100 152/151/100 151/149/100
f 24/150/100 26/152/100 153/153/100 152/151/100
f 26/152/100 28/154/100 154/155/100 153/153/100
f 28/154/100 2/130/100 142/133/100 154/155/100
f 155/131/100 156/130/100 168/154/100 167/152/100 166/150/100 165/148/100 164/146/100 163/144/100 162/41/100 161/42/100 160/140/100 159/138/100 158/136/100 157/134/100
f 18/144/17 16/41/17 162/41/17 163/144/17
f 4/131/8 2/130/8 156/130/8 155/131/8
f 20/146/2 18/144/2 163/144/2 164/146/2
f 6/134/9 4/131/9 155/131/9 157/134/9
f 22/148/3 20/146/3 164/146/3 165/148/3
f 8/136/10 6/134/10 157/134/10 158/136/10
f 24/150/4 22/148/4 165/148/4 166/150/4
f 10/138/11 8/136/11 158/136/11 159/138/11
f 26/152/5 24/150/5 166/150/5 167/152/5
f 12/140/12 10/138/12 159/138/12 160/140/12
f 28/154/6 26/152/6 167/152/6 168/154/6
f 14/42/14 12/140/14 160/140/14 161/42/14
f 2/130/7 28/154/7 168/154/7 156/130/7
usemtl Material.002
f 55/45/19 54/69/19 53/70/19 56/71/19
f 112/45/44 57/69/44 54/69/44 55/45/44
f 96/29/45 100/32/45 39/32/45 35/29/45
f 65/7/46 61/6/46 139/6/46 135/7/46
f 62/1/48 66/4/48 136/4/48 140/1/48
f 101/35/49 97/34/49 38/34/49 42/35/49
f 80/19/50 84/22/50 118/22/50 122/19/50
f 98/85/51 102/81/51 41/81/51 37/85/51
f 85/23/53 81/21/53 119/21/53 115/23/53
f 64/5/54 68/8/54 134/8/54 138/5/54
f 82/103/44 86/99/44 116/99/44 120/103/44
f 100/33/56 104/36/56 43/36/56 39/33/56
f 69/10/57 65/7/57 135/7/57 131/10/57
f 66/122/45 70/117/45 132/117/45 136/122/45
f 105/39/59 101/38/59 42/38/59 46/39/59
f 84/22/60 88/24/60 114/24/60 118/22/60
f 102/81/61 106/76/61 45/76/61 41/81/61
f 89/25/63 85/23/63 115/23/63 30/25/63
f 68/9/64 72/11/64 130/11/64 134/9/64
f 86/99/66 90/95/66 29/95/66 116/99/66
f 104/37/67 108/40/67 47/40/67 43/37/67
f 73/14/55 69/13/55 131/13/55 127/14/55
f 51/65/70 50/68/70 49/127/70 52/44/70
f 47/40/71 55/45/71 56/74/71 48/73/71
f 45/76/72 51/65/72 52/44/72 46/43/72
f 43/37/73 47/40/73 48/80/73 44/79/73
f 41/81/74 45/76/74 46/39/74 42/38/74
f 39/33/75 43/36/75 44/79/75 40/84/75
f 37/85/76 41/81/76 42/35/76 38/34/76
f 35/29/77 39/32/77 40/89/77 36/88/77
f 33/90/78 37/85/78 38/31/78 34/30/78
f 31/26/79 35/28/79 36/94/79 32/93/79
f 29/95/80 33/90/80 34/27/80 30/25/80
f 114/24/81 31/26/81 32/93/81 113/98/81
f 116/99/82 29/95/82 30/25/82 115/23/82
f 118/22/83 114/24/83 113/98/83 117/102/83
f 120/103/84 116/99/84 115/23/84 119/21/84
f 122/19/85 118/22/85 117/107/85 121/106/85
f 124/108/86 120/103/86 119/21/86 123/20/86
f 126/16/87 122/19/87 121/112/87 125/111/87
f 128/113/88 124/108/88 123/18/88 127/17/88
f 130/12/89 126/15/89 125/111/89 129/116/89
f 132/117/90 128/113/90 127/14/90 131/13/90
f 134/9/91 130/11/91 129/121/91 133/120/91
f 136/122/92 132/117/92 131/10/92 135/7/92
f 138/5/93 134/8/93 133/125/93 137/124/93
f 140/1/94 136/4/94 135/7/94 139/6/94
f 54/63/95 138/5/95 137/124/95 53/129/95
f 50/46/96 140/48/96 139/6/96 49/64/96
f 57/63/66 64/5/66 138/5/66 54/63/66
f 78/108/97 82/103/97 120/103/97 124/108/97
f 81/21/98 77/20/98 123/20/98 119/21/98
f 59/46/99 62/48/99 140/48/99 50/46/99
f 94/90/64 98/85/64 37/85/64 33/90/64
f 61/6/68 60/64/68 49/64/68 139/6/68
f 76/16/61 80/19/61 122/19/61 126/16/61
f 97/31/62 93/30/62 34/30/62 38/31/62
f 110/65/60 59/68/60 50/68/60 51/65/60
f 92/26/48 96/28/48 35/28/48 31/26/48
f 60/127/58 109/44/58 52/44/58 49/127/58
f 74/113/67 78/108/67 124/108/67 128/113/67
f 77/18/65 73/17/65 127/17/65 123/18/65
f 108/40/97 112/45/97 55/45/97 47/40/97
f 90/95/54 94/90/54 33/90/54 29/95/54
f 72/12/51 76/15/51 126/15/51 130/12/51
f 93/27/52 89/25/52 30/25/52 34/27/52
f 106/76/50 110/65/50 51/65/50 45/76/50
f 88/24/99 92/26/99 31/26/99 114/24/99
f 109/44/47 105/43/47 46/43/47 52/44/47
f 70/117/56 74/113/56 128/113/56 132/117/56
