# Blender 4.4.3
# www.blender.org
mtllib spike4A(F45).mtl
o Cone.001
v -0.000000 -1.244526 -0.181683
v 0.069527 -1.125268 -0.167853
v 0.128469 -1.125268 -0.128469
v 0.167853 -1.361271 -0.069527
v 0.181683 -1.224293 0.000000
v 0.167853 -1.347390 0.069527
v 0.128469 -1.219822 0.128469
v 0.069527 -1.219822 0.167853
v -0.000000 -1.178195 0.181683
v -0.069527 -1.343501 0.167853
v -0.128469 -1.252543 0.128469
v -0.167853 -1.252543 0.069527
v -0.181683 -1.322815 0.000000
v -0.167853 -1.079390 -0.069527
v -0.128469 -1.129461 -0.128469
v -0.069527 -1.244526 -0.167853
v -0.090217 1.166389 0.090663
v -0.054621 -1.122393 -0.227120
v 0.107533 -0.923280 -0.242009
v 0.112161 -0.899883 -0.182424
v 0.284836 -1.065406 -0.074074
v 0.243645 -0.958475 0.023490
v 0.205995 -1.029452 0.085326
v 0.157662 -0.994317 0.207395
v 0.085326 -1.335557 0.205995
v -0.013004 -1.061944 0.282669
v -0.098330 -1.061944 0.265697
v -0.157662 -1.153692 0.157662
v -0.205995 -1.153692 0.085326
v -0.300346 -1.073208 0.035380
v -0.240135 -0.951392 -0.049946
v -0.157662 -0.971405 -0.157662
v -0.139947 -0.967204 -0.210148
v -0.128630 1.171120 0.060373
v -0.278566 -0.893877 -0.075203
v -0.196075 -0.966675 -0.187952
v -0.131807 1.168401 0.118453
v -0.199252 -1.151680 0.185451
v -0.247585 -1.151680 0.113115
v -0.084107 1.173383 0.050364
v 0.074488 -0.924776 -0.299290
v 0.264820 -0.783036 -0.222723
v -0.043536 1.173342 0.102752
v 0.320714 -1.058453 -0.090305
v 0.276584 -0.962446 0.073325
vn -0.2472 0.1295 -0.9603
vn 0.4841 -0.0522 0.8734
vn 0.6313 0.1621 -0.7584
vn -0.6075 -0.1111 0.7865
vn 0.7911 0.1053 0.6025
vn 0.9343 0.1252 0.3339
vn -0.1751 0.0331 0.9840
vn 0.7458 0.0828 0.6610
vn -0.1945 0.0775 0.9778
vn -0.8895 0.0390 0.4554
vn -0.5543 0.0296 -0.8318
vn -0.4540 0.0206 0.8908
vn -0.8715 0.0937 -0.4813
vn 0.6230 0.0708 -0.7790
vn -0.0872 -0.9719 -0.2189
vn -0.9470 0.0664 -0.3143
vn 0.0546 0.1382 -0.9889
vn 0.4056 -0.2980 -0.8641
vn 0.8457 -0.1922 -0.4978
vn 0.3828 -0.1757 -0.9070
vn 0.8023 -0.2735 0.5306
vn 0.9767 -0.1758 0.1231
vn 0.8005 -0.1978 0.5657
vn 0.9324 -0.3609 -0.0199
vn -0.8802 -0.4743 0.0194
vn 0.2629 -0.4091 0.8738
vn -0.7403 -0.3118 0.5956
vn -0.7694 -0.3790 0.5141
vn -0.6959 -0.4007 0.5959
vn -0.6140 -0.1993 -0.7637
vn -0.8250 -0.3086 -0.4735
vn -0.8736 -0.2667 -0.4071
vn -0.4918 -0.3308 -0.8054
vn -0.7723 0.0973 -0.6278
vn -0.5832 -0.8065 -0.0969
vn -0.5915 -0.0108 0.8062
vn -0.8308 0.0402 0.5551
vn -0.0334 -0.9992 0.0223
vn 0.5558 0.0078 0.8313
vn 0.2506 0.1775 -0.9517
vn 0.6683 -0.7416 -0.0575
vn -0.9583 -0.1235 0.2576
vn 0.9735 0.1434 0.1784
vn -0.2328 -0.8033 0.5481
vn -0.0617 0.0696 -0.9957
vt 0.250000 0.490000
vt 0.250000 0.250000
vt 0.341844 0.471731
vt 0.419706 0.419706
vt 0.471731 0.341844
vt 0.490000 0.250000
vt 0.471731 0.158156
vt 0.419706 0.080294
vt 0.341844 0.028269
vt 0.250000 0.010000
vt 0.158156 0.028269
vt 0.080294 0.080294
vt 0.028269 0.158156
vt 0.010000 0.250000
vt 0.028269 0.341844
vt 0.080294 0.419706
vt 0.750000 0.445562
vt 0.824838 0.430676
vt 0.888283 0.388283
vt 0.930676 0.324838
vt 0.945562 0.250000
vt 0.930676 0.175162
vt 0.888283 0.111717
vt 0.824838 0.069324
vt 0.750000 0.054438
vt 0.675162 0.069324
vt 0.611717 0.111717
vt 0.569324 0.175162
vt 0.554438 0.250000
vt 0.569324 0.324838
vt 0.611717 0.388283
vt 0.675162 0.430676
vt 0.158156 0.471731
vt 0.750000 0.490000
vt 0.841844 0.471731
vt 0.919706 0.419706
vt 0.971731 0.341844
vt 0.990000 0.250000
vt 0.971731 0.158156
vt 0.919706 0.080294
vt 0.841844 0.028269
vt 0.750000 0.010000
vt 0.658156 0.028269
vt 0.580294 0.080294
vt 0.528269 0.158156
vt 0.510000 0.250000
vt 0.528269 0.341844
vt 0.580294 0.419706
vt 0.658156 0.471731
s 0
usemtl Material.005
f 18/1/1 17/2/1 19/3/1
f 17/2/2 20/4/2 42/4/2 40/2/2
f 20/4/3 17/2/3 21/5/3
f 17/2/4 22/6/4 45/6/4 43/2/4
f 22/6/5 17/2/5 23/7/5
f 23/7/6 17/2/6 24/8/6
f 24/8/7 17/2/7 25/9/7
f 25/9/8 17/2/8 26/10/8
f 26/10/9 17/2/9 27/11/9
f 27/11/10 17/2/10 28/12/10
f 17/2/11 29/13/11 39/13/11 37/2/11
f 29/13/12 17/2/12 30/14/12
f 30/14/13 17/2/13 31/15/13
f 17/2/14 32/16/14 36/16/14 34/2/14
f 1/17/15 2/18/15 3/19/15 4/20/15 5/21/15 6/22/15 7/23/15 8/24/15 9/25/15 10/26/15 11/27/15 12/28/15 13/29/15 14/30/15 15/31/15 16/32/15
f 32/16/16 17/2/16 33/33/16
f 33/33/17 17/2/17 18/1/17
f 2/18/18 1/17/18 18/34/18 19/35/18
f 3/19/19 2/18/19 19/35/19 20/36/19
f 4/20/20 3/19/20 20/36/20 21/37/20
f 5/21/21 4/20/21 21/37/21 22/38/21
f 6/22/22 5/21/22 22/38/22 23/39/22
f 7/23/23 6/22/23 23/39/23 24/40/23
f 8/24/24 7/23/24 24/40/24 25/41/24
f 9/25/25 8/24/25 25/41/25 26/42/25
f 10/26/26 9/25/26 26/42/26 27/43/26
f 11/27/27 10/26/27 27/43/27 28/44/27
f 12/28/28 11/27/28 28/44/28 29/45/28
f 13/29/29 12/28/29 29/45/29 30/46/29
f 14/30/30 13/29/30 30/46/30 31/47/30
f 15/31/31 14/30/31 31/47/31 32/48/31
f 16/32/32 15/31/32 32/48/32 33/49/32
f 1/17/33 16/32/33 33/49/33 18/34/33
f 35/15/34 34/2/34 36/16/34
f 32/48/35 31/47/35 35/47/35 36/48/35
f 31/15/36 17/2/36 34/2/36 35/15/36
f 38/12/37 37/2/37 39/13/37
f 29/45/38 28/44/38 38/44/38 39/45/38
f 28/12/39 17/2/39 37/2/39 38/12/39
f 41/3/40 40/2/40 42/4/40
f 20/36/41 19/35/41 41/35/41 42/36/41
f 19/3/42 17/2/42 40/2/42 41/3/42
f 44/5/43 43/2/43 45/6/43
f 22/38/44 21/37/44 44/37/44 45/38/44
f 21/5/45 17/2/45 43/2/45 44/5/45
