# Blender 4.0.1
# www.blender.org
mtllib tower1(F122).mtl
o Cylinder
v 0.000000 0.072963 -1.321797
v 0.000000 0.512631 -1.500667
v 0.505830 0.072963 -1.221182
v 0.574281 0.512631 -1.386436
v 0.934652 0.072963 -0.934652
v 1.061132 0.512631 -1.061132
v 1.221182 0.072963 -0.505830
v 1.386436 0.512631 -0.574281
v 1.321797 0.072963 0.000000
v 1.500667 0.512631 0.000000
v 1.221182 0.072963 0.505830
v 1.386436 0.512631 0.574281
v 0.934652 0.072963 0.934652
v 1.061132 0.512631 1.061132
v 0.505830 0.072963 1.221182
v 0.574281 0.512631 1.386436
v 0.000000 0.072963 1.321797
v 0.000000 0.512631 1.500667
v -0.505830 0.072963 1.221182
v -0.574281 0.512631 1.386436
v -0.934652 0.072963 0.934652
v -1.061132 0.512631 1.061132
v -1.221182 0.072963 0.505830
v -1.386436 0.512631 0.574281
v -1.321797 0.072963 0.000000
v -1.500667 0.512631 0.000000
v -1.221182 0.072963 -0.505830
v -1.386436 0.512631 -0.574281
v -0.934652 0.072963 -0.934652
v -1.061132 0.512631 -1.061132
v -0.505830 0.072963 -1.221182
v -0.574281 0.512631 -1.386436
v 0.434469 2.942456 -1.048902
v 0.000000 2.942456 -1.135323
v 0.802795 2.942456 -0.802795
v 1.048902 2.942456 -0.434469
v 1.135323 2.942456 -0.000000
v 1.048902 2.942456 0.434469
v 0.802795 2.942456 0.802795
v 0.434469 2.942456 1.048902
v 0.000000 2.942456 1.135323
v -0.434469 2.942456 1.048902
v -0.802795 2.942456 0.802795
v -1.048902 2.942456 0.434469
v -1.135323 2.942456 -0.000000
v -1.048902 2.942456 -0.434469
v -0.802795 2.942456 -0.802795
v -0.434469 2.942456 -1.048902
v 0.432450 2.375722 -1.044026
v 0.000000 2.375722 -1.130045
v 0.799063 2.375722 -0.799063
v 1.044026 2.375722 -0.432450
v 1.130045 2.375722 0.000000
v 1.044026 2.375722 0.432450
v 0.799063 2.375722 0.799063
v 0.432450 2.375722 1.044026
v 0.000000 2.375722 1.130045
v -0.432450 2.375722 1.044026
v -0.799063 2.375722 0.799063
v -1.044026 2.375722 0.432450
v -1.130045 2.375722 0.000000
v -1.044026 2.375722 -0.432450
v -0.799063 2.375722 -0.799063
v -0.432450 2.375722 -1.044026
v 0.505556 2.832276 -1.220520
v 0.000000 2.832276 -1.321082
v 0.934146 2.832276 -0.934146
v 1.220520 2.832276 -0.505556
v 1.321082 2.832276 -0.000000
v 1.220520 2.832276 0.505556
v 0.934146 2.832276 0.934146
v 0.505556 2.832276 1.220520
v 0.000000 2.832276 1.321082
v -0.505556 2.832276 1.220520
v -0.934146 2.832276 0.934146
v -1.220520 2.832276 0.505556
v -1.321082 2.832276 -0.000000
v -1.220520 2.832276 -0.505556
v -0.934146 2.832276 -0.934146
v -0.505556 2.832276 -1.220520
v 0.326498 3.749749 -0.788236
v 0.000000 3.749749 -0.853181
v 0.603290 3.749749 -0.603290
v 0.788236 3.749749 -0.326498
v 0.853181 3.749749 -0.000000
v 0.788236 3.749749 0.326498
v 0.603290 3.749749 0.603290
v 0.326498 3.749749 0.788236
v 0.000000 3.749749 0.853181
v -0.326498 3.749749 0.788236
v -0.603290 3.749749 0.603290
v -0.788236 3.749749 0.326498
v -0.853181 3.749749 -0.000000
v -0.788236 3.749749 -0.326498
v -0.603290 3.749749 -0.603290
v -0.326498 3.749749 -0.788236
v 0.434469 3.749749 -1.048902
v 0.000000 3.749749 -1.135323
v 0.802795 3.749749 -0.802795
v 1.048902 3.749749 -0.434469
v 1.135323 3.749749 -0.000000
v 1.048902 3.749749 0.434469
v 0.802795 3.749749 0.802795
v 0.434469 3.749749 1.048902
v 0.000000 3.749749 1.135323
v -0.434469 3.749749 1.048902
v -0.802795 3.749749 0.802795
v -1.048902 3.749749 0.434469
v -1.135323 3.749749 -0.000000
v -1.048902 3.749749 -0.434469
v -0.802795 3.749749 -0.802795
v -0.434469 3.749749 -1.048902
v 0.434469 3.354940 -1.048902
v 0.000000 3.354940 -1.135323
v 1.048902 3.354940 -0.434469
v 0.802795 3.354940 -0.802795
v 1.048902 3.354940 0.434469
v 1.135323 3.354940 -0.000000
v 0.434469 3.354940 1.048902
v 0.802795 3.354940 0.802795
v -0.434469 3.354940 1.048902
v 0.000000 3.354940 1.135323
v -1.048902 3.354940 0.434469
v -0.802795 3.354940 0.802795
v -1.048902 3.354940 -0.434469
v -1.135323 3.354940 -0.000000
v -0.434469 3.354940 -1.048902
v -0.802795 3.354940 -0.802795
v 0.326498 3.354940 -0.788236
v 0.000000 3.354940 -0.853181
v 0.603290 3.354940 -0.603290
v 0.788236 3.354940 -0.326498
v 0.853181 3.354940 -0.000000
v 0.788236 3.354940 0.326498
v 0.603290 3.354940 0.603290
v 0.326498 3.354940 0.788236
v 0.000000 3.354940 0.853181
v -0.326498 3.354940 0.788236
v -0.603290 3.354940 0.603290
v -0.788236 3.354940 0.326498
v -0.853181 3.354940 -0.000000
v -0.788236 3.354940 -0.326498
v -0.603290 3.354940 -0.603290
v -0.326498 3.354940 -0.788236
vn 0.1812 -0.3706 -0.9109
vn 0.5160 -0.3706 -0.7723
vn 0.7723 -0.3706 -0.5160
vn 0.9109 -0.3706 -0.1812
vn 0.9109 -0.3706 0.1812
vn 0.7723 -0.3706 0.5160
vn 0.5160 -0.3706 0.7723
vn 0.1812 -0.3706 0.9109
vn -0.1812 -0.3706 0.9109
vn -0.5160 -0.3706 0.7723
vn -0.7723 -0.3706 0.5160
vn -0.9109 -0.3706 0.1812
vn -0.9109 -0.3706 -0.1812
vn -0.7723 -0.3706 -0.5160
vn 0.5453 0.1915 0.8161
vn -0.5160 -0.3706 -0.7723
vn -0.1812 -0.3706 -0.9109
vn -0.0000 -1.0000 -0.0000
vn -0.9808 -0.0000 0.1951
vn -0.5075 0.8557 -0.1010
vn -0.5075 0.8557 0.1010
vn -0.8161 0.1915 0.5453
vn 0.5453 0.1915 -0.8161
vn -0.4303 0.8557 0.2875
vn -0.5453 0.1915 -0.8161
vn 0.8161 0.1915 0.5453
vn -0.2875 0.8557 0.4303
vn -0.1010 0.8557 0.5075
vn -0.5453 0.1915 0.8161
vn 0.1010 0.8557 0.5075
vn 0.1915 0.1915 -0.9626
vn -0.8161 0.1915 -0.5453
vn 0.9626 0.1915 0.1915
vn 0.2875 0.8557 0.4303
vn -0.5140 -0.3797 -0.7692
vn 0.7692 -0.3797 -0.5140
vn 0.1805 -0.3797 0.9073
vn 0.1805 -0.3797 -0.9073
vn -0.9073 -0.3797 -0.1805
vn 0.7692 -0.3797 0.5140
vn -0.7692 -0.3797 0.5140
vn -0.1805 -0.3797 -0.9073
vn 0.9073 -0.3797 -0.1805
vn -0.1805 -0.3797 0.9073
vn -0.7692 -0.3797 -0.5140
vn 0.5140 -0.3797 -0.7692
vn 0.5140 -0.3797 0.7692
vn -0.9073 -0.3797 0.1805
vn 0.9073 -0.3797 0.1805
vn -0.5140 -0.3797 0.7692
vn -0.1915 0.1915 -0.9626
vn -0.4303 0.8557 -0.2875
vn 0.1010 0.8557 -0.5075
vn 0.8161 0.1915 -0.5453
vn -0.9626 0.1915 0.1915
vn -0.2875 0.8557 -0.4303
vn 0.2875 0.8557 -0.4303
vn -0.1010 0.8557 -0.5075
vn 0.1915 0.1915 0.9626
vn 0.4303 0.8557 -0.2875
vn 0.5075 0.8557 -0.1010
vn 0.9626 0.1915 -0.1915
vn -0.9626 0.1915 -0.1915
vn 0.5075 0.8557 0.1010
vn -0.1915 0.1915 0.9626
vn 0.4303 0.8557 0.2875
vn 0.8315 -0.0000 0.5556
vn -0.8315 -0.0000 -0.5556
vn 0.1951 -0.0000 0.9808
vn -0.1951 -0.0000 -0.9808
vn 0.5556 -0.0000 -0.8315
vn -0.5556 -0.0000 0.8315
vn 0.9808 -0.0000 -0.1951
vn 1.0000 -0.0000 -0.0000
vn -0.0000 1.0000 -0.0000
vn -0.3827 -0.0000 0.9239
vn -0.0000 -0.0000 -1.0000
vn 0.3827 -0.0000 0.9239
vn -0.7071 -0.0000 -0.7071
vn 0.7071 -0.0000 -0.7071
vn -0.9239 -0.0000 -0.3827
vn -0.9239 -0.0000 0.3827
vn 0.7071 -0.0000 0.7071
vn -0.3827 -0.0000 -0.9239
vn -0.0000 -0.0000 1.0000
vn 0.3827 -0.0000 -0.9239
vn -0.7071 -0.0000 0.7071
vn 0.9239 -0.0000 -0.3827
vn -1.0000 -0.0000 -0.0000
vn 0.9239 -0.0000 0.3827
vn 0.9808 -0.0000 0.1951
vn -0.9808 -0.0000 -0.1951
vn 0.5556 -0.0000 0.8315
vn -0.5556 -0.0000 -0.8315
vn 0.1951 -0.0000 -0.9808
vn -0.1951 -0.0000 0.9808
vn 0.8315 -0.0000 -0.5556
vn -0.8315 -0.0000 0.5556
vt 1.000000 0.500000
vt 1.000000 1.000000
vt 0.937500 1.000000
vt 0.937500 0.500000
vt 0.875000 1.000000
vt 0.875000 0.500000
vt 0.812500 1.000000
vt 0.812500 0.500000
vt 0.750000 1.000000
vt 0.750000 0.500000
vt 0.687500 1.000000
vt 0.687500 0.500000
vt 0.625000 1.000000
vt 0.625000 0.500000
vt 0.562500 1.000000
vt 0.562500 0.500000
vt 0.500000 1.000000
vt 0.500000 0.500000
vt 0.437500 1.000000
vt 0.437500 0.500000
vt 0.375000 1.000000
vt 0.375000 0.500000
vt 0.312500 1.000000
vt 0.312500 0.500000
vt 0.250000 1.000000
vt 0.250000 0.500000
vt 0.187500 1.000000
vt 0.187500 0.500000
vt 0.125000 1.000000
vt 0.125000 0.500000
vt 0.062500 1.000000
vt 0.062500 0.500000
vt 0.000000 1.000000
vt 0.000000 0.500000
vt 0.750000 0.490000
vt 0.841844 0.471731
vt 0.919706 0.419706
vt 0.971731 0.341844
vt 0.990000 0.250000
vt 0.971731 0.158156
vt 0.919706 0.080294
vt 0.841844 0.028269
vt 0.750000 0.010000
vt 0.658156 0.028269
vt 0.580294 0.080294
vt 0.528269 0.158156
vt 0.510000 0.250000
vt 0.528269 0.341844
vt 0.580294 0.419706
vt 0.658156 0.471731
vt 0.010000 0.250000
vt 0.028269 0.158156
vt 0.028269 0.341844
vt 0.080294 0.080294
vt 0.158156 0.028269
vt 0.250000 0.010000
vt 0.341844 0.028269
vt 0.419706 0.080294
vt 0.080294 0.419706
vt 0.250000 0.490000
vt 0.341844 0.471731
vt 0.158156 0.471731
vt 0.419706 0.419706
vt 0.471731 0.341844
vt 0.490000 0.250000
vt 0.471731 0.158156
vt 0.430357 0.250000
vt 0.416628 0.319020
vt 0.250000 0.430357
vt 0.319020 0.416628
vt 0.377532 0.377532
vt 0.083372 0.319020
vt 0.180980 0.416628
vt 0.416628 0.180980
vt 0.377532 0.122468
vt 0.069643 0.250000
vt 0.319020 0.083372
vt 0.250000 0.069643
vt 0.180980 0.083372
vt 0.122468 0.122468
vt 0.083372 0.180980
vt 0.122468 0.377531
s 0
usemtl Material
f 1/1/1 2/2/1 4/3/1 3/4/1
f 3/4/2 4/3/2 6/5/2 5/6/2
f 5/6/3 6/5/3 8/7/3 7/8/3
f 7/8/4 8/7/4 10/9/4 9/10/4
f 9/10/5 10/9/5 12/11/5 11/12/5
f 11/12/6 12/11/6 14/13/6 13/14/6
f 13/14/7 14/13/7 16/15/7 15/16/7
f 15/16/8 16/15/8 18/17/8 17/18/8
f 17/18/9 18/17/9 20/19/9 19/20/9
f 19/20/10 20/19/10 22/21/10 21/22/10
f 21/22/11 22/21/11 24/23/11 23/24/11
f 23/24/12 24/23/12 26/25/12 25/26/12
f 25/26/13 26/25/13 28/27/13 27/28/13
f 27/28/14 28/27/14 30/29/14 29/30/14
f 16/15/15 14/13/15 55/13/15 56/15/15
f 29/30/16 30/29/16 32/31/16 31/32/16
f 31/32/17 32/31/17 2/33/17 1/34/17
f 1/35/18 3/36/18 5/37/18 7/38/18 9/39/18 11/40/18 13/41/18 15/42/18 17/43/18 19/44/18 21/45/18 23/46/18 25/47/18 27/48/18 29/49/18 31/50/18
f 45/51/19 44/52/19 123/52/19 108/52/19 109/51/19 126/51/19
f 45/51/20 46/53/20 78/53/20 77/51/20
f 44/52/21 45/51/21 77/51/21 76/52/21
f 24/23/22 22/21/22 59/21/22 60/23/22
f 6/5/23 4/3/23 49/3/23 51/5/23
f 43/54/24 44/52/24 76/52/24 75/54/24
f 32/31/25 30/29/25 63/29/25 64/31/25
f 14/13/26 12/11/26 54/11/26 55/13/26
f 42/55/27 43/54/27 75/54/27 74/55/27
f 41/56/28 42/55/28 74/55/28 73/56/28
f 22/21/29 20/19/29 58/19/29 59/21/29
f 40/57/30 41/56/30 73/56/30 72/57/30
f 4/3/31 2/2/31 50/2/31 49/3/31
f 30/29/32 28/27/32 62/27/32 63/29/32
f 12/11/33 10/9/33 53/9/33 54/11/33
f 39/58/34 40/57/34 72/57/34 71/58/34
f 64/31/35 63/29/35 79/29/35 80/31/35
f 52/7/36 51/5/36 67/5/36 68/7/36
f 57/17/37 56/15/37 72/15/37 73/17/37
f 49/3/38 50/2/38 66/2/38 65/3/38
f 62/27/39 61/25/39 77/25/39 78/27/39
f 55/13/40 54/11/40 70/11/40 71/13/40
f 60/23/41 59/21/41 75/21/41 76/23/41
f 50/33/42 64/31/42 80/31/42 66/33/42
f 53/9/43 52/7/43 68/7/43 69/9/43
f 58/19/44 57/17/44 73/17/44 74/19/44
f 63/29/45 62/27/45 78/27/45 79/29/45
f 51/5/46 49/3/46 65/3/46 67/5/46
f 56/15/47 55/13/47 71/13/47 72/15/47
f 61/25/48 60/23/48 76/23/48 77/25/48
f 54/11/49 53/9/49 69/9/49 70/11/49
f 59/21/50 58/19/50 74/19/50 75/21/50
f 2/33/51 32/31/51 64/31/51 50/33/51
f 46/53/52 47/59/52 79/59/52 78/53/52
f 34/60/53 33/61/53 65/61/53 66/60/53
f 8/7/54 6/5/54 51/5/54 52/7/54
f 26/25/55 24/23/55 60/23/55 61/25/55
f 47/59/56 48/62/56 80/62/56 79/59/56
f 33/61/57 35/63/57 67/63/57 65/61/57
f 48/62/58 34/60/58 66/60/58 80/62/58
f 18/17/59 16/15/59 56/15/59 57/17/59
f 35/63/60 36/64/60 68/64/60 67/63/60
f 36/64/61 37/65/61 69/65/61 68/64/61
f 10/9/62 8/7/62 52/7/62 53/9/62
f 28/27/63 26/25/63 61/25/63 62/27/63
f 37/65/64 38/66/64 70/66/64 69/65/64
f 20/19/65 18/17/65 57/17/65 58/19/65
f 38/66/66 39/58/66 71/58/66 70/66/66
f 85/67/19 84/68/19 132/68/19 133/67/19
f 39/58/67 38/66/67 117/66/67 102/66/67 103/58/67 120/58/67
f 47/59/68 46/53/68 125/53/68 110/53/68 111/59/68 128/59/68
f 41/56/69 40/57/69 119/57/69 104/57/69 105/56/69 122/56/69
f 34/60/70 48/62/70 127/62/70 112/62/70 98/60/70 114/60/70
f 35/63/71 33/61/71 113/61/71 97/61/71 99/63/71 116/63/71
f 43/54/72 42/55/72 121/55/72 106/55/72 107/54/72 124/54/72
f 37/65/73 36/64/73 115/64/73 100/64/73 101/65/73 118/65/73
f 98/60/74 82/69/74 130/69/74 114/60/74
f 81/70/75 83/71/75 99/63/75 97/61/75
f 94/72/76 110/53/76 125/53/76 142/72/76
f 84/68/75 85/67/75 101/65/75 100/64/75
f 82/69/69 96/73/69 144/73/69 130/69/69
f 86/74/75 87/75/75 103/58/75 102/66/75
f 109/51/77 93/76/77 141/76/77 126/51/77
f 88/77/75 89/78/75 105/56/75 104/57/75
f 83/71/72 81/70/72 129/70/72 131/71/72
f 90/79/75 91/80/75 107/54/75 106/55/75
f 92/81/78 108/52/78 123/52/78 140/81/78
f 92/81/75 93/76/75 109/51/75 108/52/75
f 95/82/67 94/72/67 142/72/67 143/82/67
f 94/72/75 95/82/75 111/59/75 110/53/75
f 107/54/79 91/80/79 139/80/79 124/54/79
f 96/73/75 82/69/75 98/60/75 112/62/75
f 129/70/75 130/69/75 144/73/75 143/82/75 142/72/75 141/76/75 140/81/75 139/80/75 138/79/75 137/78/75 136/77/75 135/75/75 134/74/75 133/67/75 132/68/75 131/71/75
f 130/69/75 129/70/75 113/61/75 114/60/75
f 131/71/75 132/68/75 115/64/75 116/63/75
f 133/67/75 134/74/75 117/66/75 118/65/75
f 135/75/75 136/77/75 119/57/75 120/58/75
f 137/78/75 138/79/75 121/55/75 122/56/75
f 139/80/75 140/81/75 123/52/75 124/54/75
f 141/76/75 142/72/75 125/53/75 126/51/75
f 143/82/75 144/73/75 127/62/75 128/59/75
f 111/59/80 95/82/80 143/82/80 128/59/80
f 81/70/81 97/61/81 113/61/81 129/70/81
f 96/73/82 112/62/82 127/62/82 144/73/82
f 99/63/83 83/71/83 131/71/83 116/63/83
f 87/75/68 86/74/68 134/74/68 135/75/68
f 84/68/84 100/64/84 115/64/84 132/68/84
f 101/65/85 85/67/85 133/67/85 118/65/85
f 89/78/70 88/77/70 136/77/70 137/78/70
f 86/74/86 102/66/86 117/66/86 134/74/86
f 103/58/87 87/75/87 135/75/87 120/58/87
f 91/80/71 90/79/71 138/79/71 139/80/71
f 88/77/88 104/57/88 119/57/88 136/77/88
f 105/56/89 89/78/89 137/78/89 122/56/89
f 93/76/73 92/81/73 140/81/73 141/76/73
f 90/79/90 106/55/90 121/55/90 138/79/90
f 38/66/91 37/65/91 118/65/91 117/66/91
f 46/53/92 45/51/92 126/51/92 125/53/92
f 40/57/93 39/58/93 120/58/93 119/57/93
f 48/62/94 47/59/94 128/59/94 127/62/94
f 33/61/95 34/60/95 114/60/95 113/61/95
f 42/55/96 41/56/96 122/56/96 121/55/96
f 36/64/97 35/63/97 116/63/97 115/64/97
f 44/52/98 43/54/98 124/54/98 123/52/98
