# Blender 4.0.1
# www.blender.org
mtllib ctree1B(F68).mtl
o Cylinder.124
v 0.051891 0.031243 -0.289208
v 0.051891 0.488051 -0.200170
v 0.283800 0.031243 -0.177527
v 0.214187 0.488051 -0.122012
v 0.341077 0.031243 0.073419
v 0.254271 0.488051 0.053607
v 0.180591 0.031243 0.274662
v 0.141959 0.488051 0.194442
v -0.076809 0.031243 0.274662
v -0.038177 0.488051 0.194442
v -0.237295 0.031243 0.073419
v -0.150489 0.488051 0.053607
v -0.180018 0.031243 -0.177527
v -0.110405 0.488051 -0.122012
vn 0.4273 0.1730 -0.8874
vn 0.9602 0.1730 -0.2192
vn 0.7700 0.1730 0.6141
vn -0.0000 0.1730 0.9849
vn -0.7700 0.1730 0.6141
vn -0.0000 1.0000 -0.0000
vn -0.9602 0.1730 -0.2192
vn -0.4273 0.1730 -0.8874
vn -0.0000 -1.0000 -0.0000
vt 1.000000 0.500000
vt 1.000000 1.000000
vt 0.857143 1.000000
vt 0.857143 0.500000
vt 0.714286 1.000000
vt 0.714286 0.500000
vt 0.571429 1.000000
vt 0.571429 0.500000
vt 0.428571 1.000000
vt 0.428571 0.500000
vt 0.285714 1.000000
vt 0.285714 0.500000
vt 0.437640 0.399638
vt 0.250000 0.490000
vt 0.062360 0.399638
vt 0.016017 0.196595
vt 0.145868 0.033767
vt 0.354132 0.033767
vt 0.483983 0.196595
vt 0.142857 1.000000
vt 0.142857 0.500000
vt 0.000000 1.000000
vt 0.000000 0.500000
vt 0.750000 0.490000
vt 0.937640 0.399638
vt 0.983983 0.196595
vt 0.854132 0.033767
vt 0.645868 0.033767
vt 0.516017 0.196595
vt 0.562360 0.399638
s 0
usemtl Material.061
f 1/1/1 2/2/1 4/3/1 3/4/1
f 3/4/2 4/3/2 6/5/2 5/6/2
f 5/6/3 6/5/3 8/7/3 7/8/3
f 7/8/4 8/7/4 10/9/4 9/10/4
f 9/10/5 10/9/5 12/11/5 11/12/5
f 4/13/6 2/14/6 14/15/6 12/16/6 10/17/6 8/18/6 6/19/6
f 11/12/7 12/11/7 14/20/7 13/21/7
f 13/21/8 14/20/8 2/22/8 1/23/8
f 1/24/9 3/25/9 5/26/9 7/27/9 9/28/9 11/29/9 13/30/9
o Cylinder.123
v 0.051891 0.292462 -0.449551
v 0.051891 0.803359 -0.353787
v 0.395478 0.292462 -0.277499
v 0.323474 0.803359 -0.217791
v 0.480337 0.292462 0.109099
v 0.390549 0.803359 0.087789
v 0.242567 0.292462 0.419126
v 0.202608 0.803359 0.332845
v -0.138785 0.292462 0.419126
v -0.098826 0.803359 0.332845
v -0.376554 0.292462 0.109099
v -0.286767 0.803359 0.087789
v -0.291696 0.292462 -0.277499
v -0.219692 0.803359 -0.217791
v 0.051891 0.292462 -0.612556
v 0.518039 0.292462 -0.379131
v 0.633168 0.292462 0.145371
v 0.310584 0.292462 0.565989
v -0.206802 0.292462 0.565989
v -0.529386 0.292462 0.145371
v -0.414257 0.292462 -0.379131
v 0.051891 0.694028 -0.360244
v 0.328328 0.694028 -0.221817
v 0.396603 0.694028 0.089226
v 0.205302 0.694028 0.338663
v -0.101520 0.694028 0.338663
v -0.292821 0.694028 0.089226
v -0.224546 0.694028 -0.221817
vn 0.4079 0.4126 -0.8145
vn 0.8941 0.4025 -0.1963
vn 0.7249 0.4069 0.5559
vn -0.0000 0.4152 0.9098
vn -0.7249 0.4069 0.5559
vn -0.0000 1.0000 -0.0000
vn -0.8941 0.4025 -0.1963
vn -0.4079 0.4126 -0.8145
vn 0.4392 -0.1950 0.8770
vn -0.0000 -1.0000 -0.0000
vn 0.7788 -0.1919 -0.5972
vn -0.7788 -0.1919 -0.5972
vn -0.4392 -0.1950 0.8770
vn 0.9590 -0.1896 0.2105
vn -0.0000 -0.1965 -0.9805
vn -0.9590 -0.1896 0.2105
vt 1.000000 0.500000
vt 1.000000 1.000000
vt 0.857143 1.000000
vt 0.857143 0.500000
vt 0.714286 1.000000
vt 0.714286 0.500000
vt 0.571429 1.000000
vt 0.571429 0.500000
vt 0.428571 1.000000
vt 0.428571 0.500000
vt 0.285714 1.000000
vt 0.285714 0.500000
vt 0.437640 0.399638
vt 0.250000 0.490000
vt 0.062360 0.399638
vt 0.016017 0.196595
vt 0.145868 0.033767
vt 0.354132 0.033767
vt 0.483983 0.196595
vt 0.142857 1.000000
vt 0.142857 0.500000
vt 0.000000 1.000000
vt 0.000000 0.500000
vt 0.611695 0.360294
vt 0.750000 0.426898
vt 0.888305 0.360294
vt 0.750000 0.490000
vt 0.937640 0.399638
vt 0.922463 0.210636
vt 0.983983 0.196595
vt 0.826753 0.090620
vt 0.854132 0.033767
vt 0.673247 0.090620
vt 0.645868 0.033767
vt 0.577537 0.210636
vt 0.516017 0.196595
vt 0.562360 0.399638
s 0
usemtl Material.062
f 29/31/10 16/32/10 18/33/10 30/34/10
f 30/34/11 18/33/11 20/35/11 31/36/11
f 31/36/12 20/35/12 22/37/12 32/38/12
f 32/38/13 22/37/13 24/39/13 33/40/13
f 33/40/14 24/39/14 26/41/14 34/42/14
f 18/43/15 16/44/15 28/45/15 26/46/15 24/47/15 22/48/15 20/49/15
f 34/42/16 26/41/16 28/50/16 35/51/16
f 35/51/17 28/50/17 16/52/17 29/53/17
f 27/54/18 15/55/18 36/55/18 42/54/18
f 17/56/19 15/55/19 29/57/19 30/58/19
f 19/59/19 17/56/19 30/58/19 31/60/19
f 21/61/19 19/59/19 31/60/19 32/62/19
f 23/63/19 21/61/19 32/62/19 33/64/19
f 25/65/19 23/63/19 33/64/19 34/66/19
f 27/54/19 25/65/19 34/66/19 35/67/19
f 15/55/19 27/54/19 35/67/19 29/57/19
f 36/55/19 37/56/19 38/59/19 39/61/19 40/63/19 41/65/19 42/54/19
f 23/63/20 25/65/20 41/65/20 40/63/20
f 19/59/21 21/61/21 39/61/21 38/59/21
f 15/55/22 17/56/22 37/56/22 36/55/22
f 25/65/23 27/54/23 42/54/23 41/65/23
f 21/61/24 23/63/24 40/63/24 39/61/24
f 17/56/25 19/59/25 38/59/25 37/56/25
o Cylinder.122
v 0.051891 1.030364 -0.283207
v 0.260249 1.035231 -0.178839
v 0.311710 1.046168 0.055673
v 0.167521 1.054939 0.243738
v -0.063739 1.054939 0.243738
v -0.207928 1.046168 0.055673
v -0.156467 1.035231 -0.178839
v 0.051891 0.552447 -0.550019
v 0.483561 0.562531 -0.333793
v 0.590175 0.585190 0.152063
v 0.291450 0.603360 0.541689
v -0.187668 0.603360 0.541689
v -0.486393 0.585190 0.152063
v -0.379779 0.562531 -0.333793
vn 0.3919 0.4485 -0.8033
vn 0.8557 0.4730 -0.2098
vn 0.6888 0.5214 0.5038
vn -0.0000 0.5507 0.8347
vn -0.6888 0.5214 0.5038
vn -0.0000 0.9989 -0.0466
vn -0.8557 0.4730 -0.2098
vn -0.3919 0.4485 -0.8033
vn -0.0000 -0.9989 0.0466
vt 1.000000 0.500000
vt 1.000000 1.000000
vt 0.857143 1.000000
vt 0.857143 0.500000
vt 0.714286 1.000000
vt 0.714286 0.500000
vt 0.571429 1.000000
vt 0.571429 0.500000
vt 0.428571 1.000000
vt 0.428571 0.500000
vt 0.285714 1.000000
vt 0.285714 0.500000
vt 0.437640 0.399638
vt 0.250000 0.490000
vt 0.062360 0.399638
vt 0.016017 0.196595
vt 0.145868 0.033767
vt 0.354132 0.033767
vt 0.483983 0.196595
vt 0.142857 1.000000
vt 0.142857 0.500000
vt 0.000000 1.000000
vt 0.000000 0.500000
s 0
usemtl Material.062
f 50/68/26 43/69/26 44/70/26 51/71/26
f 51/71/27 44/70/27 45/72/27 52/73/27
f 52/73/28 45/72/28 46/74/28 53/75/28
f 53/75/29 46/74/29 47/76/29 54/77/29
f 54/77/30 47/76/30 48/78/30 55/79/30
f 44/80/31 43/81/31 49/82/31 48/83/31 47/84/31 46/85/31 45/86/31
f 55/79/32 48/78/32 49/87/32 56/88/32
f 56/88/33 49/87/33 43/89/33 50/90/33
f 50/90/34 51/71/34 52/73/34 53/75/34 54/77/34 55/79/34 56/88/34
o Cylinder.121
v 0.051639 1.201689 -0.230517
v 0.227711 1.203050 -0.142672
v 0.271460 1.206261 0.055236
v 0.149943 1.208904 0.214178
v -0.045336 1.208988 0.214469
v -0.167328 1.206450 0.055888
v -0.124169 1.203202 -0.142149
v 0.051030 0.816259 -0.484415
v 0.424703 0.819149 -0.297984
v 0.517550 0.825963 0.122030
v 0.259657 0.831571 0.459349
v -0.154778 0.831749 0.459965
v -0.413677 0.826364 0.123414
v -0.322084 0.819470 -0.296875
vn 0.3814 0.5081 -0.7723
vn 0.8388 0.5088 -0.1937
vn 0.6785 0.5287 0.5100
vn 0.0015 0.5451 0.8383
vn -0.6765 0.5294 0.5119
vn 0.0004 0.9999 -0.0163
vn -0.8388 0.5097 -0.1912
vn -0.3832 0.5085 -0.7711
vn -0.0004 -0.9999 0.0163
vt 1.000000 0.500000
vt 1.000000 1.000000
vt 0.857143 1.000000
vt 0.857143 0.500000
vt 0.714286 1.000000
vt 0.714286 0.500000
vt 0.571429 1.000000
vt 0.571429 0.500000
vt 0.428571 1.000000
vt 0.428571 0.500000
vt 0.285714 1.000000
vt 0.285714 0.500000
vt 0.437640 0.399638
vt 0.250000 0.490000
vt 0.062360 0.399638
vt 0.016017 0.196595
vt 0.145868 0.033767
vt 0.354132 0.033767
vt 0.483983 0.196595
vt 0.142857 1.000000
vt 0.142857 0.500000
vt 0.000000 1.000000
vt 0.000000 0.500000
s 0
usemtl Material.062
f 64/91/35 57/92/35 58/93/35 65/94/35
f 65/94/36 58/93/36 59/95/36 66/96/36
f 66/96/37 59/95/37 60/97/37 67/98/37
f 67/98/38 60/97/38 61/99/38 68/100/38
f 68/100/39 61/99/39 62/101/39 69/102/39
f 58/103/40 57/104/40 63/105/40 62/106/40 61/107/40 60/108/40 59/109/40
f 69/102/41 62/101/41 63/110/41 70/111/41
f 70/111/42 63/110/42 57/112/42 64/113/42
f 64/113/43 65/94/43 66/96/43 67/98/43 68/100/43 69/102/43 70/111/43
o Cylinder.120
v 0.051693 1.448695 -0.153661
v 0.189495 1.445932 -0.084900
v 0.223735 1.439818 0.070018
v 0.128630 1.434958 0.194437
v -0.024203 1.435011 0.194668
v -0.119679 1.439937 0.070536
v -0.085902 1.446027 -0.084485
v 0.051159 1.064823 -0.405806
v 0.365190 1.058526 -0.249110
v 0.443219 1.044594 0.103928
v 0.226488 1.033519 0.387464
v -0.121800 1.033639 0.387989
v -0.339376 1.044865 0.105108
v -0.262403 1.058743 -0.248164
vn 0.3936 0.5043 -0.7686
vn 0.8672 0.4668 -0.1733
vn 0.7053 0.4394 0.5563
vn 0.0015 0.4336 0.9011
vn -0.7033 0.4400 0.5584
vn 0.0004 0.9992 0.0393
vn -0.8674 0.4674 -0.1706
vn -0.3956 0.5046 -0.7674
vn -0.0004 -0.9992 -0.0393
vt 1.000000 0.500000
vt 1.000000 1.000000
vt 0.857143 1.000000
vt 0.857143 0.500000
vt 0.714286 1.000000
vt 0.714286 0.500000
vt 0.571429 1.000000
vt 0.571429 0.500000
vt 0.428571 1.000000
vt 0.428571 0.500000
vt 0.285714 1.000000
vt 0.285714 0.500000
vt 0.437640 0.399638
vt 0.250000 0.490000
vt 0.062360 0.399638
vt 0.016017 0.196595
vt 0.145868 0.033767
vt 0.354132 0.033767
vt 0.483983 0.196595
vt 0.142857 1.000000
vt 0.142857 0.500000
vt 0.000000 1.000000
vt 0.000000 0.500000
s 0
usemtl Material.062
f 78/114/44 71/115/44 72/116/44 79/117/44
f 79/117/45 72/116/45 73/118/45 80/119/45
f 80/119/46 73/118/46 74/120/46 81/121/46
f 81/121/47 74/120/47 75/122/47 82/123/47
f 82/123/48 75/122/48 76/124/48 83/125/48
f 72/126/49 71/127/49 77/128/49 76/129/49 75/130/49 74/131/49 73/132/49
f 83/125/50 76/124/50 77/133/50 84/134/50
f 84/134/51 77/133/51 71/135/51 78/136/51
f 78/136/52 79/117/52 80/119/52 81/121/52 82/123/52 83/125/52 84/134/52
o Cylinder.119
v 0.051855 1.759461 -0.044604
v 0.099379 1.759837 -0.020893
v 0.111188 1.760723 0.032525
v 0.078389 1.761452 0.075426
v 0.025680 1.761475 0.075504
v -0.007247 1.760774 0.032701
v 0.004402 1.759878 -0.020752
v 0.051341 1.345385 -0.281306
v 0.282481 1.347214 -0.165987
v 0.339913 1.351525 0.093818
v 0.180390 1.355070 0.302472
v -0.075964 1.355180 0.302852
v -0.236109 1.351773 0.094674
v -0.179453 1.347413 -0.165301
vn 0.3945 0.4557 -0.7980
vn 0.8678 0.4552 -0.1994
vn 0.7039 0.4728 0.5301
vn 0.0015 0.4880 0.8728
vn -0.7019 0.4734 0.5322
vn 0.0004 0.9999 -0.0167
vn -0.8680 0.4559 -0.1968
vn -0.3965 0.4560 -0.7968
vn -0.0004 -0.9999 0.0167
vt 1.000000 0.500000
vt 1.000000 1.000000
vt 0.857143 1.000000
vt 0.857143 0.500000
vt 0.714286 1.000000
vt 0.714286 0.500000
vt 0.571429 1.000000
vt 0.571429 0.500000
vt 0.428571 1.000000
vt 0.428571 0.500000
vt 0.285714 1.000000
vt 0.285714 0.500000
vt 0.437640 0.399638
vt 0.250000 0.490000
vt 0.062360 0.399638
vt 0.016017 0.196595
vt 0.145868 0.033767
vt 0.354132 0.033767
vt 0.483983 0.196595
vt 0.142857 1.000000
vt 0.142857 0.500000
vt 0.000000 1.000000
vt 0.000000 0.500000
s 0
usemtl Material.062
f 92/137/53 85/138/53 86/139/53 93/140/53
f 93/140/54 86/139/54 87/141/54 94/142/54
f 94/142/55 87/141/55 88/143/55 95/144/55
f 95/144/56 88/143/56 89/145/56 96/146/56
f 96/146/57 89/145/57 90/147/57 97/148/57
f 86/149/58 85/150/58 91/151/58 90/152/58 89/153/58 88/154/58 87/155/58
f 97/148/59 90/147/59 91/156/59 98/157/59
f 98/157/60 91/156/60 85/158/60 92/159/60
f 92/159/61 93/140/61 94/142/61 95/144/61 96/146/61 97/148/61 98/157/61
