# Blender 4.0.1
# www.blender.org
mtllib ctree4C(F68).mtl
o Cylinder.141
v 0.005116 2.074807 -0.075508
v 0.086744 2.075453 -0.034791
v 0.107026 2.076975 0.056944
v 0.050690 2.078227 0.130617
v -0.039842 2.078266 0.130751
v -0.096397 2.077062 0.057246
v -0.076389 2.075523 -0.034548
v 0.004592 1.489307 -0.319415
v 0.275879 1.491454 -0.184090
v 0.343287 1.496512 0.120788
v 0.156056 1.500672 0.365640
v -0.144826 1.500802 0.366087
v -0.332787 1.496803 0.121793
v -0.266290 1.491688 -0.183285
vn 0.4160 0.3494 -0.8396
vn 0.9138 0.3491 -0.2078
vn 0.7428 0.3641 0.5618
vn 0.0015 0.3772 0.9261
vn -0.7409 0.3646 0.5641
vn 0.0004 0.9999 -0.0167
vn -0.9142 0.3496 -0.2051
vn -0.4182 0.3496 -0.8384
vn -0.0004 -0.9999 0.0167
vt 1.000000 0.500000
vt 1.000000 1.000000
vt 0.857143 1.000000
vt 0.857143 0.500000
vt 0.714286 1.000000
vt 0.714286 0.500000
vt 0.571429 1.000000
vt 0.571429 0.500000
vt 0.428571 1.000000
vt 0.428571 0.500000
vt 0.285714 1.000000
vt 0.285714 0.500000
vt 0.437640 0.399638
vt 0.250000 0.490000
vt 0.062360 0.399638
vt 0.016017 0.196595
vt 0.145868 0.033767
vt 0.354132 0.033767
vt 0.483983 0.196595
vt 0.142857 1.000000
vt 0.142857 0.500000
vt 0.000000 1.000000
vt 0.000000 0.500000
s 0
usemtl Material.077
f 8/1/1 1/2/1 2/3/1 9/4/1
f 9/4/2 2/3/2 3/5/2 10/6/2
f 10/6/3 3/5/3 4/7/3 11/8/3
f 11/8/4 4/7/4 5/9/4 12/10/4
f 12/10/5 5/9/5 6/11/5 13/12/5
f 2/13/6 1/14/6 7/15/6 6/16/6 5/17/6 4/18/6 3/19/6
f 13/12/7 6/11/7 7/20/7 14/21/7
f 14/21/8 7/20/8 1/22/8 8/23/8
f 8/23/9 9/4/9 10/6/9 11/8/9 12/10/9 13/12/9 14/21/9
o Cylinder.140
v 0.004917 1.675292 -0.202159
v 0.192714 1.671529 -0.108545
v 0.239376 1.663206 0.102370
v 0.131893 1.239719 0.303339
v 0.109767 1.656590 0.271763
v -0.098517 1.656662 0.272077
v -0.228632 1.663368 0.103076
v -0.182600 1.671659 -0.107979
v 0.004508 1.266662 -0.379660
v 0.313665 1.260468 -0.225549
v 0.390482 1.246767 0.121666
v 0.177114 1.235874 0.400525
v -0.165768 1.235993 0.401041
v -0.379968 1.247034 0.122827
v -0.304188 1.260683 -0.224618
vn 0.4218 0.3609 -0.8318
vn 0.9254 0.3269 -0.1918
vn 0.7519 0.3000 0.5870
vn 0.0015 0.2929 0.9561
vn -0.7499 0.3006 0.5893
vn 0.0004 0.9992 0.0393
vn -0.9257 0.3275 -0.1890
vn -0.4241 0.3612 -0.8305
vn -0.0004 -0.9992 -0.0393
vt 1.000000 0.500000
vt 1.000000 1.000000
vt 0.857143 1.000000
vt 0.857143 0.500000
vt 0.714286 1.000000
vt 0.714286 0.500000
vt 0.571429 1.000000
vt 0.571429 0.500000
vt 0.428571 1.000000
vt 0.428571 0.500000
vt 0.285714 1.000000
vt 0.285714 0.500000
vt 0.437640 0.399638
vt 0.250000 0.490000
vt 0.062360 0.399638
vt 0.016017 0.196595
vt 0.145868 0.033767
vt 0.354132 0.033767
vt 0.483983 0.196595
vt 0.142857 1.000000
vt 0.142857 0.500000
vt 0.000000 1.000000
vt 0.000000 0.500000
s 0
usemtl Material.077
f 23/24/10 15/25/10 16/26/10 24/27/10
f 24/27/11 16/26/11 17/28/11 25/29/11
f 25/29/12 17/28/12 19/30/12 26/31/12
f 26/31/13 19/30/13 20/32/13 27/33/13
f 27/33/14 20/32/14 21/34/14 28/35/14
f 16/36/15 15/37/15 22/38/15 21/39/15 20/40/15 19/41/15 17/42/15
f 28/35/16 21/34/16 22/43/16 29/44/16
f 29/44/17 22/43/17 15/45/17 23/46/17
f 23/46/18 24/27/18 25/29/18 26/31/18 27/33/18 28/35/18 29/44/18
l 26 18
o Cylinder.139
v 0.004870 1.416079 -0.271629
v 0.223785 1.417772 -0.162428
v 0.278179 1.421764 0.083594
v 0.127093 1.425049 0.281177
v -0.115702 1.425153 0.281538
v -0.267377 1.421998 0.084404
v -0.213717 1.417960 -0.161778
v 0.004393 0.928968 -0.451718
v 0.364776 0.931754 -0.271949
v 0.454322 0.938325 0.133060
v 0.205600 0.943733 0.458327
v -0.194096 0.943905 0.458921
v -0.443788 0.938712 0.134394
v -0.355452 0.932064 -0.270879
vn 0.4218 0.3140 -0.8505
vn 0.9254 0.3157 -0.2097
vn 0.7519 0.3322 0.5694
vn 0.0015 0.3456 0.9384
vn -0.7499 0.3329 0.5717
vn 0.0004 0.9999 -0.0163
vn -0.9257 0.3165 -0.2070
vn -0.4241 0.3144 -0.8493
vn -0.0004 -0.9999 0.0163
vt 1.000000 0.500000
vt 1.000000 1.000000
vt 0.857143 1.000000
vt 0.857143 0.500000
vt 0.714286 1.000000
vt 0.714286 0.500000
vt 0.571429 1.000000
vt 0.571429 0.500000
vt 0.428571 1.000000
vt 0.428571 0.500000
vt 0.285714 1.000000
vt 0.285714 0.500000
vt 0.437640 0.399638
vt 0.250000 0.490000
vt 0.062360 0.399638
vt 0.016017 0.196595
vt 0.145868 0.033767
vt 0.354132 0.033767
vt 0.483983 0.196595
vt 0.142857 1.000000
vt 0.142857 0.500000
vt 0.000000 1.000000
vt 0.000000 0.500000
s 0
usemtl Material.077
f 37/47/19 30/48/19 31/49/19 38/50/19
f 38/50/20 31/49/20 32/51/20 39/52/20
f 39/52/21 32/51/21 33/53/21 40/54/21
f 40/54/22 33/53/22 34/55/22 41/56/22
f 41/56/23 34/55/23 35/57/23 42/58/23
f 31/59/24 30/60/24 36/61/24 35/62/24 34/63/24 33/64/24 32/65/24
f 42/58/25 35/57/25 36/66/25 43/67/25
f 43/67/26 36/66/26 30/68/26 37/69/26
f 37/69/27 38/50/27 39/52/27 40/54/27 41/56/27 42/58/27 43/67/27
o Cylinder.138
v 0.005197 1.181775 -0.317230
v 0.251303 1.187516 -0.194126
v 0.312086 1.200416 0.082487
v 0.141776 1.210762 0.304314
v -0.131381 1.210762 0.304314
v -0.301691 1.200416 0.082487
v -0.240908 1.187516 -0.194126
v 0.005197 0.627866 -0.503150
v 0.410344 0.637317 -0.300492
v 0.510406 0.658554 0.154877
v 0.230037 0.675585 0.520055
v -0.219642 0.675585 0.520055
v -0.500012 0.658554 0.154877
v -0.399949 0.637317 -0.300492
vn 0.4230 0.2883 -0.8590
vn 0.9256 0.3097 -0.2178
vn 0.7509 0.3497 0.5602
vn -0.0000 0.3739 0.9275
vn -0.7509 0.3497 0.5602
vn -0.0000 0.9989 -0.0466
vn -0.9256 0.3097 -0.2178
vn -0.4230 0.2883 -0.8590
vn -0.0000 -0.9989 0.0466
vt 1.000000 0.500000
vt 1.000000 1.000000
vt 0.857143 1.000000
vt 0.857143 0.500000
vt 0.714286 1.000000
vt 0.714286 0.500000
vt 0.571429 1.000000
vt 0.571429 0.500000
vt 0.428571 1.000000
vt 0.428571 0.500000
vt 0.285714 1.000000
vt 0.285714 0.500000
vt 0.437640 0.399638
vt 0.250000 0.490000
vt 0.062360 0.399638
vt 0.016017 0.196595
vt 0.145868 0.033767
vt 0.354132 0.033767
vt 0.483983 0.196595
vt 0.142857 1.000000
vt 0.142857 0.500000
vt 0.000000 1.000000
vt 0.000000 0.500000
s 0
usemtl Material.077
f 51/70/28 44/71/28 45/72/28 52/73/28
f 52/73/29 45/72/29 46/74/29 53/75/29
f 53/75/30 46/74/30 47/76/30 54/77/30
f 54/77/31 47/76/31 48/78/31 55/79/31
f 55/79/32 48/78/32 49/80/32 56/81/32
f 45/82/33 44/83/33 50/84/33 49/85/33 48/86/33 47/87/33 46/88/33
f 56/81/34 49/80/34 50/89/34 57/90/34
f 57/90/35 50/89/35 44/91/35 51/92/35
f 51/92/36 52/73/36 53/75/36 54/77/36 55/79/36 56/81/36 57/90/36
o Cylinder.137
v 0.005197 0.341086 -0.398082
v 0.005197 0.919323 -0.323926
v 0.322238 0.341086 -0.239323
v 0.266481 0.919323 -0.193087
v 0.400541 0.341086 0.117406
v 0.331012 0.919323 0.100904
v 0.181142 0.341086 0.403480
v 0.150199 0.919323 0.336667
v -0.170747 0.341086 0.403480
v -0.139804 0.919323 0.336667
v -0.390146 0.341086 0.117406
v -0.320618 0.919323 0.100904
v -0.311843 0.341086 -0.239323
v -0.256086 0.919323 -0.193087
v 0.005197 0.341086 -0.548493
v 0.435330 0.341086 -0.333103
v 0.541564 0.341086 0.150875
v 0.243903 0.341086 0.538996
v -0.233508 0.341086 0.538996
v -0.531169 0.341086 0.150875
v -0.424935 0.341086 -0.333103
v 0.005197 0.571712 -0.398082
v 0.322238 0.571712 -0.239323
v 0.400541 0.571712 0.117406
v 0.181142 0.571712 0.403480
v -0.170747 0.571712 0.403480
v -0.390146 0.571712 0.117406
v -0.311843 0.571712 -0.239323
vn 0.4230 0.3280 -0.8447
vn 0.9256 0.3195 -0.2032
vn 0.7509 0.3232 0.5759
vn -0.0000 0.3303 0.9439
vn -0.7509 0.3232 0.5759
vn -0.0000 1.0000 -0.0000
vn -0.9256 0.3195 -0.2032
vn -0.4230 0.3280 -0.8447
vn 0.4478 -0.0000 0.8942
vn -0.0000 -1.0000 -0.0000
vn 0.7935 -0.0000 -0.6086
vn -0.7935 -0.0000 -0.6086
vn -0.4478 -0.0000 0.8942
vn 0.9767 -0.0000 0.2144
vn -0.0000 -0.0000 -1.0000
vn -0.9767 -0.0000 0.2144
vt 1.000000 0.500000
vt 1.000000 1.000000
vt 0.857143 1.000000
vt 0.857143 0.500000
vt 0.714286 1.000000
vt 0.714286 0.500000
vt 0.571429 1.000000
vt 0.571429 0.500000
vt 0.428571 1.000000
vt 0.428571 0.500000
vt 0.285714 1.000000
vt 0.285714 0.500000
vt 0.437640 0.399638
vt 0.250000 0.490000
vt 0.062360 0.399638
vt 0.016017 0.196595
vt 0.145868 0.033767
vt 0.354132 0.033767
vt 0.483983 0.196595
vt 0.142857 1.000000
vt 0.142857 0.500000
vt 0.000000 1.000000
vt 0.000000 0.500000
vt 0.611695 0.360294
vt 0.750000 0.426898
vt 0.888305 0.360294
vt 0.750000 0.490000
vt 0.937640 0.399638
vt 0.922463 0.210636
vt 0.983983 0.196595
vt 0.826753 0.090620
vt 0.854132 0.033767
vt 0.673247 0.090620
vt 0.645868 0.033767
vt 0.577537 0.210636
vt 0.516017 0.196595
vt 0.562360 0.399638
s 0
usemtl Material.077
f 72/93/37 59/94/37 61/95/37 73/96/37
f 73/96/38 61/95/38 63/97/38 74/98/38
f 74/98/39 63/97/39 65/99/39 75/100/39
f 75/100/40 65/99/40 67/101/40 76/102/40
f 76/102/41 67/101/41 69/103/41 77/104/41
f 61/105/42 59/106/42 71/107/42 69/108/42 67/109/42 65/110/42 63/111/42
f 77/104/43 69/103/43 71/112/43 78/113/43
f 78/113/44 71/112/44 59/114/44 72/115/44
f 70/116/45 58/117/45 79/117/45 85/116/45
f 60/118/46 58/117/46 72/119/46 73/120/46
f 62/121/46 60/118/46 73/120/46 74/122/46
f 64/123/46 62/121/46 74/122/46 75/124/46
f 66/125/46 64/123/46 75/124/46 76/126/46
f 68/127/46 66/125/46 76/126/46 77/128/46
f 70/116/46 68/127/46 77/128/46 78/129/46
f 58/117/46 70/116/46 78/129/46 72/119/46
f 79/117/46 80/118/46 81/121/46 82/123/46 83/125/46 84/127/46 85/116/46
f 66/125/47 68/127/47 84/127/47 83/125/47
f 62/121/48 64/123/48 82/123/48 81/121/48
f 58/117/49 60/118/49 80/118/49 79/117/49
f 68/127/50 70/116/50 85/116/50 84/127/50
f 64/123/51 66/125/51 83/125/51 82/123/51
f 60/118/52 62/121/52 81/121/52 80/118/52
o Cylinder.136
v 0.005197 -0.018493 -0.239112
v 0.005197 0.460154 -0.160259
v 0.210576 -0.018493 -0.140206
v 0.148927 0.460154 -0.091043
v 0.261300 -0.018493 0.082031
v 0.184425 0.460154 0.064485
v 0.119174 -0.018493 0.260252
v 0.084961 0.460154 0.189209
v -0.108779 -0.018493 0.260252
v -0.074567 0.460154 0.189209
v -0.250906 -0.018493 0.082031
v -0.174031 0.460154 0.064485
v -0.200181 -0.018493 -0.140206
v -0.138532 0.460154 -0.091043
vn 0.4292 0.1468 -0.8912
vn 0.9644 0.1468 -0.2201
vn 0.7734 0.1468 0.6167
vn -0.0000 0.1468 0.9892
vn -0.7734 0.1468 0.6167
vn -0.0000 1.0000 -0.0000
vn -0.9644 0.1468 -0.2201
vn -0.4292 0.1468 -0.8912
vn -0.0000 -1.0000 -0.0000
vt 1.000000 0.500000
vt 1.000000 1.000000
vt 0.857143 1.000000
vt 0.857143 0.500000
vt 0.714286 1.000000
vt 0.714286 0.500000
vt 0.571429 1.000000
vt 0.571429 0.500000
vt 0.428571 1.000000
vt 0.428571 0.500000
vt 0.285714 1.000000
vt 0.285714 0.500000
vt 0.437640 0.399638
vt 0.250000 0.490000
vt 0.062360 0.399638
vt 0.016017 0.196595
vt 0.145868 0.033767
vt 0.354132 0.033767
vt 0.483983 0.196595
vt 0.142857 1.000000
vt 0.142857 0.500000
vt 0.000000 1.000000
vt 0.000000 0.500000
vt 0.750000 0.490000
vt 0.937640 0.399638
vt 0.983983 0.196595
vt 0.854132 0.033767
vt 0.645868 0.033767
vt 0.516017 0.196595
vt 0.562360 0.399638
s 0
usemtl Material.078
f 86/130/53 87/131/53 89/132/53 88/133/53
f 88/133/54 89/132/54 91/134/54 90/135/54
f 90/135/55 91/134/55 93/136/55 92/137/55
f 92/137/56 93/136/56 95/138/56 94/139/56
f 94/139/57 95/138/57 97/140/57 96/141/57
f 89/142/58 87/143/58 99/144/58 97/145/58 95/146/58 93/147/58 91/148/58
f 96/141/59 97/140/59 99/149/59 98/150/59
f 98/150/60 99/149/60 87/151/60 86/152/60
f 86/153/61 88/154/61 90/155/61 92/156/61 94/157/61 96/158/61 98/159/61
