# Blender 4.0.1
# www.blender.org
mtllib ctree2B(F68).mtl
o Cylinder.118
v 0.107559 1.531517 -0.033376
v 0.155083 1.531893 -0.009667
v 0.166892 1.532779 0.043749
v 0.134092 1.533508 0.086647
v 0.081384 1.533530 0.086725
v 0.048457 1.532830 0.043924
v 0.060106 1.531934 -0.009526
v 0.107068 1.174956 -0.271026
v 0.338208 1.176785 -0.155712
v 0.395640 1.181095 0.104080
v 0.236117 1.184640 0.312723
v -0.020237 1.184751 0.313104
v -0.180382 1.181343 0.104936
v -0.123726 1.176984 -0.155026
vn 0.3800 0.5126 -0.7699
vn 0.8373 0.5114 -0.1936
vn 0.6786 0.5288 0.5098
vn 0.0015 0.5441 0.8390
vn -0.6766 0.5294 0.5119
vn 0.0004 0.9999 -0.0167
vn -0.8374 0.5120 -0.1911
vn -0.3819 0.5129 -0.7688
vn -0.0004 -0.9999 0.0167
vt 1.000000 0.500000
vt 1.000000 1.000000
vt 0.857143 1.000000
vt 0.857143 0.500000
vt 0.714286 1.000000
vt 0.714286 0.500000
vt 0.571429 1.000000
vt 0.571429 0.500000
vt 0.428571 1.000000
vt 0.428571 0.500000
vt 0.285714 1.000000
vt 0.285714 0.500000
vt 0.437640 0.399638
vt 0.250000 0.490000
vt 0.062360 0.399638
vt 0.016017 0.196595
vt 0.145868 0.033767
vt 0.354132 0.033767
vt 0.483983 0.196595
vt 0.142857 1.000000
vt 0.142857 0.500000
vt 0.000000 1.000000
vt 0.000000 0.500000
s 0
usemtl Material.063
f 8/1/1 1/2/1 2/3/1 9/4/1
f 9/4/2 2/3/2 3/5/2 10/6/2
f 10/6/3 3/5/3 4/7/3 11/8/3
f 11/8/4 4/7/4 5/9/4 12/10/4
f 12/10/5 5/9/5 6/11/5 13/12/5
f 2/13/6 1/14/6 7/15/6 6/16/6 5/17/6 4/18/6 3/19/6
f 13/12/7 6/11/7 7/20/7 14/21/7
f 14/21/8 7/20/8 1/22/8 8/23/8
f 8/23/9 9/4/9 10/6/9 11/8/9 12/10/9 13/12/9 14/21/9
o Cylinder.117
v 0.107398 1.265495 -0.142863
v 0.245199 1.262732 -0.074122
v 0.279439 1.256621 0.080754
v 0.184335 1.251762 0.205139
v 0.031501 1.251815 0.205370
v -0.063974 1.256740 0.081271
v -0.030197 1.262828 -0.073707
v 0.106886 0.936719 -0.392775
v 0.420917 0.930424 -0.236122
v 0.498946 0.916496 0.116820
v 0.282215 0.905424 0.400278
v -0.066073 0.905544 0.400803
v -0.283649 0.916767 0.118000
v -0.206675 0.930642 -0.235176
vn 0.3789 0.5597 -0.7370
vn 0.8366 0.5225 -0.1643
vn 0.6802 0.4962 0.5395
vn 0.0015 0.4912 0.8710
vn -0.6782 0.4967 0.5415
vn 0.0004 0.9992 0.0393
vn -0.8367 0.5232 -0.1618
vn -0.3807 0.5600 -0.7359
vn -0.0004 -0.9992 -0.0393
vt 1.000000 0.500000
vt 1.000000 1.000000
vt 0.857143 1.000000
vt 0.857143 0.500000
vt 0.714286 1.000000
vt 0.714286 0.500000
vt 0.571429 1.000000
vt 0.571429 0.500000
vt 0.428571 1.000000
vt 0.428571 0.500000
vt 0.285714 1.000000
vt 0.285714 0.500000
vt 0.437640 0.399638
vt 0.250000 0.490000
vt 0.062360 0.399638
vt 0.016017 0.196595
vt 0.145868 0.033767
vt 0.354132 0.033767
vt 0.483983 0.196595
vt 0.142857 1.000000
vt 0.142857 0.500000
vt 0.000000 1.000000
vt 0.000000 0.500000
s 0
usemtl Material.063
f 22/24/10 15/25/10 16/26/10 23/27/10
f 23/27/11 16/26/11 17/28/11 24/29/11
f 24/29/12 17/28/12 18/30/12 25/31/12
f 25/31/13 18/30/13 19/32/13 26/33/13
f 26/33/14 19/32/14 20/34/14 27/35/14
f 16/36/15 15/37/15 21/38/15 20/39/15 19/40/15 18/41/15 17/42/15
f 27/35/16 20/34/16 21/43/16 28/44/16
f 28/44/17 21/43/17 15/45/17 22/46/17
f 22/46/18 23/27/18 24/29/18 25/31/18 26/33/18 27/35/18 28/44/18
o Cylinder.116
v 0.107343 1.051615 -0.219287
v 0.283415 1.052977 -0.131447
v 0.327164 1.056188 0.066452
v 0.205647 1.058830 0.225387
v 0.010368 1.058914 0.225677
v -0.111624 1.056376 0.067104
v -0.068466 1.053128 -0.130924
v 0.106756 0.719657 -0.474045
v 0.480428 0.722547 -0.287624
v 0.573276 0.729361 0.132371
v 0.315383 0.734969 0.469674
v -0.099053 0.735147 0.470290
v -0.357952 0.729762 0.133754
v -0.266359 0.722868 -0.286514
vn 0.3643 0.5666 -0.7391
vn 0.8025 0.5667 -0.1866
vn 0.6483 0.5862 0.4859
vn 0.0014 0.6025 0.7981
vn -0.6462 0.5869 0.4878
vn 0.0004 0.9999 -0.0163
vn -0.8024 0.5676 -0.1842
vn -0.3660 0.5670 -0.7379
vn -0.0004 -0.9999 0.0163
vt 1.000000 0.500000
vt 1.000000 1.000000
vt 0.857143 1.000000
vt 0.857143 0.500000
vt 0.714286 1.000000
vt 0.714286 0.500000
vt 0.571429 1.000000
vt 0.571429 0.500000
vt 0.428571 1.000000
vt 0.428571 0.500000
vt 0.285714 1.000000
vt 0.285714 0.500000
vt 0.437640 0.399638
vt 0.250000 0.490000
vt 0.062360 0.399638
vt 0.016017 0.196595
vt 0.145868 0.033767
vt 0.354132 0.033767
vt 0.483983 0.196595
vt 0.142857 1.000000
vt 0.142857 0.500000
vt 0.000000 1.000000
vt 0.000000 0.500000
s 0
usemtl Material.063
f 36/47/19 29/48/19 30/49/19 37/50/19
f 37/50/20 30/49/20 31/51/20 38/52/20
f 38/52/21 31/51/21 32/53/21 39/54/21
f 39/54/22 32/53/22 33/55/22 40/56/22
f 40/56/23 33/55/23 34/57/23 41/58/23
f 30/59/24 29/60/24 35/61/24 34/62/24 33/63/24 32/64/24 31/65/24
f 41/58/25 34/57/25 35/66/25 42/67/25
f 42/67/26 35/66/26 29/68/26 36/69/26
f 36/69/27 37/50/27 38/52/27 39/54/27 40/56/27 41/58/27 42/67/27
o Cylinder.115
v 0.107599 0.903015 -0.271535
v 0.315957 0.907880 -0.167207
v 0.367418 0.918813 0.067215
v 0.223229 0.927580 0.255208
v -0.008031 0.927580 0.255208
v -0.152220 0.918813 0.067215
v -0.100759 0.907880 -0.167207
v 0.107599 0.490157 -0.541270
v 0.539269 0.500237 -0.325127
v 0.645882 0.522887 0.160543
v 0.347158 0.541051 0.550019
v -0.131960 0.541051 0.550019
v -0.430685 0.522887 0.160543
v -0.324071 0.500237 -0.325127
vn 0.3765 0.5067 -0.7756
vn 0.8226 0.5302 -0.2053
vn 0.6605 0.5776 0.4797
vn -0.0000 0.6065 0.7951
vn -0.6605 0.5776 0.4797
vn -0.0000 0.9989 -0.0466
vn -0.8226 0.5302 -0.2053
vn -0.3765 0.5067 -0.7756
vn -0.0000 -0.9989 0.0466
vt 1.000000 0.500000
vt 1.000000 1.000000
vt 0.857143 1.000000
vt 0.857143 0.500000
vt 0.714286 1.000000
vt 0.714286 0.500000
vt 0.571429 1.000000
vt 0.571429 0.500000
vt 0.428571 1.000000
vt 0.428571 0.500000
vt 0.285714 1.000000
vt 0.285714 0.500000
vt 0.437640 0.399638
vt 0.250000 0.490000
vt 0.062360 0.399638
vt 0.016017 0.196595
vt 0.145868 0.033767
vt 0.354132 0.033767
vt 0.483983 0.196595
vt 0.142857 1.000000
vt 0.142857 0.500000
vt 0.000000 1.000000
vt 0.000000 0.500000
s 0
usemtl Material.063
f 50/70/28 43/71/28 44/72/28 51/73/28
f 51/73/29 44/72/29 45/74/29 52/75/29
f 52/75/30 45/74/30 46/76/30 53/77/30
f 53/77/31 46/76/31 47/78/31 54/79/31
f 54/79/32 47/78/32 48/80/32 55/81/32
f 44/82/33 43/83/33 49/84/33 48/85/33 47/86/33 46/87/33 45/88/33
f 55/81/34 48/80/34 49/89/34 56/90/34
f 56/90/35 49/89/35 43/91/35 50/92/35
f 50/92/36 51/73/36 52/75/36 53/77/36 54/79/36 55/81/36 56/90/36
o Cylinder.114
v 0.107599 0.270499 -0.438501
v 0.107599 0.709714 -0.342737
v 0.451186 0.270499 -0.266449
v 0.379182 0.709714 -0.206741
v 0.536044 0.270499 0.120149
v 0.446257 0.709714 0.098839
v 0.298275 0.270499 0.430176
v 0.258316 0.709714 0.343895
v -0.083077 0.270499 0.430176
v -0.043118 0.709714 0.343895
v -0.320847 0.270499 0.120149
v -0.231059 0.709714 0.098839
v -0.235988 0.270499 -0.266449
v -0.163984 0.709714 -0.206741
v 0.107599 0.270499 -0.601506
v 0.573747 0.270499 -0.368081
v 0.688876 0.270499 0.156421
v 0.366291 0.270499 0.577038
v -0.151094 0.270499 0.577038
v -0.473678 0.270499 0.156421
v -0.358549 0.270499 -0.368081
v 0.107599 0.615722 -0.349194
v 0.384036 0.615722 -0.210767
v 0.452311 0.615722 0.100276
v 0.261010 0.615722 0.349713
v -0.045812 0.615722 0.349713
v -0.237113 0.615722 0.100276
v -0.168839 0.615722 -0.210767
vn 0.3961 0.4661 -0.7911
vn 0.8696 0.4553 -0.1909
vn 0.7046 0.4600 0.5403
vn -0.0000 0.4689 0.8833
vn -0.7046 0.4600 0.5403
vn -0.0000 1.0000 -0.0000
vn -0.8696 0.4553 -0.1909
vn -0.3961 0.4661 -0.7911
vn 0.4362 -0.2254 0.8712
vn -0.0000 -1.0000 -0.0000
vn 0.7737 -0.2218 -0.5934
vn -0.7737 -0.2218 -0.5934
vn -0.4362 -0.2254 0.8712
vn 0.9530 -0.2191 0.2092
vn -0.0000 -0.2270 -0.9739
vn -0.9530 -0.2191 0.2092
vt 1.000000 0.500000
vt 1.000000 1.000000
vt 0.857143 1.000000
vt 0.857143 0.500000
vt 0.714286 1.000000
vt 0.714286 0.500000
vt 0.571429 1.000000
vt 0.571429 0.500000
vt 0.428571 1.000000
vt 0.428571 0.500000
vt 0.285714 1.000000
vt 0.285714 0.500000
vt 0.437640 0.399638
vt 0.250000 0.490000
vt 0.062360 0.399638
vt 0.016017 0.196595
vt 0.145868 0.033767
vt 0.354132 0.033767
vt 0.483983 0.196595
vt 0.142857 1.000000
vt 0.142857 0.500000
vt 0.000000 1.000000
vt 0.000000 0.500000
vt 0.611695 0.360294
vt 0.750000 0.426898
vt 0.888305 0.360294
vt 0.750000 0.490000
vt 0.937640 0.399638
vt 0.922463 0.210636
vt 0.983983 0.196595
vt 0.826753 0.090620
vt 0.854132 0.033767
vt 0.673247 0.090620
vt 0.645868 0.033767
vt 0.577537 0.210636
vt 0.516017 0.196595
vt 0.562360 0.399638
s 0
usemtl Material.063
f 71/93/37 58/94/37 60/95/37 72/96/37
f 72/96/38 60/95/38 62/97/38 73/98/38
f 73/98/39 62/97/39 64/99/39 74/100/39
f 74/100/40 64/99/40 66/101/40 75/102/40
f 75/102/41 66/101/41 68/103/41 76/104/41
f 60/105/42 58/106/42 70/107/42 68/108/42 66/109/42 64/110/42 62/111/42
f 76/104/43 68/103/43 70/112/43 77/113/43
f 77/113/44 70/112/44 58/114/44 71/115/44
f 69/116/45 57/117/45 78/117/45 84/116/45
f 59/118/46 57/117/46 71/119/46 72/120/46
f 61/121/46 59/118/46 72/120/46 73/122/46
f 63/123/46 61/121/46 73/122/46 74/124/46
f 65/125/46 63/123/46 74/124/46 75/126/46
f 67/127/46 65/125/46 75/126/46 76/128/46
f 69/116/46 67/127/46 76/128/46 77/129/46
f 57/117/46 69/116/46 77/129/46 71/119/46
f 78/117/46 79/118/46 80/121/46 81/123/46 82/125/46 83/127/46 84/116/46
f 65/125/47 67/127/47 83/127/47 82/125/47
f 61/121/48 63/123/48 81/123/48 80/121/48
f 57/117/49 59/118/49 79/118/49 78/117/49
f 67/127/50 69/116/50 84/116/50 83/127/50
f 63/123/51 65/125/51 82/125/51 81/123/51
f 59/118/52 61/121/52 80/121/52 79/118/52
o Cylinder.113
v 0.107599 0.031243 -0.278158
v 0.107599 0.488051 -0.189120
v 0.339508 0.031243 -0.166477
v 0.269895 0.488051 -0.110963
v 0.396785 0.031243 0.084469
v 0.309979 0.488051 0.064656
v 0.236299 0.031243 0.285712
v 0.197667 0.488051 0.205492
v -0.021101 0.031243 0.285712
v 0.017531 0.488051 0.205492
v -0.181587 0.031243 0.084469
v -0.094781 0.488051 0.064656
v -0.124310 0.031243 -0.166477
v -0.054697 0.488051 -0.110963
vn 0.4273 0.1730 -0.8874
vn 0.9602 0.1730 -0.2192
vn 0.7700 0.1730 0.6141
vn -0.0000 0.1730 0.9849
vn -0.7700 0.1730 0.6141
vn -0.0000 1.0000 -0.0000
vn -0.9602 0.1730 -0.2192
vn -0.4273 0.1730 -0.8874
vn -0.0000 -1.0000 -0.0000
vt 1.000000 0.500000
vt 1.000000 1.000000
vt 0.857143 1.000000
vt 0.857143 0.500000
vt 0.714286 1.000000
vt 0.714286 0.500000
vt 0.571429 1.000000
vt 0.571429 0.500000
vt 0.428571 1.000000
vt 0.428571 0.500000
vt 0.285714 1.000000
vt 0.285714 0.500000
vt 0.437640 0.399638
vt 0.250000 0.490000
vt 0.062360 0.399638
vt 0.016017 0.196595
vt 0.145868 0.033767
vt 0.354132 0.033767
vt 0.483983 0.196595
vt 0.142857 1.000000
vt 0.142857 0.500000
vt 0.000000 1.000000
vt 0.000000 0.500000
vt 0.750000 0.490000
vt 0.937640 0.399638
vt 0.983983 0.196595
vt 0.854132 0.033767
vt 0.645868 0.033767
vt 0.516017 0.196595
vt 0.562360 0.399638
s 0
usemtl Material.064
f 85/130/53 86/131/53 88/132/53 87/133/53
f 87/133/54 88/132/54 90/134/54 89/135/54
f 89/135/55 90/134/55 92/136/55 91/137/55
f 91/137/56 92/136/56 94/138/56 93/139/56
f 93/139/57 94/138/57 96/140/57 95/141/57
f 88/142/58 86/143/58 98/144/58 96/145/58 94/146/58 92/147/58 90/148/58
f 95/141/59 96/140/59 98/149/59 97/150/59
f 97/150/60 98/149/60 86/151/60 85/152/60
f 85/153/61 87/154/61 89/155/61 91/156/61 93/157/61 95/158/61 97/159/61
