# Blender 4.4.3
# www.blender.org
mtllib connector1A(F121).mtl
o Plane
v -0.839514 0.000000 -12.758375
v 0.259604 0.000000 12.764290
v 0.201213 12.612247 -12.758375
v -1.110347 13.118765 12.764290
v 0.611222 12.863235 -12.758375
v 0.758163 11.576911 -12.758375
v 0.248744 10.290587 -12.758375
v -1.203440 9.004265 -12.758375
v 0.215370 7.717941 -12.758375
v -0.605629 6.431617 -12.758375
v -0.885049 5.145294 -12.758375
v 0.865870 3.858971 -12.758375
v 0.503487 2.572647 -12.758375
v -0.812733 1.286324 -12.758375
v -0.636768 0.000000 -10.438133
v -0.743716 0.000000 -8.117891
v 0.541007 0.000000 -5.797647
v 0.795892 0.000000 -3.477405
v 0.884844 0.000000 -1.157163
v -0.673595 0.000000 1.163079
v 0.426776 0.000000 3.483321
v 0.397162 0.000000 5.803564
v -1.093032 0.000000 8.123806
v -0.909134 0.000000 10.444050
v -0.932731 1.286324 12.764290
v 0.428937 2.572647 12.764290
v -1.110707 3.858971 12.764290
v 0.972573 5.145294 12.764290
v -0.797423 6.431617 12.764290
v -0.600152 7.717941 12.764290
v 0.921282 9.004265 12.764290
v 0.908371 10.290587 12.764290
v 0.724860 11.576911 12.764290
v -0.937137 12.863235 12.764290
v 0.696590 13.766123 10.444050
v -0.639382 14.149558 8.123806
v 0.563956 14.643536 5.803564
v 0.263923 14.149558 3.483321
v 0.623988 13.730200 1.163079
v 0.407482 14.584754 -1.157163
v -1.205006 14.149558 -3.477405
v 0.501385 13.701485 -5.797647
v 0.865461 14.149558 -8.117891
v -0.949398 13.701485 -10.438133
v 0.619983 1.286324 -10.438133
v 0.585283 2.572647 -10.438133
v 0.609576 3.858971 -10.438133
v -0.760799 5.145294 -10.438133
v -1.262366 6.431617 -10.438133
v 0.494903 7.717941 -10.438133
v 0.471166 9.004265 -10.438133
v -0.891290 10.290587 -10.438133
v 0.579418 11.576911 -10.438133
v -0.793542 12.863235 -10.438133
v -0.643126 1.286324 -8.117891
v 0.291385 2.572647 -8.117891
v 0.721578 3.858971 -8.117891
v 0.804790 5.145294 -8.117891
v 0.211989 6.431617 -8.117891
v 0.694664 7.717941 -8.117891
v 0.578370 9.004265 -8.117891
v 0.620974 10.290587 -8.117891
v 0.587504 11.576911 -8.117891
v 0.907671 12.863235 -8.117891
v 0.507607 1.286324 -5.797647
v -0.704691 2.572647 -5.797647
v 0.455855 3.858971 -5.797647
v -0.811527 5.145294 -5.797647
v -1.129779 6.431617 -5.797647
v 0.751288 7.717941 -5.797647
v -0.568495 9.004265 -5.797647
v -0.823258 10.290587 -5.797647
v 0.808877 11.576911 -5.797647
v -1.253380 12.863235 -5.797647
v 0.263722 1.286324 -3.477405
v 0.547456 2.572647 -3.477405
v 0.921728 3.858971 -3.477405
v 0.694837 5.145294 -3.477405
v -1.084876 6.431617 -3.477405
v 0.499674 7.717941 -3.477405
v -0.998663 9.004265 -3.477405
v -0.625432 10.290587 -3.477405
v 0.311318 11.576911 -3.477405
v 0.757457 12.863235 -3.477405
v 0.691432 1.286324 -1.157163
v 0.374774 2.572647 -1.157163
v -0.655778 3.858971 -1.157163
v -0.897954 5.145294 -1.157163
v -0.985736 6.431617 -1.157163
v -0.592180 7.717941 -1.157163
v -0.917917 9.372900 -1.157163
v -1.186117 10.290587 -2.140558
v 0.391492 11.576911 -1.157163
v -1.249619 12.863235 -1.157163
v 0.205613 1.286324 1.163079
v 0.417413 2.572647 1.163079
v 0.310461 3.858971 1.163079
v -0.658847 5.145294 1.163079
v 0.674405 6.431618 1.163079
v 0.731133 7.717941 1.163079
v 0.206045 9.004265 1.163079
v 0.981483 10.290587 1.720798
v 0.848826 11.576911 1.163079
v 0.421034 12.863235 1.163079
v -1.178020 1.286324 3.483321
v 0.940667 2.572647 3.483321
v -1.286031 3.858971 3.483321
v -0.762873 5.145294 3.483321
v -1.015144 6.431617 3.483321
v 0.345656 7.717941 3.483321
v -0.837816 9.004265 3.483321
v 0.930251 10.290587 3.483321
v 0.889021 11.576911 3.483321
v 0.967627 12.863235 3.483321
v -1.192263 1.286324 5.803564
v 0.615442 2.572647 5.803564
v 0.839311 3.858971 5.803564
v 0.869760 5.145294 5.803564
v 0.482100 6.431617 5.803564
v -0.857527 7.717941 5.803564
v -0.572736 9.004265 5.803564
v 0.707817 10.290587 5.803564
v -1.087838 11.576911 5.803564
v 0.496837 12.863235 5.803564
v 0.521160 1.286324 8.123806
v 0.865995 2.572647 8.123806
v -1.247172 3.858971 8.123806
v -0.698257 5.145294 8.123806
v -0.726635 6.431617 8.123806
v -0.720775 7.717941 8.123806
v 0.206205 9.004265 8.123806
v 0.938874 10.290587 8.123806
v -0.592365 11.576911 8.123806
v 0.364689 12.863235 8.123806
v 0.719804 1.286324 10.444050
v 0.965956 2.572647 10.444050
v -0.768864 3.858971 10.444050
v -1.131909 5.145294 10.444050
v 0.339324 6.431617 10.444050
v -0.860090 7.717941 10.444050
v 0.354864 9.004265 10.444050
v 0.333369 10.290587 10.444050
v 0.899949 11.576911 10.444050
v 0.980657 12.863235 10.444050
vn -0.7271 -0.2870 -0.6237
vn -0.7012 -0.6757 -0.2275
vn -0.7914 -0.0738 0.6068
vn -0.7318 0.5899 -0.3413
vn -0.9925 -0.0970 0.0745
vn -0.9921 -0.1007 -0.0749
vn -0.7439 0.5346 0.4010
vn -0.9723 -0.2261 0.0595
vn -0.9790 -0.2032 -0.0144
vn -0.9144 -0.2794 -0.2929
vn -0.8207 -0.4829 0.3053
vn -0.8534 0.4258 0.3008
vn -0.8592 0.4280 0.2804
vn -0.9882 0.1485 -0.0372
vn -0.6359 -0.7715 -0.0181
vn -0.9898 -0.0855 -0.1136
vn -0.7052 0.7067 -0.0573
vn -0.8188 -0.4591 0.3448
vn -0.9928 0.0346 0.1144
vn -0.7731 0.5950 -0.2197
vn -0.8261 -0.4880 -0.2819
vn -0.8558 0.4515 -0.2527
vn -0.8999 0.3147 -0.3019
vn -0.9840 0.1738 -0.0386
vn -0.8509 -0.4257 0.3076
vn -0.7881 -0.3352 0.5163
vn -0.7277 0.6336 0.2625
vn -0.9964 -0.0542 0.0659
vn -0.8497 -0.4359 0.2965
vn -0.8393 0.4689 0.2750
vn -0.8760 -0.3585 0.3227
vn -0.8852 0.0231 0.4646
vn -0.9937 -0.1073 0.0331
vn -0.8287 0.5124 -0.2253
vn -0.8524 -0.3923 -0.3457
vn -0.8080 -0.2861 -0.5151
vn -0.7215 0.6629 -0.1998
vn -0.8554 -0.4775 -0.2010
vn -0.8709 -0.0718 -0.4863
vn -0.8289 0.5151 -0.2184
vn -0.7825 -0.5299 -0.3271
vn -0.9767 -0.2147 0.0023
vn -0.9216 -0.3326 0.2002
vn -0.8184 0.4883 0.3030
vn -0.8116 -0.4714 0.3450
vn -0.7502 -0.6118 0.2508
vn -0.5958 0.8027 -0.0265
vn -0.6709 -0.7349 -0.0986
vn -0.9977 0.0459 -0.0500
vn -0.7069 0.7059 -0.0457
vn -0.8162 -0.5128 0.2662
vn -0.9570 -0.2699 0.1065
vn -0.9984 -0.0128 0.0549
vn -0.9101 -0.2322 -0.3432
vn -0.8165 -0.1489 -0.5578
vn -0.7831 -0.5685 -0.2521
vn -0.7816 0.6010 -0.1672
vn -0.8412 -0.5217 -0.1419
vn -0.9916 -0.0103 -0.1291
vn -0.6945 0.7137 -0.0913
vn -0.8487 -0.3942 -0.3524
vn -0.8891 0.2370 -0.3917
vn -0.9947 -0.0405 -0.0950
vn -0.8970 -0.3966 0.1950
vn -0.8807 -0.4147 0.2288
vn -0.8446 0.4089 0.3457
vn -0.8322 0.1457 0.5350
vn -0.8645 -0.2501 0.4360
vn -0.8395 0.2828 0.4639
vn -0.8387 0.4121 0.3561
vn -0.7338 -0.5901 0.3365
vn -0.9608 -0.2710 -0.0586
vn -0.7342 0.6651 -0.1361
vn -0.7300 -0.6622 -0.1688
vn -0.9267 -0.1607 -0.3396
vn -0.8684 0.3649 -0.3357
vn -0.8155 0.4494 -0.3647
vn -0.8069 -0.5359 -0.2485
vn -0.6792 0.7110 -0.1822
vn -0.9977 -0.0680 -0.0027
vn -0.9832 -0.1335 0.1243
vn -0.6272 -0.7788 -0.0059
vn -0.5476 0.8358 -0.0401
vn -0.7545 -0.5874 0.2927
vn -0.7665 0.1649 0.6207
vn -0.8120 -0.2020 0.5476
vn -0.9980 0.0082 0.0632
vn -0.9273 -0.3239 -0.1875
vn -0.6449 0.7642 0.0059
vn -0.7593 -0.5422 -0.3599
vn -0.7678 0.4964 -0.4050
vn -0.9988 0.0096 0.0480
vn -0.7295 0.6104 0.3087
vn -0.7679 -0.5639 -0.3038
vn -0.7736 0.1742 -0.6092
vn -0.8500 -0.1375 -0.5086
vn -0.8697 -0.4509 -0.2009
vn -0.8906 0.4195 0.1757
vn -0.7762 0.6074 0.1689
vn -0.6089 -0.7875 0.0953
vn -0.7103 0.7017 0.0556
vn -0.6207 0.7824 0.0512
vn -0.9727 0.2234 0.0626
vn -0.5545 -0.8293 0.0691
vn -0.9974 0.0721 0.0096
vn -0.8661 0.4857 0.1180
vn -0.8926 -0.4141 0.1782
vn -0.7685 0.6398 0.0015
vn -0.9595 0.2653 -0.0945
vn -0.9217 -0.3456 0.1761
vn -0.8546 0.3447 0.3883
vn -0.9807 0.1664 -0.1022
vn -0.7873 0.4921 -0.3715
vn -0.6136 -0.7810 -0.1162
vn -0.7927 0.5301 0.3011
vn -0.9727 -0.1130 0.2028
vn -0.9177 -0.3575 -0.1734
vn -0.6799 0.7232 0.1211
vn -0.9710 -0.0130 0.2388
vn -0.9855 0.1467 0.0849
vn -0.7953 -0.4888 -0.3587
vt 0.909091 0.909091
vt 1.000000 0.909091
vt 1.000000 1.000000
vt 0.909091 1.000000
vt 0.000000 0.909091
vt 0.090909 0.909091
vt 0.090909 1.000000
vt 0.000000 1.000000
vt 0.181818 0.909091
vt 0.181818 1.000000
vt 0.272727 0.909091
vt 0.272727 1.000000
vt 0.363636 0.909091
vt 0.363636 1.000000
vt 0.454545 0.909091
vt 0.454545 1.000000
vt 0.545455 0.909091
vt 0.545455 1.000000
vt 0.636364 0.909091
vt 0.636364 1.000000
vt 0.727273 0.909091
vt 0.727273 1.000000
vt 0.818182 0.909091
vt 0.818182 1.000000
vt 0.000000 0.000000
vt 0.090909 0.000000
vt 0.090909 0.090909
vt 0.000000 0.090909
vt 0.090909 0.181818
vt 0.000000 0.181818
vt 0.090909 0.272727
vt 0.000000 0.272727
vt 0.090909 0.363636
vt 0.000000 0.363636
vt 0.090909 0.454545
vt 0.000000 0.454545
vt 0.090909 0.545455
vt 0.000000 0.545455
vt 0.090909 0.636364
vt 0.000000 0.636364
vt 0.090909 0.727273
vt 0.000000 0.727273
vt 0.090909 0.818182
vt 0.000000 0.818182
vt 0.181818 0.000000
vt 0.181818 0.090909
vt 0.181818 0.181818
vt 0.181818 0.272727
vt 0.181818 0.363636
vt 0.181818 0.454545
vt 0.181818 0.545455
vt 0.181818 0.636364
vt 0.181818 0.727273
vt 0.181818 0.818182
vt 0.272727 0.000000
vt 0.272727 0.090909
vt 0.272727 0.181818
vt 0.272727 0.272727
vt 0.272727 0.363636
vt 0.272727 0.454545
vt 0.272727 0.545455
vt 0.272727 0.636364
vt 0.272727 0.727273
vt 0.272727 0.818182
vt 0.363636 0.000000
vt 0.363636 0.090909
vt 0.363636 0.181818
vt 0.363636 0.272727
vt 0.363636 0.363636
vt 0.363636 0.454545
vt 0.363636 0.545455
vt 0.363636 0.636364
vt 0.363636 0.727273
vt 0.363636 0.818182
vt 0.454545 0.000000
vt 0.454545 0.090909
vt 0.454545 0.181818
vt 0.454545 0.272727
vt 0.454545 0.363636
vt 0.454545 0.454545
vt 0.454545 0.545455
vt 0.454545 0.636364
vt 0.454545 0.727273
vt 0.454545 0.818182
vt 0.545455 0.000000
vt 0.545455 0.090909
vt 0.545455 0.181818
vt 0.545455 0.272727
vt 0.545455 0.363636
vt 0.545455 0.454545
vt 0.545455 0.545455
vt 0.545455 0.636364
vt 0.545455 0.727273
vt 0.545455 0.818182
vt 0.636364 0.000000
vt 0.636364 0.090909
vt 0.636364 0.181818
vt 0.636364 0.272727
vt 0.636364 0.363636
vt 0.636364 0.454545
vt 0.636364 0.545455
vt 0.636364 0.636364
vt 0.636364 0.727273
vt 0.636364 0.818182
vt 0.727273 0.000000
vt 0.727273 0.090909
vt 0.727273 0.181818
vt 0.727273 0.272727
vt 0.727273 0.363636
vt 0.727273 0.454545
vt 0.727273 0.545455
vt 0.727273 0.636364
vt 0.727273 0.727273
vt 0.727273 0.818182
vt 0.818182 0.000000
vt 0.818182 0.090909
vt 0.818182 0.181818
vt 0.818182 0.272727
vt 0.818182 0.363636
vt 0.818182 0.454545
vt 0.818182 0.545455
vt 0.818182 0.636364
vt 0.818182 0.727273
vt 0.818182 0.818182
vt 0.909091 0.000000
vt 0.909091 0.090909
vt 0.909091 0.181818
vt 0.909091 0.272727
vt 0.909091 0.363636
vt 0.909091 0.454545
vt 0.909091 0.545455
vt 0.909091 0.636364
vt 0.909091 0.727273
vt 0.909091 0.818182
vt 1.000000 0.000000
vt 1.000000 0.090909
vt 1.000000 0.181818
vt 1.000000 0.272727
vt 1.000000 0.363636
vt 1.000000 0.454545
vt 1.000000 0.545455
vt 1.000000 0.636364
vt 1.000000 0.727273
vt 1.000000 0.818182
s 0
usemtl Material.001
f 144/1/1 34/2/1 4/3/1 35/4/1
f 5/5/2 54/6/2 44/7/2 3/8/2
f 54/6/3 64/9/3 43/10/3 44/7/3
f 64/9/4 74/11/4 42/12/4 43/10/4
f 74/11/5 84/13/5 41/14/5 42/12/5
f 84/13/6 94/15/6 40/16/6 41/14/6
f 94/15/7 104/17/7 39/18/7 40/16/7
f 104/17/8 114/19/8 38/20/8 39/18/8
f 114/19/9 124/21/9 37/22/9 38/20/9
f 124/21/10 134/23/10 36/24/10 37/22/10
f 134/23/11 144/1/11 35/4/11 36/24/11
f 1/25/12 15/26/12 45/27/12 14/28/12
f 14/28/13 45/27/13 46/29/13 13/30/13
f 13/30/14 46/29/14 47/31/14 12/32/14
f 12/32/15 47/31/15 48/33/15 11/34/15
f 11/34/16 48/33/16 49/35/16 10/36/16
f 10/36/17 49/35/17 50/37/17 9/38/17
f 9/38/18 50/37/18 51/39/18 8/40/18
f 8/40/19 51/39/19 52/41/19 7/42/19
f 7/42/20 52/41/20 53/43/20 6/44/20
f 6/44/21 53/43/21 54/6/21 5/5/21
f 15/26/22 16/45/22 55/46/22 45/27/22
f 45/27/23 55/46/23 56/47/23 46/29/23
f 46/29/24 56/47/24 57/48/24 47/31/24
f 47/31/25 57/48/25 58/49/25 48/33/25
f 48/33/26 58/49/26 59/50/26 49/35/26
f 49/35/27 59/50/27 60/51/27 50/37/27
f 50/37/28 60/51/28 61/52/28 51/39/28
f 51/39/29 61/52/29 62/53/29 52/41/29
f 52/41/30 62/53/30 63/54/30 53/43/30
f 53/43/31 63/54/31 64/9/31 54/6/31
f 16/45/32 17/55/32 65/56/32 55/46/32
f 55/46/33 65/56/33 66/57/33 56/47/33
f 56/47/34 66/57/34 67/58/34 57/48/34
f 57/48/35 67/58/35 68/59/35 58/49/35
f 58/49/36 68/59/36 69/60/36 59/50/36
f 59/50/37 69/60/37 70/61/37 60/51/37
f 60/51/38 70/61/38 71/62/38 61/52/38
f 61/52/39 71/62/39 72/63/39 62/53/39
f 62/53/40 72/63/40 73/64/40 63/54/40
f 63/54/41 73/64/41 74/11/41 64/9/41
f 17/55/42 18/65/42 75/66/42 65/56/42
f 65/56/43 75/66/43 76/67/43 66/57/43
f 66/57/44 76/67/44 77/68/44 67/58/44
f 67/58/45 77/68/45 78/69/45 68/59/45
f 68/59/46 78/69/46 79/70/46 69/60/46
f 69/60/47 79/70/47 80/71/47 70/61/47
f 70/61/48 80/71/48 81/72/48 71/62/48
f 71/62/49 81/72/49 82/73/49 72/63/49
f 72/63/50 82/73/50 83/74/50 73/64/50
f 73/64/51 83/74/51 84/13/51 74/11/51
f 18/65/52 19/75/52 85/76/52 75/66/52
f 75/66/53 85/76/53 86/77/53 76/67/53
f 76/67/54 86/77/54 87/78/54 77/68/54
f 77/68/55 87/78/55 88/79/55 78/69/55
f 78/69/56 88/79/56 89/80/56 79/70/56
f 79/70/57 89/80/57 90/81/57 80/71/57
f 80/71/58 90/81/58 91/82/58 81/72/58
f 81/72/59 91/82/59 92/83/59 82/73/59
f 82/73/60 92/83/60 93/84/60 83/74/60
f 83/74/61 93/84/61 94/15/61 84/13/61
f 19/75/62 20/85/62 95/86/62 85/76/62
f 85/76/63 95/86/63 96/87/63 86/77/63
f 86/77/64 96/87/64 97/88/64 87/78/64
f 87/78/65 97/88/65 98/89/65 88/79/65
f 88/79/66 98/89/66 99/90/66 89/80/66
f 89/80/67 99/90/67 100/91/67 90/81/67
f 90/81/68 100/91/68 101/92/68 91/82/68
f 91/82/69 101/92/69 102/93/69 92/83/69
f 92/83/70 102/93/70 103/94/70 93/84/70
f 93/84/71 103/94/71 104/17/71 94/15/71
f 20/85/72 21/95/72 105/96/72 95/86/72
f 95/86/73 105/96/73 106/97/73 96/87/73
f 96/87/74 106/97/74 107/98/74 97/88/74
f 97/88/75 107/98/75 108/99/75 98/89/75
f 98/89/76 108/99/76 109/100/76 99/90/76
f 99/90/77 109/100/77 110/101/77 100/91/77
f 100/91/78 110/101/78 111/102/78 101/92/78
f 101/92/79 111/102/79 112/103/79 102/93/79
f 102/93/80 112/103/80 113/104/80 103/94/80
f 103/94/81 113/104/81 114/19/81 104/17/81
f 21/95/82 22/105/82 115/106/82 105/96/82
f 105/96/83 115/106/83 116/107/83 106/97/83
f 106/97/84 116/107/84 117/108/84 107/98/84
f 107/98/85 117/108/85 118/109/85 108/99/85
f 108/99/86 118/109/86 119/110/86 109/100/86
f 109/100/87 119/110/87 120/111/87 110/101/87
f 110/101/88 120/111/88 121/112/88 111/102/88
f 111/102/89 121/112/89 122/113/89 112/103/89
f 112/103/90 122/113/90 123/114/90 113/104/90
f 113/104/91 123/114/91 124/21/91 114/19/91
f 22/105/92 23/115/92 125/116/92 115/106/92
f 115/106/93 125/116/93 126/117/93 116/107/93
f 116/107/94 126/117/94 127/118/94 117/108/94
f 117/108/95 127/118/95 128/119/95 118/109/95
f 118/109/96 128/119/96 129/120/96 119/110/96
f 119/110/97 129/120/97 130/121/97 120/111/97
f 120/111/98 130/121/98 131/122/98 121/112/98
f 121/112/99 131/122/99 132/123/99 122/113/99
f 122/113/100 132/123/100 133/124/100 123/114/100
f 123/114/101 133/124/101 134/23/101 124/21/101
f 23/115/102 24/125/102 135/126/102 125/116/102
f 125/116/103 135/126/103 136/127/103 126/117/103
f 126/117/104 136/127/104 137/128/104 127/118/104
f 127/118/105 137/128/105 138/129/105 128/119/105
f 128/119/106 138/129/106 139/130/106 129/120/106
f 129/120/107 139/130/107 140/131/107 130/121/107
f 130/121/108 140/131/108 141/132/108 131/122/108
f 131/122/109 141/132/109 142/133/109 132/123/109
f 132/123/110 142/133/110 143/134/110 133/124/110
f 133/124/111 143/134/111 144/1/111 134/23/111
f 24/125/112 2/135/112 25/136/112 135/126/112
f 135/126/113 25/136/113 26/137/113 136/127/113
f 136/127/114 26/137/114 27/138/114 137/128/114
f 137/128/115 27/138/115 28/139/115 138/129/115
f 138/129/116 28/139/116 29/140/116 139/130/116
f 139/130/117 29/140/117 30/141/117 140/131/117
f 140/131/118 30/141/118 31/142/118 141/132/118
f 141/132/119 31/142/119 32/143/119 142/133/119
f 142/133/120 32/143/120 33/144/120 143/134/120
f 143/134/121 33/144/121 34/2/121 144/1/121
