# Blender 4.0.1
# www.blender.org
mtllib other1(F62).mtl
o Cylinder.005
v 0.000000 0.366637 -0.671719
v 0.392067 0.366637 -0.638843
v 0.745757 0.366637 -0.543432
v 1.026446 0.366637 -0.394827
v 1.206660 0.366637 -0.207573
v 1.268757 0.366637 0.000000
v 1.206660 0.366637 0.207573
v 1.026446 0.366637 0.394827
v 0.745757 0.366637 0.543432
v 0.392067 0.366637 0.638843
v 0.000000 0.366637 0.671719
v -0.392067 0.366637 0.638843
v -0.745757 0.366637 0.543432
v -1.026446 0.366637 0.394827
v -1.206660 0.366637 0.207573
v -1.268757 0.366637 0.000000
v -1.206660 0.366637 -0.207573
v -1.026446 0.366637 -0.394827
v -0.745757 0.366637 -0.543432
v -0.392067 0.366637 -0.638843
v -0.591585 1.115592 0.963942
v -0.468201 -0.001639 0.762897
v -1.125262 1.115592 0.819978
v -0.890572 -0.001639 0.648959
v -1.548791 1.115592 0.595749
v -1.225767 -0.001639 0.471496
v -1.820712 1.115592 0.313204
v -1.440976 -0.001639 0.247880
v -1.914410 1.115592 0.000000
v -1.515132 -0.001639 -0.000000
v -1.820712 1.115592 -0.313204
v -1.440976 -0.001639 -0.247880
v -1.548791 1.115592 -0.595749
v -1.225767 -0.001639 -0.471496
v -1.125262 1.115592 -0.819978
v -0.890572 -0.001639 -0.648959
v 0.000000 -0.001639 -0.802158
v -0.000000 1.115592 -1.013548
v -0.591585 1.115592 -0.963942
v -0.468201 -0.001639 -0.762897
v -0.000000 1.093700 -0.965803
v 0.563718 1.093700 -0.918533
v 1.072255 1.093700 -0.781351
v 1.475832 1.093700 -0.567685
v 1.734945 1.093700 -0.298450
v 1.824229 1.093700 0.000000
v 1.734945 1.093700 0.298450
v 1.475832 1.093700 0.567685
v 1.072255 1.093700 0.781351
v 0.563718 1.093700 0.918533
v -0.000000 1.093700 0.965803
v -0.563718 1.093700 0.918533
v -1.072255 1.093700 0.781351
v -1.475832 1.093700 0.567685
v -1.734945 1.093700 0.298450
v -1.824229 1.093700 0.000000
v -1.734945 1.093700 -0.298450
v -1.475832 1.093700 -0.567685
v -1.072255 1.093700 -0.781351
v -0.563718 1.093700 -0.918533
v 0.000000 -0.001639 0.802158
v -0.000000 1.115592 1.013548
v 0.468201 -0.001639 0.762897
v 0.591585 1.115592 0.963942
v 0.890572 -0.001639 0.648959
v 1.125262 1.115592 0.819978
v 1.225767 -0.001639 0.471496
v 1.548791 1.115592 0.595749
v 1.440976 -0.001639 0.247880
v 1.820712 1.115592 0.313204
v 1.515132 -0.001639 -0.000000
v 1.914410 1.115592 0.000000
v 1.440976 -0.001639 -0.247880
v 1.820712 1.115592 -0.313204
v 1.225767 -0.001639 -0.471496
v 1.548791 1.115592 -0.595749
v 0.890572 -0.001639 -0.648959
v 1.125262 1.115592 -0.819978
v 0.468201 -0.001639 -0.762897
v 0.591585 1.115592 -0.963942
vn -0.2390 0.3973 0.8860
vn -0.0000 1.0000 -0.0000
vn -0.0775 0.3738 0.9242
vn 0.0775 0.3738 0.9242
vn 0.2390 0.3973 0.8860
vn 0.4186 0.4467 0.7907
vn 0.6151 0.5209 0.5919
vn 0.7731 0.5906 0.2313
vn 0.7731 0.5906 -0.2313
vn 0.6151 0.5209 -0.5919
vn 0.4186 0.4467 -0.7907
vn 0.2390 0.3973 -0.8860
vn 0.0775 0.3738 -0.9242
vn -0.0775 0.3738 -0.9242
vn -0.2390 0.3973 -0.8860
vn -0.4186 0.4467 -0.7907
vn -0.6151 0.5209 -0.5919
vn -0.7731 0.5906 -0.2313
vn -0.7731 0.5906 0.2313
vn -0.6151 0.5209 0.5919
vn -0.4186 0.4467 0.7907
vn -0.2353 0.9694 0.0704
vn 0.0349 0.9084 -0.4165
vn 0.2095 0.9568 0.2016
vn -0.2353 0.9694 -0.0704
vn 0.1026 0.9192 -0.3802
vn 0.1629 0.9374 0.3077
vn -0.0000 -1.0000 -0.0000
vn -0.2095 0.9568 -0.2016
vn -0.0349 0.9084 0.4165
vn 0.1629 0.9374 -0.3077
vn 0.1026 0.9192 0.3802
vn -0.1026 0.9192 0.3802
vn -0.0821 -0.1853 -0.9792
vn -0.2553 -0.1985 -0.9463
vn -0.4556 -0.2275 -0.8606
vn -0.6928 -0.2745 -0.6668
vn -0.9064 -0.3239 -0.2712
vn -0.9064 -0.3239 0.2712
vn -0.6928 -0.2745 0.6668
vn -0.4556 -0.2275 0.8606
vn -0.2553 -0.1985 0.9463
vn -0.0821 -0.1853 0.9792
vn 0.0821 -0.1853 0.9792
vn 0.2553 -0.1985 0.9463
vn 0.4556 -0.2275 0.8606
vn 0.6928 -0.2745 0.6668
vn 0.9064 -0.3239 0.2712
vn 0.9064 -0.3239 -0.2712
vn 0.6928 -0.2745 -0.6668
vn 0.4556 -0.2275 -0.8606
vn 0.2553 -0.1985 -0.9463
vn 0.0821 -0.1853 -0.9792
vn 0.2353 0.9694 0.0704
vn -0.0349 0.9084 -0.4165
vn -0.2095 0.9568 0.2016
vn 0.2353 0.9694 -0.0704
vn -0.1026 0.9192 -0.3802
vn -0.1629 0.9374 0.3077
vn 0.0349 0.9084 0.4165
vn 0.2095 0.9568 -0.2016
vn -0.1629 0.9374 -0.3077
vt 0.950000 0.922912
vt 0.950000 1.000000
vt 0.900000 1.000000
vt 0.900000 0.922912
vt 0.324164 0.478254
vt 0.250000 0.490000
vt 0.175836 0.478254
vt 0.108932 0.444164
vt 0.055836 0.391068
vt 0.021746 0.324164
vt 0.010000 0.250000
vt 0.021746 0.175836
vt 0.055836 0.108932
vt 0.108932 0.055836
vt 0.175836 0.021746
vt 0.250000 0.010000
vt 0.324164 0.021746
vt 0.391068 0.055836
vt 0.444164 0.108932
vt 0.478254 0.175836
vt 0.490000 0.250000
vt 0.478254 0.324164
vt 0.444164 0.391068
vt 0.391068 0.444164
vt 1.000000 0.922912
vt 1.000000 1.000000
vt 0.950000 0.922912
vt 0.050000 0.922912
vt 0.050000 1.000000
vt -0.000000 1.000000
vt -0.000000 0.922912
vt 0.100000 0.922912
vt 0.100000 1.000000
vt 0.050000 0.922912
vt 0.150000 0.922912
vt 0.150000 1.000000
vt 0.100000 0.922912
vt 0.200000 0.922912
vt 0.200000 1.000000
vt 0.150000 0.922912
vt 0.250000 0.922912
vt 0.250000 1.000000
vt 0.200000 0.922912
vt 0.300000 0.922912
vt 0.300000 1.000000
vt 0.250000 0.922912
vt 0.350000 0.922912
vt 0.350000 1.000000
vt 0.300000 0.922912
vt 0.400000 0.922912
vt 0.400000 1.000000
vt 0.350000 0.922912
vt 0.450000 0.922912
vt 0.450000 1.000000
vt 0.400000 0.922912
vt 0.500000 0.922912
vt 0.500000 1.000000
vt 0.450000 0.922912
vt 0.550000 0.922912
vt 0.550000 1.000000
vt 0.500000 0.922912
vt 0.600000 0.922912
vt 0.600000 1.000000
vt 0.550000 0.922912
vt 0.650000 0.922912
vt 0.650000 1.000000
vt 0.600000 0.922912
vt 0.700000 0.922912
vt 0.700000 1.000000
vt 0.650000 0.922912
vt 0.750000 0.922912
vt 0.750000 1.000000
vt 0.700000 0.922912
vt 0.800000 0.922912
vt 0.800000 1.000000
vt 0.750000 0.922912
vt 0.850000 0.922912
vt 0.850000 1.000000
vt 0.800000 0.922912
vt 0.900000 0.922912
vt 0.850000 0.922912
vt 0.550000 0.837055
vt 0.500000 0.837055
vt 0.450000 0.837055
vt 0.400000 0.837055
vt 0.350000 0.837055
vt 0.300000 0.837055
vt 0.250000 0.837055
vt 0.200000 0.837055
vt 0.150000 0.837055
vt 0.100000 0.837055
vt 0.050000 0.837055
vt -0.000000 0.837055
vt 0.950000 0.837055
vt 0.900000 0.837055
vt 0.850000 0.837055
vt 0.800000 0.837055
vt 0.750000 0.837055
vt 0.700000 0.837055
vt 0.650000 0.837055
vt 0.600000 0.837055
vt 0.050000 0.837055
vt 0.100000 0.837055
vt 0.150000 0.837055
vt 0.300000 0.837055
vt 0.350000 0.837055
vt 0.400000 0.837055
vt 0.550000 0.837055
vt 0.600000 0.837055
vt 0.650000 0.837055
vt 0.800000 0.837055
vt 0.850000 0.837055
vt 0.900000 0.837055
vt 1.000000 0.837055
s 0
usemtl Material.002
f 42/1/1 2/2/1 3/3/1 43/4/1
f 2/5/2 1/6/2 20/7/2 19/8/2 18/9/2 17/10/2 16/11/2 15/12/2 14/13/2 13/14/2 12/15/2 11/16/2 10/17/2 9/18/2 8/19/2 7/20/2 6/21/2 5/22/2 4/23/2 3/24/2
f 41/25/3 1/26/3 2/2/3 42/27/3
f 60/28/4 20/29/4 1/30/4 41/31/4
f 59/32/5 19/33/5 20/29/5 60/34/5
f 58/35/6 18/36/6 19/33/6 59/37/6
f 57/38/7 17/39/7 18/36/7 58/40/7
f 56/41/8 16/42/8 17/39/8 57/43/8
f 55/44/9 15/45/9 16/42/9 56/46/9
f 54/47/10 14/48/10 15/45/10 55/49/10
f 53/50/11 13/51/11 14/48/11 54/52/11
f 52/53/12 12/54/12 13/51/12 53/55/12
f 51/56/13 11/57/13 12/54/13 52/58/13
f 50/59/14 10/60/14 11/57/14 51/61/14
f 49/62/15 9/63/15 10/60/15 50/64/15
f 48/65/16 8/66/16 9/63/16 49/67/16
f 47/68/17 7/69/17 8/66/17 48/70/17
f 46/71/18 6/72/18 7/69/18 47/73/18
f 45/74/19 5/75/19 6/72/19 46/76/19
f 44/77/20 4/78/20 5/75/20 45/79/20
f 43/80/21 3/3/21 4/78/21 44/81/21
f 45/74/22 46/76/22 72/76/22 74/74/22
f 51/56/23 52/58/23 21/58/23 62/56/23
f 57/38/24 58/40/24 33/40/24 31/38/24
f 46/71/25 47/73/25 70/73/25 72/71/25
f 52/53/26 53/55/26 23/55/26 21/53/26
f 58/35/27 59/37/27 35/37/27 33/35/27
f 63/82/28 61/83/28 22/84/28 24/85/28 26/86/28 28/87/28 30/88/28 32/89/28 34/90/28 36/91/28 40/92/28 37/93/28 79/94/28 77/95/28 75/96/28 73/97/28 71/98/28 69/99/28 67/100/28 65/101/28
f 47/68/29 48/70/29 68/70/29 70/68/29
f 41/25/30 42/27/30 80/27/30 38/25/30
f 53/50/31 54/52/31 25/52/31 23/50/31
f 59/32/32 60/34/32 39/34/32 35/32/32
f 42/1/33 43/4/33 78/4/33 80/1/33
f 39/28/34 38/31/34 37/93/34 40/102/34
f 35/32/35 39/34/35 40/92/35 36/103/35
f 33/35/36 35/37/36 36/91/36 34/104/36
f 31/38/37 33/40/37 34/90/37 32/89/37
f 29/41/38 31/43/38 32/89/38 30/88/38
f 27/44/39 29/46/39 30/88/39 28/105/39
f 25/47/40 27/49/40 28/87/40 26/106/40
f 23/50/41 25/52/41 26/86/41 24/107/41
f 21/53/42 23/55/42 24/85/42 22/84/42
f 62/56/43 21/58/43 22/84/43 61/83/43
f 64/59/44 62/61/44 61/83/44 63/82/44
f 66/62/45 64/64/45 63/108/45 65/109/45
f 68/65/46 66/67/46 65/101/46 67/110/46
f 70/68/47 68/70/47 67/100/47 69/99/47
f 72/71/48 70/73/48 69/99/48 71/98/48
f 74/74/49 72/76/49 71/98/49 73/111/49
f 76/77/50 74/79/50 73/97/50 75/112/50
f 78/80/51 76/81/51 75/96/51 77/113/51
f 80/1/52 78/4/52 77/95/52 79/94/52
f 38/25/53 80/27/53 79/94/53 37/114/53
f 56/41/54 57/43/54 31/43/54 29/41/54
f 50/59/55 51/61/55 62/61/55 64/59/55
f 44/77/56 45/79/56 74/79/56 76/77/56
f 55/44/57 56/46/57 29/46/57 27/44/57
f 49/62/58 50/64/58 64/64/58 66/62/58
f 43/80/59 44/81/59 76/81/59 78/80/59
f 60/28/60 41/31/60 38/31/60 39/28/60
f 54/47/61 55/49/61 27/49/61 25/47/61
f 48/65/62 49/67/62 66/67/62 68/65/62
