# Blender 4.0.1
# www.blender.org
mtllib stone3A(F32).mtl
o Icosphere.003
v -1.198574 -0.460821 -0.502802
v -0.664823 -0.118298 0.991726
v -0.758161 0.711507 0.342647
v -0.841052 0.477475 -0.583269
v 0.887998 -0.641967 -0.328944
v 0.841501 -0.644018 0.820901
v 1.006873 0.428159 0.768841
v 0.893656 0.769037 -0.144963
v -0.150958 0.265378 -0.698072
v 0.988624 0.425664 -0.491585
v 1.482691 -0.085415 -0.171885
v 0.672320 -0.168456 -0.755261
v -1.332694 -0.054387 0.484582
v -1.332691 0.269464 0.249289
v -1.157239 0.319087 -0.177953
v -1.219077 -0.514286 0.159121
v 1.575543 0.390900 0.083890
v 1.536388 0.103560 0.313899
v 1.482688 -0.297562 0.481043
v -0.242753 -0.845467 0.266727
vn -0.8079 0.2626 -0.5276
vn -0.5041 0.5076 0.6987
vn -0.2858 -0.5996 0.7475
vn -0.5883 0.7950 -0.1483
vn 0.0782 0.6592 -0.7479
vn -0.4450 -0.7485 0.4917
vn -0.3115 -0.9463 -0.0861
vn -0.0932 0.6069 0.7893
vn -0.1031 0.9665 -0.2351
vn -0.1879 -0.7460 0.6389
vn 0.1227 0.0292 0.9920
vn 0.0681 0.9375 0.3413
vn -0.1700 -0.0197 -0.9853
vn 0.6876 0.2349 -0.6871
vn 0.0789 0.6164 0.7835
vn 0.5416 0.6667 -0.5121
vn 0.4827 -0.8756 0.0180
vn 0.1193 0.3490 -0.9295
vn 0.0040 -0.6681 -0.7441
vn -0.9842 -0.0230 -0.1755
vn 0.1799 -0.9837 0.0055
vn 0.5607 0.0397 0.8270
vn 0.5627 -0.3966 -0.7253
vn -0.4924 0.5012 0.7116
vn -0.5877 0.7953 -0.1490
vn 0.0264 0.7138 -0.6999
vn 0.6317 0.7487 0.2010
vn 0.5799 0.0521 -0.8130
vn -0.1186 -0.0947 -0.9884
vn 0.6969 -0.6821 -0.2216
vn -0.0461 -0.9153 -0.4002
vn 0.9860 -0.1600 -0.0468
vt 0.329027 0.059948
vt 0.398247 0.059948
vt 0.454546 0.157461
vt 0.761883 0.059947
vt 0.636364 0.157461
vt 0.692663 0.059948
vt 0.874481 0.059947
vt 0.943701 0.059948
vt 0.966983 0.131811
vt 0.510845 0.059948
vt 0.545455 0.314921
vt 0.402198 0.248130
vt 0.958191 0.157461
vt 0.818182 0.157461
vt 0.147209 0.059948
vt 0.272728 0.157461
vt 0.111815 0.121252
vt 0.727273 0.314921
vt 0.979095 0.193669
vt 0.909091 0.314921
vt 0.325076 0.248130
vt 0.402198 0.381712
vt 0.440760 0.314921
vt 0.491231 0.408841
vt 0.673049 0.408841
vt 0.599679 0.408841
vt 0.000000 0.314921
vt 0.127595 0.408841
vt 0.054225 0.408841
vt 0.440760 0.314921
vt 0.286514 0.314921
vt 0.181819 0.314921
vt 0.110229 0.190923
vt 0.854867 0.408841
vt 0.781497 0.408841
vt 0.309413 0.408841
vt 0.580065 0.059948
vt 0.132400 0.157461
s 0
usemtl Material.001
f 1/1/1 15/2/1 4/3/1
f 13/4/2 3/5/2 14/6/2
f 13/7/3 16/8/3 20/9/3
f 15/10/4 3/5/4 4/3/4
f 8/11/5 9/12/5 4/3/5
f 13/7/6 20/13/6 2/14/6
f 16/15/7 1/16/7 20/17/7
f 3/5/8 2/14/8 7/18/8
f 4/3/9 3/5/9 8/11/9
f 2/14/10 20/19/10 6/20/10
f 2/14/11 6/20/11 7/18/11
f 3/5/12 7/18/12 8/11/12
f 1/16/13 4/3/13 9/21/13
f 11/22/14 10/23/14 17/24/14
f 8/11/15 18/25/15 17/26/15
f 10/23/16 8/11/16 17/24/16
f 6/27/17 5/28/17 19/29/17
f 10/30/18 12/31/18 9/12/18
f 1/16/19 12/31/19 5/32/19
f 16/15/20 13/7/20 14/6/20 15/10/20 1/1/20
f 20/33/21 5/32/21 6/27/21
f 6/20/22 19/34/22 18/35/22 7/18/22
f 12/31/23 11/36/23 5/32/23
f 13/4/24 2/14/24 3/5/24
f 15/10/25 14/37/25 3/5/25
f 8/11/26 10/30/26 9/12/26
f 8/11/27 7/18/27 18/25/27
f 10/30/28 11/22/28 12/31/28
f 1/16/29 9/21/29 12/31/29
f 5/28/30 11/36/30 19/34/30
f 20/38/31 1/16/31 5/32/31
f 11/36/32 17/24/32 18/25/32 19/34/32
