# Blender 4.0.1
# www.blender.org
mtllib stone1A(F38).mtl
o Icosphere.001
v 0.305930 -1.554683 -0.340719
v 0.255950 -0.977709 1.329736
v -0.904889 -0.971937 1.097404
v -0.747335 -0.896375 -0.199039
v 0.971717 0.923390 -0.874862
v 0.796966 0.923838 0.625668
v -0.269770 0.528615 1.158911
v -1.072255 0.609949 0.248176
v -0.134414 -0.034770 -0.683112
v -0.272238 0.604177 -0.493413
v 0.088584 0.999065 -0.376178
v 0.466603 0.528168 -0.697501
v 0.255950 -1.554238 0.775829
v -0.545466 -1.472902 0.629785
v -0.421764 -1.472902 0.249076
v 0.412435 -1.478674 0.244077
v 0.103879 1.554683 -0.755319
v -0.254680 1.159457 0.027322
v -0.123563 1.159458 0.430851
v 0.316026 1.554680 -0.102391
v 0.743616 -0.502350 0.351682
vn -0.5013 -0.6895 -0.5229
vn -0.1926 -0.7399 0.6446
vn 0.9157 -0.3351 0.2219
vn -0.8157 -0.5632 -0.1320
vn -0.6778 0.0711 -0.7318
vn 0.9046 -0.2954 0.3075
vn 0.9430 -0.3053 -0.1321
vn -0.1959 0.0427 0.9797
vn -0.9766 -0.1724 -0.1287
vn 0.9099 -0.1108 0.3998
vn 0.3657 0.2299 0.9019
vn -0.7094 0.2736 0.6495
vn -0.3047 -0.2925 -0.9064
vn 0.0522 0.7495 0.6599
vn -0.5181 0.8386 0.1684
vn -0.5517 0.5798 -0.5996
vn 0.7418 0.6650 0.0862
vn -0.2372 0.2291 -0.9441
vn -0.2226 -0.1479 -0.9636
vn 0.0428 -0.9917 0.1211
vn 0.9915 -0.0593 0.1155
vn -0.5338 0.8277 0.1734
vn -0.2317 -0.1361 -0.9632
vn -0.1462 -0.6854 0.7134
vn -0.8849 -0.3665 -0.2875
vn 0.0654 0.7751 0.6284
vn -0.5032 0.7006 0.5060
vn -0.7788 -0.3388 -0.5279
vn -0.4641 0.6137 -0.6388
vn -0.1968 0.4399 -0.8762
vn 0.1432 -0.1778 -0.9736
vn -0.0706 -0.9845 -0.1607
vn -0.1506 -0.9874 -0.0489
vn 0.5618 0.8069 -0.1825
vn -0.8110 -0.3144 -0.4934
vn 0.9443 -0.2880 -0.1592
vt 0.329027 0.059948
vt 0.398247 0.059948
vt 0.454546 0.157461
vt 0.761883 0.059947
vt 0.636364 0.157461
vt 0.692663 0.059948
vt 0.874481 0.059947
vt 0.943701 0.059948
vt 0.966983 0.131811
vt 0.510845 0.059948
vt 0.545455 0.314921
vt 0.402198 0.248130
vt 0.958191 0.157461
vt 0.818182 0.157461
vt 0.147209 0.059948
vt 0.272728 0.157461
vt 0.111815 0.121252
vt 0.727273 0.314921
vt 0.979095 0.193669
vt 0.909091 0.314921
vt 0.325076 0.248130
vt 0.781497 0.408841
vt 0.673049 0.408841
vt 0.599679 0.408841
vt 0.440760 0.314921
vt 0.491231 0.408841
vt 0.000000 0.314921
vt 0.127595 0.408841
vt 0.054225 0.408841
vt 0.440760 0.314921
vt 0.286514 0.314921
vt 0.181819 0.314921
vt 0.110229 0.190923
vt 0.854867 0.408841
vt 0.309413 0.408841
vt 0.580065 0.059948
vt 0.417861 0.408841
vt 0.402198 0.381712
vt 0.325076 0.381712
vt 0.132400 0.157461
s 0
usemtl Material.001
f 1/1/1 15/2/1 4/3/1
f 13/4/2 3/5/2 14/6/2
f 13/7/3 16/8/3 21/9/3
f 15/10/4 3/5/4 4/3/4
f 8/11/5 9/12/5 4/3/5
f 13/7/6 21/13/6 2/14/6
f 16/15/7 1/16/7 21/17/7
f 3/5/8 2/14/8 7/18/8
f 4/3/9 3/5/9 8/11/9
f 2/14/10 21/19/10 6/20/10
f 2/14/11 6/20/11 7/18/11
f 3/5/12 7/18/12 8/11/12
f 1/16/13 4/3/13 9/21/13
f 6/20/14 19/22/14 7/18/14
f 8/11/15 19/23/15 18/24/15
f 10/25/16 8/11/16 18/26/16
f 6/27/17 5/28/17 20/29/17
f 10/30/18 12/31/18 9/12/18
f 1/16/19 12/31/19 5/32/19
f 14/6/20 1/1/20 16/15/20
f 21/33/21 5/32/21 6/27/21
f 18/26/22 19/23/22 20/34/22
f 12/31/23 17/35/23 5/32/23
f 13/4/24 2/14/24 3/5/24
f 15/10/25 14/36/25 3/5/25
f 8/11/5 10/30/5 9/12/5
f 6/20/26 20/34/26 19/22/26
f 8/11/27 7/18/27 19/23/27
f 17/37/28 11/38/28 18/26/28
f 11/38/29 10/25/29 18/26/29
f 10/30/30 11/38/30 12/31/30
f 1/16/31 9/21/31 12/31/31
f 16/15/32 13/7/32 14/6/32
f 14/6/33 15/10/33 1/1/33
f 5/28/34 17/35/34 20/34/34
f 17/35/22 18/26/22 20/34/22
f 12/31/35 11/39/35 17/35/35
f 21/40/36 1/16/36 5/32/36
