# Blender 4.0.1
# www.blender.org
mtllib stone4A(F65).mtl
o Icosphere.003
v -0.949275 -0.226661 -0.705477
v -0.677201 0.154824 1.455383
v -0.826402 1.194025 0.937978
v -0.905743 0.632355 -0.471501
v 0.851069 -0.985644 -0.389602
v 0.806782 -0.764154 1.502744
v 0.214400 0.546916 1.866029
v 0.917930 1.404483 0.162702
v -0.169921 0.866843 -0.913438
v 0.736805 1.004455 -0.584550
v 1.632323 -0.164170 0.139592
v 0.644629 -0.288965 -0.746585
v -1.274285 -0.041348 0.767298
v -1.198103 0.475471 0.512593
v -1.208387 0.394428 -0.155336
v -1.165535 -0.605121 0.584028
v 1.509382 0.504514 0.108998
v 1.352142 1.100983 0.740374
v 1.420505 -0.339447 1.030936
v -0.316263 -1.056345 0.666291
v -0.382438 1.315147 -0.507162
v -0.326667 0.548532 -0.525021
v 0.292246 0.458420 -0.725309
v 0.568827 1.275552 -0.482628
v 1.377135 0.700307 -0.291522
v -0.618347 0.349588 -0.657617
v -0.598066 -0.413236 -1.117320
v -0.486619 -0.728025 -0.763327
v -0.743532 -0.178455 -1.019600
v 0.639257 0.486919 -0.514310
v 0.463973 0.811433 1.069420
v 0.817453 0.103735 1.283807
v 0.029853 -0.213377 1.415059
v -0.709586 0.627876 1.237524
vn -0.7788 0.2013 -0.5941
vn -0.9069 0.2861 0.3092
vn -0.2701 -0.3444 0.8991
vn -0.7328 0.6453 -0.2159
vn 0.0472 0.6830 -0.7289
vn -0.5350 -0.5673 0.6260
vn -0.4202 -0.8492 -0.3197
vn -0.5146 0.3156 0.7972
vn -0.7838 0.5908 -0.1913
vn -0.2581 -0.5802 0.7725
vn -0.1931 -0.4655 0.8637
vn 0.1713 0.7831 0.5979
vn -0.7673 0.4763 -0.4295
vn 0.9577 0.1653 -0.2354
vn 0.7860 0.5350 -0.3097
vn 0.5471 0.6756 -0.4943
vn 0.6195 -0.7779 0.1055
vn 0.3461 -0.0401 -0.9373
vn -0.9994 -0.0289 0.0189
vn 0.1665 -0.9789 0.1185
vn 0.5031 0.2056 0.8394
vn 0.6698 -0.1717 -0.7224
vn -0.7481 0.1831 0.6378
vn -0.8763 0.4798 -0.0447
vn 0.6582 0.5857 -0.4731
vn -0.0877 0.8532 0.5142
vn -0.7130 -0.6202 -0.3271
vn 0.7139 -0.6996 0.0321
vn -0.1288 -0.9697 -0.2074
vn 0.9640 0.0958 0.2479
vn -0.9089 -0.0565 -0.4131
vn -0.0960 0.9939 0.0538
vn -0.9541 -0.2034 -0.2197
vn -0.9220 -0.0531 -0.3836
vn 0.4973 0.1942 0.8456
vn 0.9805 0.1835 0.0708
vn 0.0462 0.9745 -0.2197
vn -0.3280 0.2637 -0.9071
vn 0.2301 -0.3791 -0.8963
vn 0.8355 0.5495 -0.0072
vn 0.5205 -0.2104 -0.8275
vn 0.2379 0.4675 -0.8514
vn -0.2528 0.2341 -0.9388
vn -0.0896 0.0167 -0.9958
vn -0.6292 0.7061 0.3247
vn 0.1718 -0.4084 -0.8965
vn 0.2684 0.1536 -0.9510
vn -0.7371 -0.6725 -0.0666
vn 0.0028 0.5518 -0.8340
vn 0.3894 0.0164 -0.9209
vn -0.7789 0.4696 -0.4157
vn 0.2721 -0.6749 -0.6859
vn -0.7897 -0.2576 -0.5568
vn 0.6702 -0.1632 -0.7240
vn 0.4873 0.2535 -0.8356
vn 0.3334 -0.1882 -0.9238
vn 0.2016 0.2822 -0.9379
vn -0.5109 0.3305 0.7936
vn -0.4340 -0.4921 0.7546
vn -0.3792 -0.4022 0.8333
vn 0.2291 0.9001 0.3707
vn 0.7428 0.1552 0.6513
vn -0.7668 0.2245 0.6014
vn -0.2170 0.9447 0.2457
vn 0.6998 0.0140 0.7142
vt 0.329027 0.059948
vt 0.398247 0.059948
vt 0.454546 0.157461
vt 0.761883 0.059947
vt 0.636364 0.157461
vt 0.692663 0.059948
vt 0.874481 0.059947
vt 0.943701 0.059948
vt 0.966983 0.131811
vt 0.510845 0.059948
vt 0.500000 0.236191
vt 0.473827 0.281526
vt 0.402198 0.248130
vt 0.958191 0.157461
vt 0.818182 0.157461
vt 0.147209 0.059948
vt 0.272728 0.157461
vt 0.111815 0.121252
vt 0.727273 0.157461
vt 0.727273 0.314921
vt 0.979095 0.193669
vt 0.863636 0.236191
vt 0.636364 0.314921
vt 0.545455 0.314921
vt 0.331269 0.180128
vt 0.298902 0.202796
vt 0.402198 0.381712
vt 0.465996 0.361881
vt 0.491231 0.408841
vt 0.673049 0.408841
vt 0.599679 0.408841
vt 0.440760 0.314921
vt 0.000000 0.314921
vt 0.127595 0.408841
vt 0.054225 0.408841
vt 0.440760 0.314921
vt 0.344356 0.281526
vt 0.110229 0.190923
vt 0.181819 0.314921
vt 0.791070 0.361881
vt 0.909091 0.314921
vt 0.854867 0.408841
vt 0.286514 0.314921
vt 0.309413 0.408841
vt 0.580065 0.059948
vt 0.289261 0.219493
vt 0.279621 0.236191
vt 0.132400 0.157461
vt 0.227273 0.236191
vt 0.428372 0.202796
vt 0.781497 0.408841
vt 0.363637 0.314921
vt 0.325076 0.248130
vt 0.389811 0.202796
vt 0.305795 0.281526
vt 0.382918 0.348317
s 0
usemtl Material.001
f 1/1/1 15/2/1 4/3/1
f 13/4/2 3/5/2 14/6/2
f 13/7/3 16/8/3 20/9/3
f 15/10/4 3/5/4 4/3/4
f 21/11/5 24/12/5 9/13/5
f 13/7/6 20/14/6 2/15/6
f 16/16/7 1/17/7 20/18/7
f 34/19/8 7/20/8 3/5/8
f 3/5/9 21/11/9 4/3/9
f 20/21/10 33/22/10 2/15/10
f 33/22/11 7/20/11 2/15/11
f 3/5/12 31/23/12 8/24/12
f 26/25/13 29/26/13 1/17/13
f 11/27/14 25/28/14 17/29/14
f 8/24/15 18/30/15 17/31/15
f 8/24/16 25/28/16 10/32/16
f 6/33/17 5/34/17 19/35/17
f 10/36/18 23/37/18 9/13/18
f 15/10/19 16/16/19 14/6/19
f 20/38/20 5/39/20 6/33/20
f 32/40/21 6/41/21 19/42/21
f 12/43/22 11/44/22 5/39/22
f 13/4/23 34/19/23 3/5/23
f 15/10/24 14/45/24 3/5/24
f 10/36/25 24/12/25 8/24/25
f 31/23/26 18/30/26 8/24/26
f 27/46/27 28/47/27 1/17/27
f 5/34/28 11/44/28 19/42/28
f 20/48/29 28/49/29 5/39/29
f 11/44/30 18/30/30 19/42/30
f 22/50/31 21/11/31 9/13/31
f 3/5/32 8/24/32 21/11/32
f 1/1/33 16/16/33 15/10/33
f 16/16/34 13/7/34 14/6/34
f 18/51/35 32/40/35 19/42/35
f 11/44/36 17/29/36 18/30/36
f 21/11/37 8/24/37 24/12/37
f 4/3/38 26/25/38 1/17/38
f 11/27/39 10/32/39 25/28/39
f 8/24/40 17/29/40 25/28/40
f 30/52/41 23/37/41 10/36/41
f 10/36/42 9/13/42 24/12/42
f 27/46/43 29/26/43 9/53/43
f 22/50/44 4/3/44 21/11/44
f 26/25/45 22/54/45 9/53/45
f 12/43/46 5/39/46 28/49/46
f 27/46/47 23/55/47 12/43/47
f 20/48/48 1/17/48 28/49/48
f 4/3/49 22/54/49 26/25/49
f 9/53/50 23/55/50 27/46/50
f 26/25/51 9/53/51 29/26/51
f 27/46/52 12/43/52 28/47/52
f 27/46/53 1/17/53 29/26/53
f 12/43/54 25/56/54 11/27/54
f 30/52/55 12/43/55 23/37/55
f 25/56/56 30/52/56 10/36/56
f 12/43/57 30/52/57 25/56/57
f 34/19/58 2/15/58 7/20/58
f 20/21/59 6/41/59 33/22/59
f 33/22/60 6/41/60 7/20/60
f 3/5/61 7/20/61 31/23/61
f 32/40/62 7/20/62 6/41/62
f 13/4/63 2/15/63 34/19/63
f 31/23/64 7/20/64 18/30/64
f 18/51/65 7/20/65 32/40/65
