# Blender 4.0.1
# www.blender.org
mtllib stone2A(F38).mtl
o Icosphere
v 0.479573 -1.405698 0.217346
v -0.894425 -0.753162 0.000000
v -0.276385 -0.753162 -0.850640
v 0.723600 -0.753162 -0.525720
v 0.480473 0.677153 0.867837
v -0.723600 0.753162 0.525720
v -0.723600 0.753162 -0.525720
v 0.276385 0.753162 -0.850640
v 0.821965 0.114215 -0.222998
v 0.632267 0.753162 -0.360822
v 0.515031 1.148051 0.000000
v 0.836354 0.677153 0.378019
v -0.340518 -1.329692 0.000000
v -0.105224 -1.329689 -0.323851
v 0.275485 -1.329689 -0.200149
v -0.105224 -1.329689 0.323851
v 0.360929 1.308446 0.000000
v 0.111531 1.308443 -0.343264
v -0.291998 1.308443 -0.212147
v -0.291998 1.308443 0.212147
v -0.212829 -0.353365 0.655033
vn 0.5901 -0.6928 -0.4146
vn -0.6388 -0.6137 -0.4641
vn -0.7773 -0.2772 0.5647
vn 0.2440 -0.6137 -0.7509
vn 0.8039 0.1127 -0.5841
vn -0.4678 -0.4494 0.7611
vn 0.1321 -0.3053 0.9430
vn -0.8039 -0.1127 -0.5841
vn 0.3071 -0.1127 -0.9450
vn -0.6173 -0.1959 0.7619
vn -0.9936 0.1127 -0.0000
vn -0.3071 0.1127 -0.9450
vn 0.9708 -0.1694 0.1700
vn -0.7895 0.6137 -0.0000
vn -0.2440 0.6137 -0.7509
vn 0.6388 0.6137 -0.4641
vn -0.1863 0.5889 0.7864
vn 0.9441 0.2291 -0.2372
vn 0.7957 -0.1809 0.5781
vn -0.1289 -0.9917 -0.0000
vn -0.2741 -0.0142 0.9616
vn -0.0000 1.0000 -0.0000
vn 0.5833 0.6930 0.4238
vn 0.8762 0.4399 -0.1968
vn 0.9736 -0.1778 0.1432
vn -0.0000 -1.0000 -0.0000
vn 0.0686 -0.9751 -0.2110
vn 0.1825 0.8069 0.5618
vn 0.6996 0.6721 0.2426
vn 0.1485 -0.2949 0.9439
vt 0.329027 0.059948
vt 0.398247 0.059948
vt 0.454546 0.157461
vt 0.761883 0.059947
vt 0.636364 0.157461
vt 0.692663 0.059948
vt 0.874481 0.059947
vt 0.943701 0.059948
vt 0.966983 0.131811
vt 0.510845 0.059948
vt 0.545455 0.314921
vt 0.402198 0.248130
vt 0.958191 0.157461
vt 0.818182 0.157461
vt 0.147209 0.059948
vt 0.272728 0.157461
vt 0.111815 0.121252
vt 0.727273 0.314921
vt 0.979095 0.193669
vt 0.909091 0.314921
vt 0.325076 0.248130
vt 0.781497 0.408841
vt 0.673049 0.408841
vt 0.599679 0.408841
vt 0.440760 0.314921
vt 0.491231 0.408841
vt 0.000000 0.314921
vt 0.127595 0.408841
vt 0.054225 0.408841
vt 0.440760 0.314921
vt 0.286514 0.314921
vt 0.181819 0.314921
vt 0.110229 0.190923
vt 0.854867 0.408841
vt 0.309413 0.408841
vt 0.580065 0.059948
vt 0.417861 0.408841
vt 0.402198 0.381712
vt 0.325076 0.381712
vt 0.132400 0.157461
s 0
usemtl Material.001
f 1/1/1 15/2/1 4/3/1
f 13/4/2 3/5/2 14/6/2
f 13/7/3 16/8/3 21/9/3
f 15/10/4 3/5/4 4/3/4
f 8/11/5 9/12/5 4/3/5
f 13/7/6 21/13/6 2/14/6
f 16/15/7 1/16/7 21/17/7
f 3/5/8 2/14/8 7/18/8
f 4/3/9 3/5/9 8/11/9
f 2/14/10 21/19/10 6/20/10
f 2/14/11 6/20/11 7/18/11
f 3/5/12 7/18/12 8/11/12
f 1/16/13 4/3/13 9/21/13
f 6/20/14 19/22/14 7/18/14
f 8/11/15 19/23/15 18/24/15
f 10/25/16 8/11/16 18/26/16
f 6/27/17 5/28/17 20/29/17
f 10/30/18 12/31/18 9/12/18
f 1/16/19 12/31/19 5/32/19
f 14/6/20 1/1/20 16/15/20
f 21/33/21 5/32/21 6/27/21
f 18/26/22 19/23/22 20/34/22
f 12/31/23 17/35/23 5/32/23
f 13/4/2 2/14/2 3/5/2
f 15/10/4 14/36/4 3/5/4
f 8/11/5 10/30/5 9/12/5
f 6/20/14 20/34/14 19/22/14
f 8/11/15 7/18/15 19/23/15
f 17/37/16 11/38/16 18/26/16
f 11/38/16 10/25/16 18/26/16
f 10/30/24 11/38/24 12/31/24
f 1/16/25 9/21/25 12/31/25
f 16/15/26 13/7/26 14/6/26
f 14/6/27 15/10/27 1/1/27
f 5/28/28 17/35/28 20/34/28
f 17/35/22 18/26/22 20/34/22
f 12/31/29 11/39/29 17/35/29
f 21/40/30 1/16/30 5/32/30
