# Blender 4.0.1
# www.blender.org
mtllib dtree5B(F197).mtl
o Icosphere.048
v -0.205636 1.667437 0.782881
v -0.481595 1.468578 0.562430
v -0.087718 1.495861 0.464737
v 0.158563 1.506067 0.730274
v -0.080294 1.541940 1.022121
v -0.440264 1.549924 0.886154
v -0.274995 1.145335 0.528948
v 0.061203 1.134582 0.596355
v 0.071970 1.287203 0.952565
v -0.279451 1.259374 0.996809
v -0.456167 1.193479 0.671480
v -0.197378 1.057644 0.734576
vn -0.1865 0.8342 -0.5190
vn -0.4952 0.8554 -0.1517
vn 0.3376 0.8751 -0.3468
vn 0.4220 0.8749 0.2378
vn -0.1817 0.8284 0.5298
vn -0.9900 -0.0377 0.1359
vn -0.2371 -0.0510 -0.9701
vn 0.7311 0.0536 -0.6802
vn 0.7572 0.2932 0.5837
vn -0.3456 0.1608 0.9245
vn -0.6360 -0.3345 -0.6954
vn 0.1810 -0.2699 -0.9457
vn 0.9545 -0.2835 0.0926
vn 0.1371 -0.1838 0.9734
vn -0.8238 -0.2651 0.5012
vn -0.4100 -0.8845 -0.2224
vn 0.0528 -0.9112 -0.4085
vn 0.4320 -0.8336 0.3441
vn 0.1399 -0.7632 0.6309
vn -0.4998 -0.7550 0.4244
vt 0.181819 0.000000
vt 0.272728 0.157461
vt 0.090910 0.157461
vt 0.363637 0.000000
vt 0.454546 0.157461
vt 0.909091 0.000000
vt 1.000000 0.157461
vt 0.818182 0.157461
vt 0.727273 0.000000
vt 0.636364 0.157461
vt 0.545455 0.000000
vt 0.363637 0.314921
vt 0.181819 0.314921
vt 0.909091 0.314921
vt 0.727273 0.314921
vt 0.545455 0.314921
vt 0.000000 0.314921
vt 0.272728 0.472382
vt 0.090910 0.472382
vt 0.818182 0.472382
vt 0.636364 0.472382
vt 0.454546 0.472382
s 0
usemtl Material.035
f 1/1/1 3/3/1 2/2/1
f 2/2/2 6/5/2 1/4/2
f 1/6/3 4/8/3 3/7/3
f 1/9/4 5/10/4 4/8/4
f 1/11/5 6/5/5 5/10/5
f 2/2/6 11/12/6 6/5/6
f 3/3/7 7/13/7 2/2/7
f 4/8/8 8/14/8 3/7/8
f 5/10/9 9/15/9 4/8/9
f 6/5/10 10/16/10 5/10/10
f 2/2/11 7/13/11 11/12/11
f 3/3/12 8/17/12 7/13/12
f 4/8/13 9/15/13 8/14/13
f 5/10/14 10/16/14 9/15/14
f 6/5/15 11/12/15 10/16/15
f 7/13/16 12/18/16 11/12/16
f 8/17/17 12/19/17 7/13/17
f 9/15/18 12/20/18 8/14/18
f 10/16/19 12/21/19 9/15/19
f 11/12/20 12/22/20 10/16/20
o Icosphere.047
v -0.268771 1.181718 0.120726
v 0.080568 1.479115 0.363774
v -0.417181 1.490291 0.510998
v -0.711405 1.450722 0.085058
v -0.395484 1.415091 -0.325409
v 0.093977 1.432639 -0.153150
v -0.049675 2.070866 0.562873
v -0.694628 1.981676 0.391461
v -0.728994 1.927565 -0.299437
v -0.122447 2.006266 -0.414829
v 0.252180 2.103891 0.302195
v -0.274583 2.219411 0.093593
vn 0.1759 -0.7386 0.6508
vn 0.6102 -0.7875 0.0866
vn -0.4969 -0.7627 0.4141
vn -0.4784 -0.8266 -0.2965
vn 0.2057 -0.8419 -0.4988
vn 0.9644 -0.2601 0.0484
vn 0.2691 -0.2534 0.9292
vn -0.7718 -0.2993 0.5610
vn -0.7273 -0.4469 -0.5210
vn 0.3271 -0.2873 -0.9003
vn 0.6565 -0.1067 0.7467
vn -0.2667 0.0830 0.9602
vn -0.9988 0.0030 0.0494
vn -0.1782 -0.0662 -0.9818
vn 0.8740 0.1143 -0.4722
vn 0.1115 0.9616 0.2509
vn -0.2273 0.8918 0.3912
vn -0.5143 0.8566 -0.0415
vn -0.1960 0.8821 -0.4284
vn 0.3121 0.9059 -0.2864
vt 0.181819 0.000000
vt 0.272728 0.157461
vt 0.090910 0.157461
vt 0.363637 0.000000
vt 0.454546 0.157461
vt 0.909091 0.000000
vt 1.000000 0.157461
vt 0.818182 0.157461
vt 0.727273 0.000000
vt 0.636364 0.157461
vt 0.545455 0.000000
vt 0.363637 0.314921
vt 0.181819 0.314921
vt 0.909091 0.314921
vt 0.727273 0.314921
vt 0.545455 0.314921
vt 0.000000 0.314921
vt 0.272728 0.472382
vt 0.090910 0.472382
vt 0.818182 0.472382
vt 0.636364 0.472382
vt 0.454546 0.472382
s 0
usemtl Material.035
f 13/23/21 14/24/21 15/25/21
f 14/24/22 13/26/22 18/27/22
f 13/28/23 15/29/23 16/30/23
f 13/31/24 16/30/24 17/32/24
f 13/33/25 17/32/25 18/27/25
f 14/24/26 18/27/26 23/34/26
f 15/25/27 14/24/27 19/35/27
f 16/30/28 15/29/28 20/36/28
f 17/32/29 16/30/29 21/37/29
f 18/27/30 17/32/30 22/38/30
f 14/24/31 23/34/31 19/35/31
f 15/25/32 19/35/32 20/39/32
f 16/30/33 20/36/33 21/37/33
f 17/32/34 21/37/34 22/38/34
f 18/27/35 22/38/35 23/34/35
f 19/35/36 23/34/36 24/40/36
f 20/39/37 19/35/37 24/41/37
f 21/37/38 20/36/38 24/42/38
f 22/38/39 21/37/39 24/43/39
f 23/34/40 22/38/40 24/44/40
o Icosphere.046
v 0.430136 1.079485 -0.310334
v 0.708462 1.230352 -0.127833
v 0.286483 1.311252 0.033222
v 0.160326 1.266206 -0.287064
v 0.337362 1.365980 -0.623838
v 0.674922 1.330287 -0.475519
v 0.563328 1.513703 -0.028497
v 0.215226 1.590096 -0.122581
v 0.239956 1.664521 -0.471127
v 0.515037 1.619967 -0.570528
v 0.774521 1.622821 -0.331132
v 0.413292 1.690305 -0.225306
vn 0.0638 -0.8147 0.5763
vn 0.5913 -0.7582 -0.2750
vn -0.5211 -0.7925 0.3167
vn -0.5259 -0.6996 -0.4837
vn 0.2322 -0.6828 -0.6927
vn 0.9558 -0.2451 -0.1627
vn 0.3250 -0.1603 0.9320
vn -0.9285 -0.0305 0.3700
vn -0.8789 -0.0438 -0.4750
vn 0.3935 -0.0831 -0.9156
vn 0.7738 0.1838 0.6062
vn -0.1375 0.4561 0.8792
vn -0.9828 0.1822 -0.0308
vn -0.2620 0.3704 -0.8912
vn 0.6714 0.1314 -0.7293
vn 0.2986 0.8122 0.5012
vn -0.0214 0.7360 0.6767
vn -0.3742 0.9120 0.1682
vn 0.0969 0.9805 -0.1712
vn 0.1361 0.9778 -0.1591
vt 0.181819 0.000000
vt 0.272728 0.157461
vt 0.090910 0.157461
vt 0.363637 0.000000
vt 0.454546 0.157461
vt 0.909091 0.000000
vt 1.000000 0.157461
vt 0.818182 0.157461
vt 0.727273 0.000000
vt 0.636364 0.157461
vt 0.545455 0.000000
vt 0.363637 0.314921
vt 0.181819 0.314921
vt 0.909091 0.314921
vt 0.727273 0.314921
vt 0.545455 0.314921
vt 0.000000 0.314921
vt 0.272728 0.472382
vt 0.090910 0.472382
vt 0.818182 0.472382
vt 0.636364 0.472382
vt 0.454546 0.472382
s 0
usemtl Material.035
f 25/45/41 26/46/41 27/47/41
f 26/46/42 25/48/42 30/49/42
f 25/50/43 27/51/43 28/52/43
f 25/53/44 28/52/44 29/54/44
f 25/55/45 29/54/45 30/49/45
f 26/46/46 30/49/46 35/56/46
f 27/47/47 26/46/47 31/57/47
f 28/52/48 27/51/48 32/58/48
f 29/54/49 28/52/49 33/59/49
f 30/49/50 29/54/50 34/60/50
f 26/46/51 35/56/51 31/57/51
f 27/47/52 31/57/52 32/61/52
f 28/52/53 32/58/53 33/59/53
f 29/54/54 33/59/54 34/60/54
f 30/49/55 34/60/55 35/56/55
f 31/57/56 35/56/56 36/62/56
f 32/61/57 31/57/57 36/63/57
f 33/59/58 32/58/58 36/64/58
f 34/60/59 33/59/59 36/65/59
f 35/56/60 34/60/60 36/66/60
o Cube.011
v 0.280388 0.017966 0.193238
v -0.116978 0.017966 0.193238
v -0.116978 0.017966 -0.204129
v 0.280388 0.017966 -0.204129
v -0.226410 1.221001 0.746742
v -0.283626 1.221001 0.706262
v -0.263921 1.282224 0.678409
v -0.206704 1.282224 0.718890
v -0.372013 1.474383 0.038435
v -0.355971 1.474383 -0.029793
v -0.302870 1.518391 -0.017308
v -0.318911 1.518391 0.050920
v 0.408924 1.317854 -0.358685
v 0.469614 1.317854 -0.323626
v 0.445554 1.368832 -0.281977
v 0.384864 1.368832 -0.317035
v 0.129231 0.520188 0.041528
v 0.032992 0.532213 0.042714
v 0.034178 0.551093 -0.052418
v 0.130418 0.539069 -0.053605
v 0.132399 0.868557 0.269809
v 0.046684 0.868557 0.209167
v 0.097066 0.972572 0.169498
v 0.161919 0.960273 0.228083
v 0.083135 0.916947 0.335291
v 0.001333 0.916947 0.277417
v 0.029506 1.004477 0.237596
v 0.111307 1.004477 0.295470
v 0.038440 0.960849 0.394701
v -0.039812 0.960849 0.339338
v -0.012862 1.044581 0.301245
v 0.065390 1.044581 0.356608
v -0.003525 1.002070 0.450481
v -0.078444 1.002070 0.397476
v -0.052641 1.082235 0.361006
v 0.022277 1.082235 0.414010
v -0.043570 1.041404 0.503708
v -0.115308 1.041404 0.452954
v -0.090601 1.118166 0.418032
v -0.018863 1.118166 0.468787
v -0.082148 1.079298 0.554987
v -0.150822 1.079298 0.506401
v -0.127170 1.152781 0.472970
v -0.058496 1.152781 0.521557
v -0.119548 1.116034 0.604700
v -0.185252 1.116034 0.558215
v -0.162623 1.186339 0.526230
v -0.096919 1.186339 0.572715
v -0.155968 1.151808 0.653109
v -0.218779 1.151808 0.608671
v -0.197146 1.219018 0.578095
v -0.134335 1.219018 0.622533
v -0.191552 1.186761 0.700409
v -0.251537 1.186761 0.657970
v -0.230878 1.250947 0.628769
v -0.170893 1.250947 0.671208
v 0.038378 0.918943 0.152853
v 0.062408 0.918943 0.050642
v 0.147232 0.983013 0.060454
v -0.017968 0.995204 0.137143
v 0.004965 0.995204 0.039599
v 0.080884 1.058122 0.057448
v 0.057950 1.058122 0.154992
v -0.069089 1.064393 0.122891
v -0.047150 1.064393 0.029579
v 0.025473 1.124581 0.046654
v 0.003535 1.124581 0.139965
v -0.117086 1.129354 0.109509
v -0.096082 1.129354 0.020172
v -0.026552 1.186979 0.036519
v -0.047556 1.186979 0.125856
v -0.162888 1.191344 0.096740
v -0.142775 1.191344 0.011195
v -0.076196 1.246522 0.026849
v -0.096309 1.246522 0.112393
v -0.207012 1.251063 0.084438
v -0.187758 1.251063 0.002547
v -0.124023 1.303885 0.017532
v -0.143277 1.303885 0.099423
v -0.249788 1.308959 0.072512
v -0.231367 1.308959 -0.005837
v -0.170389 1.359496 0.008500
v -0.188810 1.359496 0.086848
v -0.291444 1.365337 0.060898
v -0.273834 1.365337 -0.014001
v -0.215540 1.413649 -0.000296
v -0.233150 1.413649 0.074604
v -0.332143 1.420422 0.049551
v -0.315326 1.420422 -0.021978
v -0.259655 1.466560 -0.008890
v -0.276473 1.466560 0.062640
v 0.188117 0.905702 -0.010084
v 0.277944 0.905702 0.041807
v 0.242334 0.981155 0.103452
v 0.225839 0.976113 -0.069638
v 0.310689 0.976113 -0.020623
v 0.277051 1.047385 0.037607
v 0.192202 1.047385 -0.011409
v 0.260063 1.039994 -0.123669
v 0.340396 1.039994 -0.077263
v 0.308549 1.107473 -0.022133
v 0.228216 1.107473 -0.068539
v 0.292196 1.099973 -0.174400
v 0.368289 1.099973 -0.130443
v 0.338123 1.163890 -0.078223
v 0.262030 1.163890 -0.122179
v 0.322859 1.157207 -0.222809
v 0.394906 1.157207 -0.181190
v 0.366344 1.217726 -0.131746
v 0.294297 1.217726 -0.173365
v 0.352399 1.212346 -0.269446
v 0.420548 1.212346 -0.230078
v 0.393531 1.269590 -0.183309
v 0.325382 1.269590 -0.222677
v 0.381036 1.265800 -0.314658
v 0.445406 1.265800 -0.277473
v 0.419888 1.319870 -0.233298
v 0.355518 1.319870 -0.270482
v 0.147224 0.576288 0.068858
v 0.050079 0.600468 0.073695
v 0.054916 0.638434 -0.018936
v 0.152061 0.614254 -0.023773
v 0.170266 0.654430 0.104020
v 0.069661 0.679471 0.109029
v 0.074670 0.718789 0.013099
v 0.175276 0.693748 0.008090
v 0.194214 0.735643 0.140564
v 0.090012 0.761579 0.145752
v 0.095201 0.802302 0.046393
v 0.199403 0.776366 0.041204
v 0.204559 0.279341 0.117408
v -0.041149 0.279341 0.117408
v -0.041149 0.279341 -0.128299
v 0.204559 0.279341 -0.128299
v 0.163683 0.420238 0.076532
v -0.000273 0.420238 0.076532
v -0.000273 0.420238 -0.087423
v 0.163683 0.420238 -0.087423
vn 0.2684 0.8855 -0.3793
vn -0.8288 0.0123 -0.5594
vn -0.9871 0.0151 0.1591
vn -0.3188 0.5413 -0.7781
vn -0.2938 -0.8610 0.4152
vn 0.8034 0.0123 0.5953
vn 0.7281 -0.4397 -0.5258
vn 0.0025 0.9909 0.1342
vn -0.3043 -0.2312 -0.9241
vn 0.8420 -0.0258 0.5389
vn 0.2881 0.9200 -0.2656
vn -0.9399 -0.2816 -0.1931
vn -0.2905 -0.6733 0.6799
vn -0.7577 0.0405 -0.6513
vn 0.3638 0.6863 -0.6298
vn 0.8461 -0.0863 0.5260
vn -0.6112 0.7783 -0.1437
vn -0.5045 0.4868 0.7131
vn -0.0000 -1.0000 -0.0000
vn -0.7726 -0.6083 -0.1817
vn 0.1474 0.0288 -0.9887
vn 0.7809 0.5457 0.3039
vn -0.2666 0.0227 0.9636
vn 0.2136 0.0194 -0.9767
vn 0.7422 0.6471 0.1745
vn -0.2440 0.0194 0.9696
vn 0.3536 -0.7072 -0.6122
vn 0.8760 0.0198 0.4818
vn -0.2829 0.7723 0.5688
vn -0.8553 0.0198 -0.5178
vn -0.3326 0.7468 0.5758
vn -0.8550 0.0198 -0.5182
vn -0.3326 0.7469 0.5758
vn -0.0489 -0.4127 0.9096
vn -0.9744 0.2220 0.0359
vn 0.0372 0.3543 -0.9344
vn 0.9620 -0.2685 -0.0504
vn -0.0531 -0.3967 0.9164
vn -0.9739 0.2232 0.0406
vn 0.0434 0.3607 -0.9317
vn 0.9642 -0.2592 -0.0559
vn -0.0000 0.2786 0.9604
vn -0.9604 0.2786 -0.0000
vn -0.0000 0.2786 -0.9604
vn 0.9604 0.2786 -0.0000
vn 0.0186 0.3089 0.9509
vn -0.9632 0.2685 0.0152
vn 0.0079 0.2657 -0.9640
vn 0.9549 0.2957 0.0259
s 0
usemtl Material.036
f 71//61 72//61 68//61 67//61
f 70//62 71//62 67//62 66//62
f 164//63 58//63 59//63 93//63
f 128//64 94//64 95//64
f 69//65 70//65 66//65 65//65
f 68//66 65//66 61//66 64//66
f 163//67 166//67 128//67 129//67
f 67//61 68//61 64//61 63//61
f 60//68 130//68 95//68 59//68
f 66//62 67//62 63//62 62//62
f 166//69 165//69 94//69 128//69
f 60//70 57//70 130//70
f 65//65 66//65 62//65 61//65
f 64//66 61//66 57//66 60//66
f 63//71 64//71 60//71 59//71
f 164//72 93//72 94//72 165//72
f 164//73 163//73 57//73 58//73
f 62//74 63//74 59//74 58//74
f 61//65 62//65 58//65 57//65
f 52//75 51//75 50//75 49//75
f 57//76 163//76 129//76 130//76
f 48//77 47//77 46//77 45//77
f 44//78 43//78 42//78 41//78
f 37//79 38//79 39//79 40//79
f 72//66 69//66 65//66 68//66
f 73//65 74//65 70//65 69//65
f 74//62 75//62 71//62 70//62
f 75//61 76//61 72//61 71//61
f 76//66 73//66 69//66 72//66
f 77//65 78//65 74//65 73//65
f 78//62 79//62 75//62 74//62
f 79//61 80//61 76//61 75//61
f 80//66 77//66 73//66 76//66
f 81//65 82//65 78//65 77//65
f 82//62 83//62 79//62 78//62
f 83//61 84//61 80//61 79//61
f 84//66 81//66 77//66 80//66
f 85//65 86//65 82//65 81//65
f 86//62 87//62 83//62 82//62
f 87//61 88//61 84//61 83//61
f 88//66 85//66 81//66 84//66
f 89//65 90//65 86//65 85//65
f 90//62 91//62 87//62 86//62
f 91//61 92//61 88//61 87//61
f 92//66 89//66 85//66 88//66
f 41//65 42//65 90//65 89//65
f 42//62 43//62 91//62 90//62
f 43//61 44//61 92//61 91//61
f 44//66 41//66 89//66 92//66
f 96//80 97//80 94//80 93//80
f 97//81 98//81 95//81 94//81
f 98//82 99//82 59//82 95//82
f 99//83 96//83 93//83 59//83
f 100//80 101//80 97//80 96//80
f 101//84 102//84 98//84 97//84
f 102//85 103//85 99//85 98//85
f 103//86 100//86 96//86 99//86
f 104//80 105//80 101//80 100//80
f 105//84 106//84 102//84 101//84
f 106//85 107//85 103//85 102//85
f 107//86 104//86 100//86 103//86
f 108//80 109//80 105//80 104//80
f 109//84 110//84 106//84 105//84
f 110//85 111//85 107//85 106//85
f 111//86 108//86 104//86 107//86
f 112//80 113//80 109//80 108//80
f 113//84 114//84 110//84 109//84
f 114//85 115//85 111//85 110//85
f 115//86 112//86 108//86 111//86
f 116//80 117//80 113//80 112//80
f 117//84 118//84 114//84 113//84
f 118//85 119//85 115//85 114//85
f 119//86 116//86 112//86 115//86
f 120//80 121//80 117//80 116//80
f 121//84 122//84 118//84 117//84
f 122//85 123//85 119//85 118//85
f 123//86 120//86 116//86 119//86
f 124//80 125//80 121//80 120//80
f 125//84 126//84 122//84 121//84
f 126//85 127//85 123//85 122//85
f 127//86 124//86 120//86 123//86
f 45//80 46//80 125//80 124//80
f 46//84 47//84 126//84 125//84
f 47//85 48//85 127//85 126//85
f 48//86 45//86 124//86 127//86
f 131//87 132//87 129//87 128//87
f 132//88 133//88 130//88 129//88
f 133//89 134//89 95//89 130//89
f 134//90 131//90 128//90 95//90
f 135//87 136//87 132//87 131//87
f 136//88 137//88 133//88 132//88
f 137//91 138//91 134//91 133//91
f 138//92 135//92 131//92 134//92
f 139//87 140//87 136//87 135//87
f 140//88 141//88 137//88 136//88
f 141//91 142//91 138//91 137//91
f 142//92 139//92 135//92 138//92
f 143//87 144//87 140//87 139//87
f 144//88 145//88 141//88 140//88
f 145//93 146//93 142//93 141//93
f 146//92 143//92 139//92 142//92
f 147//87 148//87 144//87 143//87
f 148//88 149//88 145//88 144//88
f 149//91 150//91 146//91 145//91
f 150//92 147//92 143//92 146//92
f 151//87 152//87 148//87 147//87
f 152//88 153//88 149//88 148//88
f 153//91 154//91 150//91 149//91
f 154//92 151//92 147//92 150//92
f 49//87 50//87 152//87 151//87
f 50//88 51//88 153//88 152//88
f 51//91 52//91 154//91 153//91
f 52//92 49//92 151//92 154//92
f 155//94 156//94 54//94 53//94
f 156//95 157//95 55//95 54//95
f 157//96 158//96 56//96 55//96
f 158//97 155//97 53//97 56//97
f 159//98 160//98 156//98 155//98
f 160//99 161//99 157//99 156//99
f 161//100 162//100 158//100 157//100
f 162//101 159//101 155//101 158//101
f 163//98 164//98 160//98 159//98
f 164//99 165//99 161//99 160//99
f 165//100 166//100 162//100 161//100
f 166//101 163//101 159//101 162//101
f 167//102 168//102 38//102 37//102
f 168//103 169//103 39//103 38//103
f 169//104 170//104 40//104 39//104
f 170//105 167//105 37//105 40//105
f 171//102 172//102 168//102 167//102
f 172//103 173//103 169//103 168//103
f 173//104 174//104 170//104 169//104
f 174//105 171//105 167//105 170//105
f 53//106 54//106 172//106 171//106
f 54//107 55//107 173//107 172//107
f 55//108 56//108 174//108 173//108
f 56//109 53//109 171//109 174//109
