# Blender 4.0.1
# www.blender.org
mtllib dtree2C(F274).mtl
o Icosphere.099
v -0.088179 1.140995 0.319824
v 0.116341 1.272942 0.498116
v -0.195370 1.230183 0.598338
v -0.435785 1.232358 0.323829
v -0.198649 1.264240 0.019673
v 0.144815 1.240273 0.177855
v -0.009916 1.632609 0.592825
v -0.362170 1.621142 0.499978
v -0.379440 1.605774 0.109076
v -0.011785 1.575941 0.002535
v 0.233866 1.597733 0.309337
v -0.101645 1.706625 0.284602
vn 0.2445 -0.8922 0.3798
vn 0.4548 -0.8810 0.1303
vn -0.2464 -0.9465 0.2083
vn -0.2465 -0.9250 -0.2891
vn 0.1293 -0.8997 -0.4170
vn 0.9535 -0.2792 0.1133
vn 0.3200 -0.1346 0.9378
vn -0.7439 -0.1538 0.6503
vn -0.7536 -0.2386 -0.6125
vn 0.3855 -0.2795 -0.8794
vn 0.7605 0.0979 0.6419
vn -0.2567 0.1314 0.9575
vn -0.9848 0.1698 0.0368
vn -0.2686 0.1084 -0.9571
vn 0.7788 0.0363 -0.6262
vn 0.2965 0.9449 0.1387
vn -0.0999 0.9603 0.2603
vn -0.3285 0.9442 -0.0226
vn -0.0526 0.8996 -0.4336
vn 0.3139 0.8957 -0.3150
vt 0.181819 0.000000
vt 0.272728 0.157461
vt 0.090910 0.157461
vt 0.363637 0.000000
vt 0.454546 0.157461
vt 0.909091 0.000000
vt 1.000000 0.157461
vt 0.818182 0.157461
vt 0.727273 0.000000
vt 0.636364 0.157461
vt 0.545455 0.000000
vt 0.363637 0.314921
vt 0.181819 0.314921
vt 0.909091 0.314921
vt 0.727273 0.314921
vt 0.545455 0.314921
vt 0.000000 0.314921
vt 0.272728 0.472382
vt 0.090910 0.472382
vt 0.818182 0.472382
vt 0.636364 0.472382
vt 0.454546 0.472382
s 0
usemtl Material.025
f 1/1/1 2/2/1 3/3/1
f 2/2/2 1/4/2 6/5/2
f 1/6/3 3/7/3 4/8/3
f 1/9/4 4/8/4 5/10/4
f 1/11/5 5/10/5 6/5/5
f 2/2/6 6/5/6 11/12/6
f 3/3/7 2/2/7 7/13/7
f 4/8/8 3/7/8 8/14/8
f 5/10/9 4/8/9 9/15/9
f 6/5/10 5/10/10 10/16/10
f 2/2/11 11/12/11 7/13/11
f 3/3/12 7/13/12 8/17/12
f 4/8/13 8/14/13 9/15/13
f 5/10/14 9/15/14 10/16/14
f 6/5/15 10/16/15 11/12/15
f 7/13/16 11/12/16 12/18/16
f 8/17/17 7/13/17 12/19/17
f 9/15/18 8/14/18 12/20/18
f 10/16/19 9/15/19 12/21/19
f 11/12/20 10/16/20 12/22/20
o Icosphere.098
v -0.620020 1.126165 -0.320242
v -0.294181 1.314211 -0.083509
v -0.744477 1.314211 0.237092
v -1.022782 1.314211 -0.320242
v -0.744477 1.314211 -0.881836
v -0.294181 1.314211 -0.735523
v -1.024907 2.200750 0.250217
v -0.945859 2.313173 -0.756577
v -0.217175 1.997449 -0.305274
v -0.642246 2.475029 -0.337788
v -0.539988 2.296766 0.336418
v -0.420308 2.268498 -0.950748
vn 0.2562 -0.8971 0.3599
vn 0.4998 -0.8661 -0.0000
vn -0.4139 -0.8865 0.2067
vn -0.4140 -0.8868 -0.2052
vn 0.1096 -0.9350 -0.3374
vn 0.9937 -0.1120 -0.0000
vn 0.8999 0.0395 0.4343
vn -0.8593 -0.2782 0.4291
vn -0.8891 -0.1240 -0.4406
vn -0.3425 0.0486 -0.9383
vn -0.2343 0.9305 0.2816
vn -0.9963 0.0447 -0.0732
vn 0.7447 0.6659 0.0453
vn -0.5262 0.8487 0.0535
vn 0.3045 -0.1711 -0.9370
vn -0.1620 -0.0658 0.9846
vn 0.9593 0.0648 -0.2747
vn 0.7433 0.6659 0.0633
vn -0.0429 0.9420 -0.3329
vn 0.5684 -0.1990 0.7983
vt 0.181819 0.000000
vt 0.272728 0.157461
vt 0.090910 0.157461
vt 0.363637 0.000000
vt 0.454546 0.157461
vt 0.909091 0.000000
vt 1.000000 0.157461
vt 0.818182 0.157461
vt 0.727273 0.000000
vt 0.636364 0.157461
vt 0.545455 0.000000
vt 0.363637 0.314921
vt 0.200480 0.282598
vt 0.909091 0.314921
vt 0.727273 0.314921
vt 0.566020 0.279301
vt 0.000000 0.314921
vt 0.154221 0.362723
vt 0.090910 0.472382
vt 0.502192 0.314921
vt 0.454546 0.472382
vt 0.818182 0.472382
vt 0.526170 0.281517
vt 0.163737 0.283602
vt 0.233140 0.314921
vt 0.272728 0.472382
vt 0.597441 0.314921
vt 0.636364 0.472382
vt 0.200480 0.282598
s 0
usemtl Material.025
f 13/23/21 14/24/21 15/25/21
f 14/24/22 13/26/22 18/27/22
f 13/28/23 15/29/23 16/30/23
f 13/31/24 16/30/24 17/32/24
f 13/33/25 17/32/25 18/27/25
f 14/24/26 18/27/26 21/34/26
f 21/34/27 23/35/27 14/24/27
f 16/30/28 15/29/28 19/36/28
f 17/32/29 16/30/29 20/37/29
f 20/37/30 24/38/30 17/32/30
f 19/39/31 23/40/31 22/41/31
f 16/30/32 19/36/32 20/37/32
f 24/42/33 22/43/33 21/34/33
f 20/37/34 19/36/34 22/44/34
f 17/32/35 24/45/35 18/27/35
f 23/46/36 19/39/36 15/25/36
f 24/45/37 21/34/37 18/27/37
f 23/47/38 21/34/38 22/48/38
f 24/49/39 20/37/39 22/50/39
f 15/25/40 14/24/40 23/51/40
o Icosphere.097
v 0.017257 1.019596 -0.728209
v 0.284313 1.252227 -0.534184
v -0.082748 1.229057 -0.428608
v -0.263121 1.151851 -0.728209
v -0.084748 1.151851 -0.994935
v 0.265167 1.210197 -0.879818
v 0.110392 1.550066 -0.515164
v -0.232157 1.537206 -0.578004
v -0.166237 1.551340 -0.931506
v 0.116367 1.552373 -0.920814
v 0.347359 1.588389 -0.728209
v 0.017257 1.661418 -0.728209
vn 0.2228 -0.7625 0.6074
vn 0.6309 -0.7736 0.0591
vn -0.3831 -0.8122 0.4400
vn -0.4103 -0.8697 -0.2744
vn 0.3029 -0.8027 -0.5138
vn 0.9792 -0.2008 -0.0298
vn 0.2695 0.0962 0.9582
vn -0.8313 -0.1426 0.5372
vn -0.8285 -0.0810 -0.5541
vn 0.3093 0.0206 -0.9507
vn 0.6080 0.3083 0.7317
vn -0.1815 0.3563 0.9166
vn -0.9735 0.1467 -0.1757
vn 0.0367 0.1640 -0.9858
vn 0.6143 0.1749 -0.7694
vn 0.1994 0.9015 0.3840
vn -0.1242 0.8561 0.5017
vn -0.4703 0.8809 -0.0525
vn 0.0152 0.8734 -0.4867
vn 0.1976 0.8932 -0.4040
vt 0.181819 0.000000
vt 0.272728 0.157461
vt 0.090910 0.157461
vt 0.363637 0.000000
vt 0.454546 0.157461
vt 0.909091 0.000000
vt 1.000000 0.157461
vt 0.818182 0.157461
vt 0.727273 0.000000
vt 0.636364 0.157461
vt 0.545455 0.000000
vt 0.363637 0.314921
vt 0.181819 0.314921
vt 0.909091 0.314921
vt 0.727273 0.314921
vt 0.545455 0.314921
vt 0.000000 0.314921
vt 0.272728 0.472382
vt 0.090910 0.472382
vt 0.818182 0.472382
vt 0.636364 0.472382
vt 0.454546 0.472382
s 0
usemtl Material.025
f 25/52/41 26/53/41 27/54/41
f 26/53/42 25/55/42 30/56/42
f 25/57/43 27/58/43 28/59/43
f 25/60/44 28/59/44 29/61/44
f 25/62/45 29/61/45 30/56/45
f 26/53/46 30/56/46 35/63/46
f 27/54/47 26/53/47 31/64/47
f 28/59/48 27/58/48 32/65/48
f 29/61/49 28/59/49 33/66/49
f 30/56/50 29/61/50 34/67/50
f 26/53/51 35/63/51 31/64/51
f 27/54/52 31/64/52 32/68/52
f 28/59/53 32/65/53 33/66/53
f 29/61/54 33/66/54 34/67/54
f 30/56/55 34/67/55 35/63/55
f 31/64/56 35/63/56 36/69/56
f 32/68/57 31/64/57 36/70/57
f 33/66/58 32/65/58 36/71/58
f 34/67/59 33/66/59 36/72/59
f 35/63/60 34/67/60 36/73/60
o Icosphere.096
v -0.324170 0.804953 0.471602
v -0.129854 0.868902 0.569952
v -0.367257 0.851171 0.677884
v -0.474453 0.866775 0.444322
v -0.380421 0.866041 0.313336
v -0.151670 0.892750 0.366945
v -0.268743 1.092712 0.675862
v -0.466112 1.063969 0.615111
v -0.458123 1.086551 0.374354
v -0.233297 1.061841 0.304118
v -0.102599 1.075487 0.481804
v -0.322207 1.153937 0.465931
vn 0.1853 -0.9499 0.2515
vn 0.3759 -0.9148 -0.1479
vn -0.3964 -0.9101 0.1211
vn -0.3332 -0.9133 -0.2341
vn 0.2007 -0.8879 -0.4140
vn 0.9751 -0.1825 -0.1262
vn 0.4184 -0.1632 0.8935
vn -0.8759 -0.2941 0.3824
vn -0.8064 -0.1242 -0.5782
vn 0.2474 -0.2302 -0.9411
vn 0.7560 0.1700 0.6321
vn -0.3093 0.1340 0.9415
vn -0.9975 0.0655 -0.0270
vn -0.2777 0.1641 -0.9466
vn 0.7891 0.1607 -0.5928
vn 0.3181 0.9289 0.1899
vn -0.2339 0.9157 0.3266
vn -0.4787 0.8755 0.0662
vn -0.0697 0.8500 -0.5221
vn 0.3393 0.8855 -0.3176
vt 0.181819 0.000000
vt 0.272728 0.157461
vt 0.090910 0.157461
vt 0.363637 0.000000
vt 0.454546 0.157461
vt 0.909091 0.000000
vt 1.000000 0.157461
vt 0.818182 0.157461
vt 0.727273 0.000000
vt 0.636364 0.157461
vt 0.545455 0.000000
vt 0.363637 0.314921
vt 0.181819 0.314921
vt 0.909091 0.314921
vt 0.727273 0.314921
vt 0.545455 0.314921
vt 0.000000 0.314921
vt 0.272728 0.472382
vt 0.090910 0.472382
vt 0.818182 0.472382
vt 0.636364 0.472382
vt 0.454546 0.472382
s 0
usemtl Material.025
f 37/74/61 38/75/61 39/76/61
f 38/75/62 37/77/62 42/78/62
f 37/79/63 39/80/63 40/81/63
f 37/82/64 40/81/64 41/83/64
f 37/84/65 41/83/65 42/78/65
f 38/75/66 42/78/66 47/85/66
f 39/76/67 38/75/67 43/86/67
f 40/81/68 39/80/68 44/87/68
f 41/83/69 40/81/69 45/88/69
f 42/78/70 41/83/70 46/89/70
f 38/75/71 47/85/71 43/86/71
f 39/76/72 43/86/72 44/90/72
f 40/81/73 44/87/73 45/88/73
f 41/83/74 45/88/74 46/89/74
f 42/78/75 46/89/75 47/85/75
f 43/86/76 47/85/76 48/91/76
f 44/90/77 43/86/77 48/92/77
f 45/88/78 44/87/78 48/93/78
f 46/89/79 45/88/79 48/94/79
f 47/85/80 46/89/80 48/95/80
o Cube.024
v 0.148764 0.000000 0.121785
v -0.113157 0.000000 0.121785
v -0.113157 0.000000 -0.140136
v 0.148764 0.000000 -0.140136
v -0.735431 1.372549 -0.304339
v -0.720501 1.372549 -0.373580
v -0.681729 1.431235 -0.365219
v -0.696659 1.431235 -0.295978
v -0.274178 0.904380 0.476833
v -0.334338 0.920797 0.443239
v -0.300292 0.971160 0.406883
v -0.240133 0.954742 0.440477
v -0.210298 0.708938 0.266189
v -0.266446 0.716921 0.223752
v -0.234017 0.770682 0.190960
v -0.177869 0.762699 0.233397
v -0.007191 1.186169 -0.579801
v 0.061881 1.186169 -0.564108
v 0.052739 1.243740 -0.523869
v -0.016333 1.243740 -0.539562
v -0.245409 1.312702 0.385292
v -0.311445 1.312702 0.359669
v -0.297297 1.371758 0.323208
v -0.231262 1.371758 0.348831
v -0.076764 0.961094 -0.273584
v -0.007692 0.961094 -0.257891
v -0.016834 1.018666 -0.217652
v -0.085816 1.018918 -0.235025
v -0.065168 0.998607 -0.324620
v 0.003904 0.998607 -0.308927
v -0.005238 1.056178 -0.268688
v -0.074311 1.056178 -0.284382
v -0.053573 1.036119 -0.375656
v 0.015499 1.036119 -0.359963
v 0.006357 1.093690 -0.319724
v -0.062715 1.093690 -0.335418
v -0.041977 1.073632 -0.426693
v 0.027095 1.073632 -0.410999
v 0.017952 1.131203 -0.370761
v -0.051120 1.131203 -0.386454
v -0.030382 1.111144 -0.477729
v 0.038690 1.111144 -0.462036
v 0.029548 1.168715 -0.421797
v -0.039524 1.168715 -0.437490
v -0.018786 1.148656 -0.528765
v 0.050286 1.148656 -0.513072
v 0.041143 1.206228 -0.472833
v -0.027929 1.206228 -0.488526
v -0.139427 0.960485 -0.175825
v -0.124497 0.960485 -0.245066
v -0.103145 1.020027 -0.169103
v -0.193610 0.997945 -0.187508
v -0.178679 0.997945 -0.256749
v -0.139908 1.056631 -0.248389
v -0.154838 1.056631 -0.179148
v -0.247792 1.035405 -0.199191
v -0.232862 1.035405 -0.268432
v -0.194090 1.094092 -0.260072
v -0.209020 1.094092 -0.190831
v -0.301974 1.072866 -0.210874
v -0.287044 1.072866 -0.280115
v -0.248272 1.131552 -0.271755
v -0.263202 1.131552 -0.202514
v -0.356156 1.110326 -0.222557
v -0.341226 1.110326 -0.291798
v -0.302454 1.169012 -0.283438
v -0.317384 1.169012 -0.214197
v -0.410338 1.147786 -0.234240
v -0.395408 1.147786 -0.303481
v -0.356636 1.206473 -0.295121
v -0.371566 1.206473 -0.225880
v -0.464520 1.185247 -0.245923
v -0.449590 1.185247 -0.315164
v -0.410818 1.243933 -0.306804
v -0.425748 1.243933 -0.237563
v -0.518702 1.222707 -0.257606
v -0.503772 1.222707 -0.326847
v -0.465001 1.281394 -0.318487
v -0.479931 1.281394 -0.249246
v -0.572885 1.260168 -0.269289
v -0.557954 1.260168 -0.338530
v -0.519183 1.318854 -0.330170
v -0.534113 1.318854 -0.260929
v -0.627067 1.297628 -0.280972
v -0.612137 1.297628 -0.350213
v -0.573365 1.356314 -0.341853
v -0.588295 1.356314 -0.272612
v -0.681249 1.335088 -0.292656
v -0.666319 1.335088 -0.361897
v -0.627547 1.393775 -0.353536
v -0.642477 1.393775 -0.284295
v -0.055023 0.557817 -0.065188
v 0.030197 0.557817 -0.100212
v 0.062326 0.594489 -0.022033
v -0.034450 0.587276 0.001338
v -0.064107 0.629106 -0.092542
v 0.017420 0.629106 -0.126048
v 0.048158 0.664189 -0.051256
v -0.033369 0.664189 -0.017750
v -0.072570 0.695522 -0.118026
v 0.005518 0.695522 -0.150119
v 0.034958 0.729125 -0.078483
v -0.043129 0.729125 -0.046390
v -0.080654 0.758960 -0.142368
v -0.005851 0.758960 -0.173110
v 0.022351 0.791148 -0.104488
v -0.052451 0.791148 -0.073746
v -0.088466 0.820270 -0.165893
v -0.016839 0.820270 -0.195330
v 0.010166 0.851092 -0.129621
v -0.061461 0.851092 -0.100184
v -0.096069 0.879937 -0.188787
v -0.027533 0.879937 -0.216954
v -0.001693 0.909429 -0.154080
v -0.070229 0.909429 -0.125913
v -0.222116 0.746012 0.306206
v -0.282275 0.762429 0.272613
v -0.248230 0.812792 0.236256
v -0.188071 0.796374 0.269850
v -0.235131 0.785604 0.348863
v -0.295291 0.802021 0.315269
v -0.261246 0.852384 0.278913
v -0.201086 0.835966 0.312507
v -0.248147 0.825196 0.391520
v -0.308306 0.841613 0.357926
v -0.274261 0.891976 0.321570
v -0.214102 0.875558 0.355164
v -0.261163 0.864788 0.434176
v -0.321322 0.881205 0.400583
v -0.287277 0.931568 0.364227
v -0.227117 0.915151 0.397820
v -0.020237 0.506506 0.092877
v -0.084597 0.506506 0.027919
v 0.018353 0.580064 0.054643
v -0.062715 0.551834 0.131754
v -0.123865 0.551834 0.070036
v -0.087200 0.621722 0.033709
v -0.026050 0.621722 0.095427
v -0.102290 0.594064 0.167973
v -0.160449 0.594064 0.109274
v -0.125577 0.660534 0.074723
v -0.067419 0.660534 0.133423
v -0.140090 0.634399 0.202568
v -0.195392 0.634399 0.146752
v -0.162233 0.697604 0.113899
v -0.106932 0.697604 0.169715
v -0.176623 0.673382 0.236003
v -0.229164 0.673382 0.182974
v -0.197661 0.733432 0.151761
v -0.145120 0.733432 0.204790
v 0.109917 0.230990 0.082938
v -0.074310 0.230990 0.082938
v -0.074310 0.230990 -0.101289
v 0.109917 0.230990 -0.101289
v 0.086303 0.371405 0.059324
v -0.050696 0.371405 0.059324
v -0.050696 0.371405 -0.077675
v 0.086303 0.371405 -0.077675
v -0.053746 0.961826 -0.108657
v -0.119782 0.961826 -0.134280
v -0.039599 1.020882 -0.145118
v -0.075042 1.000812 -0.053773
v -0.141078 1.000812 -0.079397
v -0.126930 1.059868 -0.115858
v -0.060895 1.059868 -0.090234
v -0.096338 1.039798 0.001110
v -0.162374 1.039798 -0.024513
v -0.148226 1.098855 -0.060974
v -0.082190 1.098855 -0.035351
v -0.117634 1.078784 0.055993
v -0.183669 1.078784 0.030370
v -0.169522 1.137841 -0.006091
v -0.103486 1.137841 0.019532
v -0.138930 1.117770 0.110876
v -0.204965 1.117770 0.085253
v -0.190818 1.176827 0.048792
v -0.124782 1.176827 0.074415
v -0.160226 1.156757 0.165759
v -0.226261 1.156757 0.140136
v -0.212114 1.215813 0.103675
v -0.146078 1.215813 0.129298
v -0.181522 1.195743 0.220643
v -0.247557 1.195743 0.195019
v -0.233409 1.254799 0.158558
v -0.167374 1.254799 0.184182
v -0.202818 1.234729 0.275526
v -0.268853 1.234729 0.249903
v -0.254705 1.293786 0.213442
v -0.188670 1.293786 0.239065
v -0.224114 1.273715 0.330409
v -0.290149 1.273715 0.304786
v -0.276001 1.332772 0.268325
v -0.209966 1.332772 0.293948
vn 0.1291 -0.8128 -0.5681
vn -0.9751 -0.0000 -0.2216
vn -0.1291 0.8128 0.5681
vn 0.9751 -0.0000 0.2216
vn 0.9625 0.2231 0.1541
vn -0.3028 -0.1649 0.9387
vn -0.3552 -0.1897 0.9153
vn 0.6916 0.2405 0.6811
vn -0.4648 0.4397 -0.7685
vn -0.9801 -0.1256 -0.1540
vn -0.8116 0.4529 0.3692
vn -0.9745 -0.0004 -0.2245
vn -0.1354 0.8093 0.5716
vn -0.8770 -0.4417 -0.1891
vn -0.3016 0.5521 0.7773
vn -0.0333 0.9855 0.1663
vn -0.1555 -0.0518 -0.9865
vn -0.8455 0.5333 0.0253
vn 0.1801 0.5826 -0.7926
vn -0.2182 0.6639 0.7153
vn -0.8099 0.5600 -0.1746
vn -0.0000 -1.0000 -0.0000
vn 0.9743 0.1473 -0.1706
vn -0.3332 -0.6421 -0.6904
vn 0.0027 0.9997 -0.0232
vn -0.7178 -0.5177 0.4655
vn 0.6333 -0.0409 0.7729
vn 0.6460 -0.4638 -0.6063
vn -0.5474 -0.8285 -0.1180
vn 0.2272 0.0028 -0.9738
vn 0.5517 0.8246 0.1249
vn -0.1998 0.0018 0.9798
vn 0.2108 -0.0000 -0.9775
vn 0.5474 0.8285 0.1180
vn -0.2108 -0.0000 0.9775
vn -0.3525 -0.3741 -0.8578
vn 0.9207 0.0238 -0.3896
vn 0.2757 0.3229 0.9054
vn -0.9458 0.0495 0.3208
vn 0.3447 0.4217 0.8387
vn -0.9286 0.0238 0.3704
vn -0.4830 -0.7113 0.5106
vn -0.8488 0.2238 -0.4790
vn 0.4840 0.7091 -0.5128
vn 0.8535 -0.2364 0.4645
vn -0.4806 -0.7110 0.5133
vn -0.8493 0.2318 -0.4743
vn 0.4806 0.7110 -0.5133
vn 0.8493 -0.2318 0.4743
vn -0.4396 -0.7855 0.4355
vn -0.6154 0.0257 -0.7878
vn 0.4030 0.8472 -0.3461
vn 0.6857 0.0185 0.7277
vn -0.7213 0.0185 -0.6924
vn 0.4040 0.8225 -0.4003
vn -0.4401 -0.7854 0.4353
vn -0.7252 0.0203 -0.6882
vn 0.4067 0.8242 -0.3941
vn 0.6792 0.0309 0.7333
vn -0.0000 0.1658 0.9862
vn -0.9862 0.1658 -0.0000
vn -0.0000 0.1658 -0.9862
vn 0.9862 0.1658 -0.0000
vn -0.1997 -0.8337 0.5148
vn -0.9215 0.0058 -0.3884
vn 0.1949 0.8295 -0.5234
vn 0.9323 -0.0000 0.3617
vn -0.9323 -0.0000 -0.3617
vn 0.1997 0.8337 -0.5148
s 0
usemtl Material.026
f 93//81 94//81 90//81 89//81
f 92//82 89//82 85//82 88//82
f 91//83 92//83 88//83 87//83
f 90//84 91//84 87//84 86//84
f 74//85 75//85 209//85 162//85
f 89//81 90//81 86//81 85//81
f 181//86 204//86 203//86 180//86
f 208//87 163//87 207//87
f 88//82 85//82 81//82 84//82
f 87//83 88//83 84//83 83//83
f 86//84 87//84 83//84 82//84
f 85//81 86//81 82//81 81//81
f 142//88 182//88 180//88 203//88
f 73//89 98//89 76//89
f 140//90 205//90 204//90 181//90
f 97//91 208//91 99//91
f 84//82 81//82 77//82 80//82
f 83//83 84//83 80//83 79//83
f 82//84 83//84 79//84 78//84
f 81//81 82//81 78//81 77//81
f 80//92 77//92 73//92 76//92
f 79//93 80//93 76//93 75//93
f 78//84 79//84 75//84 74//84
f 160//94 97//94 98//94
f 77//81 78//81 74//81 73//81
f 72//95 71//95 70//95 69//95
f 142//96 143//96 182//96
f 141//97 206//97 205//97 140//97
f 140//98 181//98 143//98
f 68//99 67//99 66//99 65//99
f 60//100 59//100 58//100 57//100
f 56//101 55//101 54//101 53//101
f 49//102 50//102 51//102 52//102
f 141//103 142//103 203//103 206//103
f 160//104 98//104 73//104 161//104
f 76//105 99//105 209//105 75//105
f 97//106 160//106 163//106 208//106
f 163//107 162//107 209//107 207//107
f 73//108 74//108 162//108 161//108
f 94//84 95//84 91//84 90//84
f 95//83 96//83 92//83 91//83
f 96//82 93//82 89//82 92//82
f 65//81 66//81 94//81 93//81
f 66//84 67//84 95//84 94//84
f 67//83 68//83 96//83 95//83
f 68//82 65//82 93//82 96//82
f 100//109 101//109 98//109 97//109
f 101//110 102//110 76//110 98//110
f 102//111 103//111 99//111 76//111
f 103//112 100//112 97//112 99//112
f 104//109 105//109 101//109 100//109
f 105//113 106//113 102//113 101//113
f 106//114 107//114 103//114 102//114
f 107//115 104//115 100//115 103//115
f 108//109 109//109 105//109 104//109
f 109//113 110//113 106//113 105//113
f 110//114 111//114 107//114 106//114
f 111//115 108//115 104//115 107//115
f 112//109 113//109 109//109 108//109
f 113//113 114//113 110//113 109//113
f 114//114 115//114 111//114 110//114
f 115//115 112//115 108//115 111//115
f 116//109 117//109 113//109 112//109
f 117//113 118//113 114//113 113//113
f 118//114 119//114 115//114 114//114
f 119//115 116//115 112//115 115//115
f 120//109 121//109 117//109 116//109
f 121//113 122//113 118//113 117//113
f 122//114 123//114 119//114 118//114
f 123//115 120//115 116//115 119//115
f 124//109 125//109 121//109 120//109
f 125//113 126//113 122//113 121//113
f 126//114 127//114 123//114 122//114
f 127//115 124//115 120//115 123//115
f 128//109 129//109 125//109 124//109
f 129//113 130//113 126//113 125//113
f 130//114 131//114 127//114 126//114
f 131//115 128//115 124//115 127//115
f 132//109 133//109 129//109 128//109
f 133//113 134//113 130//113 129//113
f 134//114 135//114 131//114 130//114
f 135//115 132//115 128//115 131//115
f 136//109 137//109 133//109 132//109
f 137//113 138//113 134//113 133//113
f 138//114 139//114 135//114 134//114
f 139//115 136//115 132//115 135//115
f 53//109 54//109 137//109 136//109
f 54//113 55//113 138//113 137//113
f 55//114 56//114 139//114 138//114
f 56//115 53//115 136//115 139//115
f 144//116 145//116 141//116 140//116
f 145//117 146//117 142//117 141//117
f 146//118 147//118 143//118 142//118
f 147//119 144//119 140//119 143//119
f 148//116 149//116 145//116 144//116
f 149//117 150//117 146//117 145//117
f 150//120 151//120 147//120 146//120
f 151//121 148//121 144//121 147//121
f 152//116 153//116 149//116 148//116
f 153//117 154//117 150//117 149//117
f 154//120 155//120 151//120 150//120
f 155//121 152//121 148//121 151//121
f 156//116 157//116 153//116 152//116
f 157//117 158//117 154//117 153//117
f 158//120 159//120 155//120 154//120
f 159//121 156//121 152//121 155//121
f 160//116 161//116 157//116 156//116
f 161//117 162//117 158//117 157//117
f 162//120 163//120 159//120 158//120
f 163//121 160//121 156//121 159//121
f 164//122 165//122 62//122 61//122
f 165//123 166//123 63//123 62//123
f 166//124 167//124 64//124 63//124
f 167//125 164//125 61//125 64//125
f 168//126 169//126 165//126 164//126
f 169//127 170//127 166//127 165//127
f 170//128 171//128 167//128 166//128
f 171//129 168//129 164//129 167//129
f 172//126 173//126 169//126 168//126
f 173//127 174//127 170//127 169//127
f 174//128 175//128 171//128 170//128
f 175//129 172//129 168//129 171//129
f 176//126 177//126 173//126 172//126
f 177//127 178//127 174//127 173//127
f 178//128 179//128 175//128 174//128
f 179//129 176//129 172//129 175//129
f 57//126 58//126 177//126 176//126
f 58//127 59//127 178//127 177//127
f 59//128 60//128 179//128 178//128
f 60//129 57//129 176//129 179//129
f 183//130 184//130 181//130 180//130
f 184//131 185//131 143//131 181//131
f 185//132 186//132 182//132 143//132
f 186//133 183//133 180//133 182//133
f 187//130 188//130 184//130 183//130
f 188//134 189//134 185//134 184//134
f 189//135 190//135 186//135 185//135
f 190//133 187//133 183//133 186//133
f 191//130 192//130 188//130 187//130
f 192//134 193//134 189//134 188//134
f 193//135 194//135 190//135 189//135
f 194//133 191//133 187//133 190//133
f 195//130 196//130 192//130 191//130
f 196//134 197//134 193//134 192//134
f 197//135 198//135 194//135 193//135
f 198//133 195//133 191//133 194//133
f 61//136 62//136 196//136 195//136
f 62//137 63//137 197//137 196//137
f 63//138 64//138 198//138 197//138
f 64//139 61//139 195//139 198//139
f 199//140 200//140 50//140 49//140
f 200//141 201//141 51//141 50//141
f 201//142 202//142 52//142 51//142
f 202//143 199//143 49//143 52//143
f 203//140 204//140 200//140 199//140
f 204//141 205//141 201//141 200//141
f 205//142 206//142 202//142 201//142
f 206//143 203//143 199//143 202//143
f 210//144 211//144 208//144 207//144
f 211//145 212//145 99//145 208//145
f 212//146 213//146 209//146 99//146
f 213//147 210//147 207//147 209//147
f 214//144 215//144 211//144 210//144
f 215//148 216//148 212//148 211//148
f 216//149 217//149 213//149 212//149
f 217//147 214//147 210//147 213//147
f 218//144 219//144 215//144 214//144
f 219//148 220//148 216//148 215//148
f 220//149 221//149 217//149 216//149
f 221//147 218//147 214//147 217//147
f 222//144 223//144 219//144 218//144
f 223//148 224//148 220//148 219//148
f 224//149 225//149 221//149 220//149
f 225//147 222//147 218//147 221//147
f 226//144 227//144 223//144 222//144
f 227//148 228//148 224//148 223//148
f 228//149 229//149 225//149 224//149
f 229//147 226//147 222//147 225//147
f 230//144 231//144 227//144 226//144
f 231//148 232//148 228//148 227//148
f 232//149 233//149 229//149 228//149
f 233//147 230//147 226//147 229//147
f 234//144 235//144 231//144 230//144
f 235//148 236//148 232//148 231//148
f 236//149 237//149 233//149 232//149
f 237//147 234//147 230//147 233//147
f 238//144 239//144 235//144 234//144
f 239//148 240//148 236//148 235//148
f 240//149 241//149 237//149 236//149
f 241//147 238//147 234//147 237//147
f 69//144 70//144 239//144 238//144
f 70//148 71//148 240//148 239//148
f 71//149 72//149 241//149 240//149
f 72//147 69//147 238//147 241//147
