# Blender 4.0.1
# www.blender.org
mtllib dtree1B(F188).mtl
o Icosphere.089
v -0.108773 0.772793 0.529529
v -0.015596 0.877620 0.788380
v -0.188014 0.896808 0.887136
v -0.359018 0.848325 0.585800
v -0.200912 0.896163 0.304635
v 0.036134 0.870937 0.496359
v -0.104901 1.281242 0.874001
v -0.322711 1.277972 0.777036
v -0.327767 1.276556 0.394172
v -0.028477 1.226815 0.333027
v 0.094662 1.276839 0.652129
v -0.081508 1.309897 0.545055
vn 0.0934 -0.9341 0.3446
vn 0.5754 -0.8089 0.1205
vn -0.2204 -0.9356 0.2756
vn -0.3411 -0.8761 -0.3408
vn 0.3734 -0.7403 -0.5591
vn 0.9627 -0.2061 0.1753
vn 0.4892 -0.0761 0.8689
vn -0.8486 -0.1536 0.5063
vn -0.8477 -0.1639 -0.5046
vn 0.5940 -0.2440 -0.7666
vn 0.7435 0.0227 0.6683
vn -0.4053 0.1186 0.9065
vn -0.9968 0.0785 0.0129
vn -0.1697 0.1718 -0.9704
vn 0.9327 0.0039 -0.3605
vn 0.1275 0.9873 0.0951
vn -0.0519 0.9952 0.0830
vn -0.1330 0.9911 -0.0019
vn 0.0849 0.9347 -0.3450
vn 0.3338 0.9030 -0.2704
vt 0.181819 0.000000
vt 0.272728 0.157461
vt 0.090910 0.157461
vt 0.363637 0.000000
vt 0.454546 0.157461
vt 0.909091 0.000000
vt 1.000000 0.157461
vt 0.818182 0.157461
vt 0.727273 0.000000
vt 0.636364 0.157461
vt 0.545455 0.000000
vt 0.363637 0.314921
vt 0.181819 0.314921
vt 0.909091 0.314921
vt 0.727273 0.314921
vt 0.545455 0.314921
vt 0.000000 0.314921
vt 0.272728 0.472382
vt 0.090910 0.472382
vt 0.818182 0.472382
vt 0.636364 0.472382
vt 0.454546 0.472382
s 0
usemtl Material.005
f 1/1/1 2/2/1 3/3/1
f 2/2/2 1/4/2 6/5/2
f 1/6/3 3/7/3 4/8/3
f 1/9/4 4/8/4 5/10/4
f 1/11/5 5/10/5 6/5/5
f 2/2/6 6/5/6 11/12/6
f 3/3/7 2/2/7 7/13/7
f 4/8/8 3/7/8 8/14/8
f 5/10/9 4/8/9 9/15/9
f 6/5/10 5/10/10 10/16/10
f 2/2/11 11/12/11 7/13/11
f 3/3/12 7/13/12 8/17/12
f 4/8/13 8/14/13 9/15/13
f 5/10/14 9/15/14 10/16/14
f 6/5/15 10/16/15 11/12/15
f 7/13/16 11/12/16 12/18/16
f 8/17/17 7/13/17 12/19/17
f 9/15/18 8/14/18 12/20/18
f 10/16/19 9/15/19 12/21/19
f 11/12/20 10/16/20 12/22/20
o Icosphere.088
v -0.338061 1.126165 -0.144289
v -0.012222 1.314211 0.092444
v -0.462518 1.314211 0.413045
v -0.740824 1.314211 -0.144289
v -0.462518 1.314211 -0.705883
v -0.012222 1.314211 -0.559571
v -0.742948 2.200750 0.426170
v -0.663900 2.313173 -0.580624
v 0.064784 2.212314 -0.129321
v -0.360287 2.475029 -0.161835
v -0.258030 2.296766 0.512371
v -0.138349 2.268498 -0.774795
vn 0.2562 -0.8971 0.3599
vn 0.4998 -0.8661 -0.0000
vn -0.4139 -0.8865 0.2067
vn -0.4140 -0.8868 -0.2052
vn 0.1096 -0.9350 -0.3374
vn 0.9963 -0.0854 -0.0000
vn 0.8946 0.0333 0.4456
vn -0.8593 -0.2782 0.4291
vn -0.8891 -0.1240 -0.4406
vn -0.3425 0.0486 -0.9383
vn -0.2343 0.9305 0.2816
vn -0.9963 0.0447 -0.0732
vn 0.5286 0.8438 -0.0929
vn -0.5262 0.8487 0.0535
vn 0.3045 -0.1711 -0.9370
vn -0.1620 -0.0658 0.9846
vn 0.9537 0.0595 -0.2949
vn 0.5120 0.8465 0.1462
vn -0.0429 0.9420 -0.3329
vn 0.5684 -0.1990 0.7983
vt 0.181819 0.000000
vt 0.272728 0.157461
vt 0.090910 0.157461
vt 0.363637 0.000000
vt 0.454546 0.157461
vt 0.909091 0.000000
vt 1.000000 0.157461
vt 0.818182 0.157461
vt 0.727273 0.000000
vt 0.636364 0.157461
vt 0.545455 0.000000
vt 0.363637 0.314921
vt 0.200480 0.282598
vt 0.909091 0.314921
vt 0.727273 0.314921
vt 0.566020 0.279301
vt 0.000000 0.314921
vt 0.154221 0.362723
vt 0.090910 0.472382
vt 0.502192 0.314921
vt 0.454546 0.472382
vt 0.818182 0.472382
vt 0.526170 0.281517
vt 0.163737 0.283602
vt 0.233140 0.314921
vt 0.272728 0.472382
vt 0.597441 0.314921
vt 0.636364 0.472382
vt 0.200480 0.282598
s 0
usemtl Material.005
f 13/23/21 14/24/21 15/25/21
f 14/24/22 13/26/22 18/27/22
f 13/28/23 15/29/23 16/30/23
f 13/31/24 16/30/24 17/32/24
f 13/33/25 17/32/25 18/27/25
f 14/24/26 18/27/26 21/34/26
f 21/34/27 23/35/27 14/24/27
f 16/30/28 15/29/28 19/36/28
f 17/32/29 16/30/29 20/37/29
f 20/37/30 24/38/30 17/32/30
f 19/39/31 23/40/31 22/41/31
f 16/30/32 19/36/32 20/37/32
f 24/42/33 22/43/33 21/34/33
f 20/37/34 19/36/34 22/44/34
f 17/32/35 24/45/35 18/27/35
f 23/46/36 19/39/36 15/25/36
f 24/45/37 21/34/37 18/27/37
f 23/47/38 21/34/38 22/48/38
f 24/49/39 20/37/39 22/50/39
f 15/25/40 14/24/40 23/51/40
o Icosphere.087
v 0.033768 0.750017 -0.458212
v 0.297691 0.795090 -0.289055
v -0.062104 0.803869 -0.247631
v -0.230466 0.788425 -0.495411
v -0.042940 0.803740 -0.709290
v 0.278544 0.823963 -0.645698
v 0.121232 1.168422 -0.226088
v -0.218779 1.158737 -0.332875
v -0.152859 1.172870 -0.697386
v 0.142908 1.164308 -0.737838
v 0.326243 1.182240 -0.416944
v 0.030634 1.258652 -0.494089
vn 0.0052 -0.9682 0.2500
vn 0.2238 -0.9704 -0.0906
vn -0.1655 -0.9709 0.1730
vn -0.1177 -0.9778 -0.1733
vn 0.1081 -0.9649 -0.2395
vn 0.9938 -0.0934 -0.0609
vn 0.1109 -0.1141 0.9873
vn -0.8005 -0.2195 0.5576
vn -0.7303 -0.1964 -0.6543
vn 0.2018 -0.1802 -0.9627
vn 0.6620 0.1906 0.7249
vn -0.3007 0.0952 0.9489
vn -0.9791 0.1068 -0.1729
vn -0.1357 -0.0085 -0.9907
vn 0.8453 0.2030 -0.4943
vn 0.1776 0.9493 0.2595
vn -0.1387 0.9235 0.3578
vn -0.3911 0.9197 -0.0351
vn -0.0238 0.9286 -0.3704
vn 0.2979 0.9284 -0.2221
vt 0.181819 0.000000
vt 0.272728 0.157461
vt 0.090910 0.157461
vt 0.363637 0.000000
vt 0.454546 0.157461
vt 0.909091 0.000000
vt 1.000000 0.157461
vt 0.818182 0.157461
vt 0.727273 0.000000
vt 0.636364 0.157461
vt 0.545455 0.000000
vt 0.363637 0.314921
vt 0.181819 0.314921
vt 0.909091 0.314921
vt 0.727273 0.314921
vt 0.545455 0.314921
vt 0.000000 0.314921
vt 0.272728 0.472382
vt 0.090910 0.472382
vt 0.818182 0.472382
vt 0.636364 0.472382
vt 0.454546 0.472382
s 0
usemtl Material.005
f 25/52/41 26/53/41 27/54/41
f 26/53/42 25/55/42 30/56/42
f 25/57/43 27/58/43 28/59/43
f 25/60/44 28/59/44 29/61/44
f 25/62/45 29/61/45 30/56/45
f 26/53/46 30/56/46 35/63/46
f 27/54/47 26/53/47 31/64/47
f 28/59/48 27/58/48 32/65/48
f 29/61/49 28/59/49 33/66/49
f 30/56/50 29/61/50 34/67/50
f 26/53/51 35/63/51 31/64/51
f 27/54/52 31/64/52 32/68/52
f 28/59/53 32/65/53 33/66/53
f 29/61/54 33/66/54 34/67/54
f 30/56/55 34/67/55 35/63/55
f 31/64/56 35/63/56 36/69/56
f 32/68/57 31/64/57 36/70/57
f 33/66/58 32/65/58 36/71/58
f 34/67/59 33/66/59 36/72/59
f 35/63/60 34/67/60 36/73/60
o Cube.022
v -0.096550 -0.004053 0.123418
v -0.348839 -0.004053 0.053044
v -0.278499 0.004053 -0.199124
v -0.026210 0.004053 -0.128751
v -0.359930 1.393569 -0.162401
v -0.305696 1.393569 -0.207964
v -0.261410 1.410215 -0.155249
v -0.315643 1.410215 -0.109686
v -0.018624 0.877367 -0.409738
v 0.043470 0.877367 -0.375657
v 0.025011 0.936909 -0.342024
v -0.037084 0.936909 -0.376105
v -0.259639 1.005390 0.556412
v -0.329368 1.005390 0.543955
v -0.322229 1.063437 0.503996
v -0.252501 1.063437 0.516453
v -0.186693 0.652293 -0.103521
v -0.124598 0.652293 -0.069440
v -0.148250 0.713910 -0.031271
v -0.201441 0.705588 -0.074669
v -0.158681 0.689805 -0.154557
v -0.096587 0.689805 -0.120476
v -0.115047 0.749347 -0.086844
v -0.177141 0.749347 -0.120924
v -0.130670 0.727317 -0.205593
v -0.068576 0.727317 -0.171513
v -0.087035 0.786860 -0.137880
v -0.149130 0.786860 -0.171961
v -0.102659 0.764830 -0.256630
v -0.040564 0.764830 -0.222549
v -0.059024 0.824372 -0.188916
v -0.121118 0.824372 -0.222997
v -0.074647 0.802342 -0.307666
v -0.012553 0.802342 -0.273585
v -0.031012 0.861885 -0.239952
v -0.093107 0.861885 -0.274033
v -0.046636 0.839855 -0.358702
v 0.015459 0.839855 -0.324621
v -0.003001 0.899397 -0.290988
v -0.065095 0.899397 -0.325069
v -0.251962 0.699340 -0.033887
v -0.220831 0.714274 0.014437
v -0.261777 0.762452 -0.045570
v -0.207544 0.762452 -0.091133
v -0.163257 0.779098 -0.038418
v -0.217491 0.779098 0.007144
v -0.271593 0.825563 -0.057253
v -0.217359 0.825563 -0.102816
v -0.173073 0.842209 -0.050101
v -0.227306 0.842209 -0.004539
v -0.281408 0.888675 -0.068936
v -0.227174 0.888675 -0.114499
v -0.182888 0.905321 -0.061785
v -0.237121 0.905321 -0.016222
v -0.291223 0.951787 -0.080619
v -0.236990 0.951787 -0.126182
v -0.192703 0.968433 -0.073468
v -0.246936 0.968433 -0.027905
v -0.301038 1.014899 -0.092303
v -0.246805 1.014899 -0.137865
v -0.202518 1.031544 -0.085151
v -0.256752 1.031544 -0.039588
v -0.310854 1.078010 -0.103986
v -0.256620 1.078010 -0.149548
v -0.212333 1.094656 -0.096834
v -0.266567 1.094656 -0.051271
v -0.320669 1.141122 -0.115669
v -0.266435 1.141122 -0.161231
v -0.222149 1.157768 -0.108517
v -0.276382 1.157768 -0.062954
v -0.330484 1.204234 -0.127352
v -0.276251 1.204234 -0.172915
v -0.231964 1.220880 -0.120200
v -0.286197 1.220880 -0.074637
v -0.340299 1.267345 -0.139035
v -0.286066 1.267345 -0.184598
v -0.241779 1.283991 -0.131883
v -0.296013 1.283991 -0.086320
v -0.350114 1.330457 -0.150718
v -0.295881 1.330457 -0.196281
v -0.251594 1.347103 -0.143566
v -0.305828 1.347103 -0.098003
v -0.171397 0.654514 0.062463
v -0.241125 0.654514 0.050006
v -0.164258 0.712561 0.022504
v -0.181201 0.693500 0.117346
v -0.250930 0.693500 0.104889
v -0.243791 0.751548 0.064930
v -0.174063 0.751548 0.077387
v -0.191006 0.732486 0.172229
v -0.260735 0.732486 0.159773
v -0.253596 0.790534 0.119814
v -0.183868 0.790534 0.132270
v -0.200811 0.771472 0.227113
v -0.270539 0.771472 0.214656
v -0.263401 0.829520 0.174697
v -0.193672 0.829520 0.187154
v -0.210616 0.810458 0.281996
v -0.280344 0.810458 0.269539
v -0.273206 0.868506 0.229580
v -0.203477 0.868506 0.242037
v -0.220420 0.849445 0.336879
v -0.290149 0.849445 0.324422
v -0.283010 0.907493 0.284463
v -0.213282 0.907493 0.296920
v -0.230225 0.888431 0.391762
v -0.299954 0.888431 0.379305
v -0.292815 0.946479 0.339347
v -0.223087 0.946479 0.351803
v -0.240030 0.927417 0.446645
v -0.309758 0.927417 0.434189
v -0.302620 0.985465 0.394230
v -0.232891 0.985465 0.406687
v -0.249835 0.966403 0.501529
v -0.319563 0.966403 0.489072
v -0.312424 1.024451 0.449113
v -0.242696 1.024451 0.461570
v -0.126286 0.264362 0.082614
v -0.302276 0.264362 0.033524
v -0.253208 0.270016 -0.142382
v -0.077219 0.270016 -0.093291
v -0.142735 0.412841 0.060043
v -0.276518 0.412841 0.022725
v -0.239218 0.417140 -0.110993
v -0.105436 0.417140 -0.073676
v -0.156303 0.535311 0.041425
v -0.255272 0.535311 0.013819
v -0.227679 0.538491 -0.085103
v -0.128710 0.538491 -0.057497
vn 0.8766 -0.0000 0.4811
vn 0.2606 -0.8406 -0.4748
vn -0.8766 -0.0000 -0.4811
vn -0.2606 0.8406 0.4748
vn 0.0256 0.9991 0.0327
vn 0.9389 0.1343 0.3169
vn -0.6685 0.1505 -0.7283
vn -0.7955 0.4858 0.3623
vn -0.8815 0.0021 -0.4722
vn -0.3555 0.8244 0.4404
vn 0.8659 0.0045 0.5003
vn 0.3510 -0.1918 -0.9165
vn -0.2250 -0.2283 0.9473
vn -0.9956 -0.0070 -0.0931
vn 0.9512 0.0329 0.3067
vn -0.1441 0.5731 0.8067
vn 0.4045 0.5416 -0.7369
vn -0.1512 0.9720 -0.1799
vn 0.0083 -0.9995 -0.0298
vn -0.6055 -0.2570 -0.7532
vn 0.7040 -0.0156 -0.7100
vn 0.5786 0.1411 0.8033
vn -0.8074 0.0464 0.5882
vn -0.6252 -0.2350 -0.7442
vn 0.7657 -0.0000 -0.6432
vn 0.6252 0.2350 0.7442
vn -0.7657 -0.0000 0.6432
vn -0.1008 -0.8195 0.5641
vn -0.9501 0.0218 -0.3112
vn 0.1025 0.8207 -0.5621
vn 0.9844 -0.0000 0.1759
vn -0.9844 -0.0000 -0.1759
vn 0.1008 0.8195 -0.5641
vn -0.2669 0.1159 0.9567
vn -0.9540 0.1465 -0.2614
vn 0.2644 0.1771 -0.9480
vn 0.9516 0.1465 0.2702
s 0
usemtl Material.006
f 66//61 67//61 63//61 62//61
f 65//62 66//62 62//62 61//62
f 64//63 61//63 57//63 60//63
f 63//64 64//64 60//64 59//64
f 62//61 63//61 59//61 58//61
f 55//65 78//65 121//65
f 61//62 62//62 58//62 57//62
f 54//66 55//66 121//66 119//66
f 53//67 164//67 77//67 56//67
f 77//68 120//68 78//68
f 60//69 57//69 53//69 56//69
f 59//70 60//70 56//70 55//70
f 58//71 59//71 55//71 54//71
f 164//72 53//72 54//72 165//72
f 163//73 162//73 119//73 120//73
f 57//62 58//62 54//62 53//62
f 164//74 163//74 120//74 77//74
f 165//75 54//75 119//75 162//75
f 52//76 51//76 50//76 49//76
f 48//77 47//77 46//77 45//77
f 44//78 43//78 42//78 41//78
f 37//79 38//79 39//79 40//79
f 67//64 68//64 64//64 63//64
f 68//63 65//63 61//63 64//63
f 69//62 70//62 66//62 65//62
f 70//61 71//61 67//61 66//61
f 71//64 72//64 68//64 67//64
f 72//63 69//63 65//63 68//63
f 73//62 74//62 70//62 69//62
f 74//61 75//61 71//61 70//61
f 75//64 76//64 72//64 71//64
f 76//63 73//63 69//63 72//63
f 45//62 46//62 74//62 73//62
f 46//61 47//61 75//61 74//61
f 47//64 48//64 76//64 75//64
f 48//63 45//63 73//63 76//63
f 79//80 80//80 56//80 77//80
f 80//81 81//81 55//81 56//81
f 81//82 82//82 78//82 55//82
f 82//83 79//83 77//83 78//83
f 83//84 84//84 80//84 79//84
f 84//85 85//85 81//85 80//85
f 85//86 86//86 82//86 81//86
f 86//87 83//87 79//87 82//87
f 87//84 88//84 84//84 83//84
f 88//85 89//85 85//85 84//85
f 89//86 90//86 86//86 85//86
f 90//87 87//87 83//87 86//87
f 91//84 92//84 88//84 87//84
f 92//85 93//85 89//85 88//85
f 93//86 94//86 90//86 89//86
f 94//87 91//87 87//87 90//87
f 95//84 96//84 92//84 91//84
f 96//85 97//85 93//85 92//85
f 97//86 98//86 94//86 93//86
f 98//87 95//87 91//87 94//87
f 99//84 100//84 96//84 95//84
f 100//85 101//85 97//85 96//85
f 101//86 102//86 98//86 97//86
f 102//87 99//87 95//87 98//87
f 103//84 104//84 100//84 99//84
f 104//85 105//85 101//85 100//85
f 105//86 106//86 102//86 101//86
f 106//87 103//87 99//87 102//87
f 107//84 108//84 104//84 103//84
f 108//85 109//85 105//85 104//85
f 109//86 110//86 106//86 105//86
f 110//87 107//87 103//87 106//87
f 111//84 112//84 108//84 107//84
f 112//85 113//85 109//85 108//85
f 113//86 114//86 110//86 109//86
f 114//87 111//87 107//87 110//87
f 115//84 116//84 112//84 111//84
f 116//85 117//85 113//85 112//85
f 117//86 118//86 114//86 113//86
f 118//87 115//87 111//87 114//87
f 41//84 42//84 116//84 115//84
f 42//85 43//85 117//85 116//85
f 43//86 44//86 118//86 117//86
f 44//87 41//87 115//87 118//87
f 122//88 123//88 120//88 119//88
f 123//89 124//89 78//89 120//89
f 124//90 125//90 121//90 78//90
f 125//91 122//91 119//91 121//91
f 126//88 127//88 123//88 122//88
f 127//92 128//92 124//92 123//92
f 128//93 129//93 125//93 124//93
f 129//91 126//91 122//91 125//91
f 130//88 131//88 127//88 126//88
f 131//92 132//92 128//92 127//92
f 132//93 133//93 129//93 128//93
f 133//91 130//91 126//91 129//91
f 134//88 135//88 131//88 130//88
f 135//92 136//92 132//92 131//92
f 136//93 137//93 133//93 132//93
f 137//91 134//91 130//91 133//91
f 138//88 139//88 135//88 134//88
f 139//92 140//92 136//92 135//92
f 140//93 141//93 137//93 136//93
f 141//91 138//91 134//91 137//91
f 142//88 143//88 139//88 138//88
f 143//92 144//92 140//92 139//92
f 144//93 145//93 141//93 140//93
f 145//91 142//91 138//91 141//91
f 146//88 147//88 143//88 142//88
f 147//92 148//92 144//92 143//92
f 148//93 149//93 145//93 144//93
f 149//91 146//91 142//91 145//91
f 150//88 151//88 147//88 146//88
f 151//92 152//92 148//92 147//92
f 152//93 153//93 149//93 148//93
f 153//91 150//91 146//91 149//91
f 49//88 50//88 151//88 150//88
f 50//92 51//92 152//92 151//92
f 51//93 52//93 153//93 152//93
f 52//91 49//91 150//91 153//91
f 154//94 155//94 38//94 37//94
f 155//95 156//95 39//95 38//95
f 156//96 157//96 40//96 39//96
f 157//97 154//97 37//97 40//97
f 158//94 159//94 155//94 154//94
f 159//95 160//95 156//95 155//95
f 160//96 161//96 157//96 156//96
f 161//97 158//97 154//97 157//97
f 162//94 163//94 159//94 158//94
f 163//95 164//95 160//95 159//95
f 164//96 165//96 161//96 160//96
f 165//97 162//97 158//97 161//97
